<?xml version="1.0" standalone="no"?>
<!DOCTYPE svg PUBLIC "-//W3C//DTD SVG 1.1//EN" "http://www.w3.org/Graphics/SVG/1.1/DTD/svg11.dtd" >
<svg>
<metadata>
Created by FontForge 20110222 at Tue Mar 11 16:55:49 2014
 By Orthosie Webhosting
(c) Copyright 2012 Hewlett-Packard Development Company, L.P.
</metadata>
<defs>
<font id="HPSimplifiedW02-Light" horiz-adv-x="536" >
  <font-face 
    font-family="HP Simplified W02 Light"
    font-weight="300"
    font-stretch="normal"
    units-per-em="1000"
    panose-1="2 11 4 4 2 2 4 2 2 4"
    ascent="813"
    descent="-187"
    x-height="503"
    cap-height="693"
    bbox="-160 -187 1039 908"
    underline-thickness="50"
    underline-position="-95"
    unicode-range="U+0020-FB02"
  />
<missing-glyph horiz-adv-x="210" 
 />
    <glyph glyph-name=".notdef" horiz-adv-x="210" 
 />
    <glyph glyph-name="exclam" unicode="!" horiz-adv-x="235" 
d="M110 196q-15 0 -15 15q-5 60 -5.5 122.5t-0.5 121.5v238h42q15 0 15 -15v-223q0 -68 -1 -128.5t-6 -130.5h-29zM70 42q0 26 11.5 36.5t35.5 10.5q25 0 36.5 -10.5t11.5 -36.5t-11.5 -36t-36.5 -10q-26 0 -36.5 10t-10.5 36z" />
    <glyph glyph-name="quotedbl" unicode="&#x22;" horiz-adv-x="308" 
d="M103 693q15 0 15 -15q-1 -52 -3.5 -98.5t-6.5 -89.5h-30q-13 0 -15 15q-3 42 -5 84t-3 104h48zM238 693q15 0 15 -15q-1 -52 -3.5 -98.5t-6.5 -89.5h-30q-13 0 -15 15q-3 42 -5 84t-3 104h48z" />
    <glyph glyph-name="numbersign" unicode="#" horiz-adv-x="571" 
d="M407 189l-19 -189h-38q-15 0 -15 15l18 174h-166l-19 -189h-38q-15 0 -15 15l18 174h-63q-15 0 -15 15v35h83l21 204h-89q-15 0 -15 15v35h109l18 175h38q15 0 15 -15l-17 -160h166l18 175h38q15 0 15 -15l-17 -160h63q15 0 15 -15v-35h-83l-21 -204h89q15 0 15 -15v-35
h-109zM192 239h166l21 204h-166z" />
    <glyph glyph-name="dollar" unicode="$" 
d="M315 674q35 -2 64.5 -6t48.5 -11q13 -5 13 -19v-27q-29 5 -63 9.5t-66 5.5l-20 -258q37 -11 69 -23.5t55.5 -32.5t37 -51t13.5 -78q0 -50 -15 -84.5t-42 -56t-64.5 -31.5t-82.5 -10l-8 -99h-32q-15 0 -14 12l7 88q-39 3 -75 8.5t-52 13.5q-13 5 -13 19v29
q21 -5 58.5 -11.5t85.5 -8.5l21 274q-34 11 -65 23.5t-54.5 32.5t-37.5 50t-14 75q0 76 47.5 122t151.5 46l7 93h32q15 0 14 -12zM410 184q0 28 -6 47.5t-20.5 33.5t-38 25t-58.5 22l-20 -261q42 1 69.5 10.5t44 27t23 41.5t6.5 54zM127 507q0 -27 6.5 -46t20.5 -33t37 -25
t55 -21l19 244q-77 -2 -107.5 -33t-30.5 -86z" />
    <glyph glyph-name="percent" unicode="%" horiz-adv-x="752" 
d="M178 357q50 0 67.5 36.5t17.5 105.5t-17.5 105.5t-67.5 36.5t-67.5 -36.5t-17.5 -105.5t17.5 -105.5t67.5 -36.5zM178 312q-30 0 -54.5 10t-42.5 32.5t-28 58t-10 86.5t10 86.5t28 58t42.5 32.5t54.5 10t54.5 -10t42.5 -32.5t28 -58t10 -86.5t-10 -86.5t-28 -58
t-42.5 -32.5t-54.5 -10zM198 0h-32q-15 0 -15 13q0 6 4 13l399 651h32q15 0 15 -13q0 -6 -4 -13zM574 38q50 0 67.5 36.5t17.5 105.5t-17.5 105.5t-67.5 36.5t-67.5 -36.5t-17.5 -105.5t17.5 -105.5t67.5 -36.5zM574 -7q-30 0 -54.5 10t-42.5 32.5t-28 58t-10 86.5t10 86.5
t28 58t42.5 32.5t54.5 10t54.5 -10t42.5 -32.5t28 -58t10 -86.5t-10 -86.5t-28 -58t-42.5 -32.5t-54.5 -10z" />
    <glyph glyph-name="ampersand" unicode="&#x26;" horiz-adv-x="628" 
d="M544 0q-8 0 -13 9q-14 27 -26.5 47t-28.5 43q-39 -51 -93 -81t-132 -30q-56 0 -94 15t-62 40t-34.5 57t-10.5 67q0 38 9.5 66.5t29 52t48.5 43.5t69 41q-25 24 -43 45t-29.5 42t-17 43.5t-5.5 49.5t8.5 54.5t28.5 49t52 35t79 13.5q46 0 78 -12t51.5 -32.5t28 -47
t8.5 -55.5q0 -33 -9 -59t-27.5 -48.5t-47 -42.5t-68.5 -41q54 -47 97 -89.5t83 -89.5q20 39 33.5 81.5t21.5 87.5h36q8 0 11 -3.5t3 -8.5q0 -7 -3 -19q-12 -47 -28 -93t-39 -85q32 -44 55.5 -83t34.5 -62h-54zM259 38q63 0 107.5 26.5t77.5 71.5q-44 55 -92 102t-109 100
q-35 -18 -61 -35t-42.5 -35.5t-24.5 -42t-8 -55.5q0 -37 12.5 -62t33.5 -40.5t48.5 -22.5t57.5 -7zM166 550q0 -24 4.5 -42t15 -35.5t27.5 -35.5t43 -42q36 19 61.5 36t42 35t24.5 39.5t8 49.5q0 49 -29 74t-83 25q-24 0 -44.5 -5.5t-36 -18t-24.5 -32.5t-9 -48z" />
    <glyph glyph-name="quotesingle" unicode="'" horiz-adv-x="173" 
d="M103 693q15 0 15 -15q-1 -52 -3.5 -98.5t-6.5 -89.5h-30q-13 0 -15 15q-3 42 -5 84t-3 104h48z" />
    <glyph glyph-name="parenleft" unicode="(" horiz-adv-x="279" 
d="M218 -82q-10 0 -15 3t-10 10q-65 94 -93.5 194.5t-28.5 217.5q0 59 7 113.5t22.5 106.5t40.5 103t60 102h27q16 0 16 -12q0 -4 -3 -10q-29 -54 -49.5 -101t-34 -93.5t-19.5 -97t-6 -111.5t6.5 -112t20.5 -100.5t37 -100.5t56 -112h-34z" />
    <glyph glyph-name="parenright" unicode=")" horiz-adv-x="279" 
d="M61 768q10 0 15 -3t10 -10q65 -94 93.5 -194.5t28.5 -217.5q0 -59 -7 -113.5t-22.5 -106.5t-40.5 -103t-60 -102h-27q-16 0 -16 12q0 4 3 10q29 54 49.5 101t34 93.5t19.5 97t6 111.5t-6.5 112t-20.5 100.5t-37 100.5t-56 112h34z" />
    <glyph glyph-name="asterisk" unicode="*" horiz-adv-x="395" 
d="M198 495l-78 -122l-31 23q-8 6 -5 13.5t10 15.5l76 91l-140 36l12 37q4 11 11 10t17 -5l111 -45l-9 144h39q11 0 12.5 -7t0.5 -18l-8 -119l134 53l12 -37q3 -10 -2.5 -13.5t-16.5 -6.5l-116 -29l91 -111l-31 -23q-8 -6 -14 -1t-12 14z" />
    <glyph glyph-name="plus" unicode="+" 
d="M243 320h-153q-15 0 -15 15v33h168v179h36q15 0 15 -15v-164h153q15 0 15 -15v-33h-168v-179h-36q-15 0 -15 15v164z" />
    <glyph glyph-name="comma" unicode="," horiz-adv-x="223" 
d="M64 42q0 26 11.5 36.5t35.5 10.5q25 0 36.5 -10.5t11.5 -36.5q0 -17 -5.5 -34.5t-12.5 -34.5l-38 -95h-27q-11 0 -11 10q0 5 2 11l32 99q-17 2 -26 12.5t-9 31.5z" />
    <glyph glyph-name="hyphen" unicode="-" horiz-adv-x="383" 
d="M63 248q-15 0 -15 15v35h272q15 0 15 -15v-35h-272z" />
    <glyph glyph-name="period" unicode="." horiz-adv-x="223" 
d="M64 42q0 26 11.5 36.5t35.5 10.5q25 0 36.5 -10.5t11.5 -36.5t-11.5 -36t-36.5 -10q-26 0 -36.5 10t-10.5 36z" />
    <glyph glyph-name="slash" unicode="/" horiz-adv-x="345" 
d="M261 768h36q20 0 14 -22l-227 -829h-36q-20 0 -14 22z" />
    <glyph glyph-name="zero" unicode="0" 
d="M268 693q52 0 92 -16.5t67.5 -56.5t42 -107.5t14.5 -169.5t-14 -170t-41.5 -108.5t-68 -57t-92.5 -16.5q-53 0 -93 16.5t-67.5 57t-41.5 108.5t-14 170t14.5 169.5t42 107.5t68 56.5t91.5 16.5zM268 44q47 0 77 18t47.5 55t24 93.5t6.5 132.5t-6.5 132t-24 92.5
t-47.5 54.5t-77 18t-77 -18t-47.5 -54.5t-24 -92.5t-6.5 -132t6.5 -132.5t24 -93.5t47.5 -55t77 -18z" />
    <glyph glyph-name="one" unicode="1" 
d="M90 602l51 23q48 22 77.5 35t47 20.5t26 10t14.5 2.5q17 0 17 -15v-678h-43q-15 0 -15 15v610l-144 -61q-10 -5 -17 -5q-14 0 -14 15v28z" />
    <glyph glyph-name="two" unicode="2" 
d="M74 49q0 51 12.5 92.5t35 76t54 64t69.5 56.5q37 26 65.5 47t47.5 42t28.5 44t9.5 53q0 25 -7 46.5t-24.5 37.5t-47 24.5t-74.5 8.5q-54 0 -91.5 -8.5t-52.5 -8.5q-10 0 -12.5 5t-2.5 11v26q32 11 75 19t97 8q100 0 149.5 -44.5t49.5 -122.5q0 -38 -11.5 -66.5
t-31.5 -52.5t-47.5 -45t-59.5 -45q-30 -22 -61 -47.5t-55.5 -57t-40.5 -71t-17 -89.5h310q15 0 15 -15v-37h-367q-15 0 -15 15v34z" />
    <glyph glyph-name="three" unicode="3" 
d="M217 -9q-11 0 -30.5 1.5t-42 3.5t-43 5.5t-32.5 8.5q-14 5 -14 21v29q28 -5 69.5 -10.5t86.5 -5.5q49 0 81.5 10.5t52.5 30t28.5 47t8.5 60.5q0 41 -11 67t-32 41t-50.5 20.5t-66.5 5.5h-46q-15 0 -15 15v37h61q45 0 73.5 13.5t44 34t21.5 45t6 47.5q0 57 -33.5 90
t-115.5 33q-53 0 -89 -8t-50 -8q-10 0 -12.5 5t-2.5 11v26q30 11 71.5 18.5t94.5 7.5q99 0 147 -48.5t48 -126.5q0 -58 -25 -97t-72 -62q56 -19 85 -58t29 -108q0 -104 -60.5 -153t-164.5 -49z" />
    <glyph glyph-name="four" unicode="4" 
d="M352 226v394q-50 -40 -91.5 -90t-73 -102.5t-54 -105t-34.5 -96.5h253zM45 225q14 52 40 112.5t64 121.5t86.5 117.5t107.5 100.5h51q15 0 15 -15v-436h57q15 0 15 -15v-36h-72v-175h-42q-15 0 -15 15v160h-292q-15 0 -15 15v35z" />
    <glyph glyph-name="five" unicode="5" 
d="M246 -9q-15 0 -37 1.5t-44.5 3.5t-42.5 5.5t-32 8.5q-14 5 -14 21v29q25 -5 67 -10.5t86 -5.5q95 0 133 40t38 117q0 44 -11.5 72.5t-33.5 45.5t-53.5 23.5t-71.5 6.5h-120q-15 0 -15 15l20 313h308q15 0 15 -15v-37h-274l-14 -224h85q63 0 106.5 -15t69.5 -41t37.5 -62
t11.5 -79q0 -64 -19 -105t-50 -65t-69 -33.5t-76 -9.5z" />
    <glyph glyph-name="six" unicode="6" 
d="M284 364q-45 0 -86 -13t-74 -36v-27q0 -59 8 -104t26.5 -76.5t49 -47.5t75.5 -16q72 0 106 42t34 125q0 32 -6 60t-21.5 48.5t-42.5 32.5t-69 12zM304 640q-44 0 -77 -13.5t-55.5 -45.5t-34.5 -84t-13 -128q27 18 66 32.5t96 14.5q97 0 147 -50t50 -156
q0 -48 -11.5 -88.5t-36 -69.5t-62.5 -45t-91 -16q-64 0 -106 23.5t-67 67.5t-35.5 107t-10.5 142q0 190 57 275.5t174 85.5q16 0 34.5 -1t37.5 -3t36 -5.5t29 -7.5q14 -5 14 -21v-28q-26 5 -61 9.5t-80 4.5z" />
    <glyph glyph-name="seven" unicode="7" 
d="M177 0q-15 0 -15 15q0 19 11 61q18 66 44.5 141t56.5 148.5t61 141t57 118.5h-321q-15 0 -15 15v37h380q9 0 14.5 -3t5.5 -14v-29q-44 -81 -81.5 -165t-68 -165.5t-53 -158t-36.5 -142.5h-40z" />
    <glyph glyph-name="eight" unicode="8" 
d="M268 693q97 0 145.5 -47t48.5 -135q0 -48 -20.5 -91t-65.5 -64q57 -23 82.5 -65t25.5 -107q0 -97 -57.5 -145t-158.5 -48t-158.5 48t-57.5 145q0 65 25.5 107t82.5 65q-45 21 -65.5 64t-20.5 91q0 88 48.5 135t145.5 47zM268 43q72 0 114.5 32.5t42.5 108.5q0 27 -6 53.5
t-23 46.5t-48 32.5t-80 12.5q-50 0 -80.5 -12.5t-47.5 -32.5t-23 -46.5t-6 -53.5q0 -76 42.5 -108.5t114.5 -32.5zM268 380q47 0 74.5 12.5t41 32t17 43t3.5 46.5q0 128 -136 128t-136 -128q0 -23 3.5 -46.5t17 -43t41 -32t74.5 -12.5z" />
    <glyph glyph-name="nine" unicode="9" 
d="M237 -8q-16 0 -35 1.5t-37.5 3.5t-36 5.5t-29.5 8.5q-14 5 -14 21v28q26 -5 65 -10.5t84 -5.5q43 0 76 13t55.5 45t34 86t12.5 135q-26 -17 -65 -32t-95 -15q-97 0 -147.5 50t-50.5 152q0 47 11.5 86.5t36 68t62.5 44.5t90 16q64 0 106 -23t67 -66.5t35.5 -105.5
t10.5 -141q0 -96 -12.5 -165.5t-40.5 -113.5t-73 -65t-110 -21zM412 396q0 117 -34.5 180.5t-121.5 63.5q-72 0 -107 -41t-35 -117q0 -35 6 -63.5t22 -48.5t44.5 -31t72.5 -11q35 0 78 13t75 36v19z" />
    <glyph glyph-name="colon" unicode=":" horiz-adv-x="223" 
d="M64 42q0 26 11.5 36.5t35.5 10.5q25 0 36.5 -10.5t11.5 -36.5t-11.5 -36t-36.5 -10q-26 0 -36.5 10t-10.5 36zM64 456q0 26 11.5 36.5t35.5 10.5q25 0 36.5 -10.5t11.5 -36.5t-11.5 -36t-36.5 -10q-26 0 -36.5 10t-10.5 36z" />
    <glyph glyph-name="semicolon" unicode=";" horiz-adv-x="223" 
d="M64 456q0 26 11.5 36.5t35.5 10.5q25 0 36.5 -10.5t11.5 -36.5t-11.5 -36t-36.5 -10q-26 0 -36.5 10t-10.5 36zM64 42q0 26 11.5 36.5t35.5 10.5q25 0 36.5 -10.5t11.5 -36.5q0 -17 -5.5 -34.5t-12.5 -34.5l-38 -95h-27q-11 0 -11 10q0 5 2 11l32 99q-17 2 -26 12.5
t-9 31.5z" />
    <glyph glyph-name="less" unicode="&#x3c;" 
d="M437 141l-331 173q-8 5 -12 8.5t-4 11.5v32l322 173q5 3 7.5 3.5t5.5 0.5q12 0 12 -15v-30l-292 -154l283 -142q6 -4 7.5 -7t1.5 -12v-42z" />
    <glyph glyph-name="equal" unicode="=" 
d="M90 414q-15 0 -15 15v33h372q15 0 15 -15v-33h-372zM90 218q-15 0 -15 15v33h372q15 0 15 -15v-33h-372z" />
    <glyph glyph-name="greater" unicode="&#x3e;" 
d="M99 547l331 -173q8 -5 12 -8.5t4 -11.5v-32l-322 -173q-5 -3 -7.5 -3.5t-5.5 -0.5q-12 0 -12 15v30l292 154l-283 142q-6 4 -7.5 7t-1.5 12v42z" />
    <glyph glyph-name="question" unicode="?" horiz-adv-x="416" 
d="M189 649q-45 0 -79.5 -8.5t-49.5 -8.5q-10 0 -12.5 5t-2.5 11v26q32 11 70 19t79 8q48 0 81 -12t54 -33t30.5 -49.5t9.5 -62.5q0 -30 -8 -54t-20 -43.5t-27.5 -36t-30.5 -31.5q-30 -30 -49 -50.5t-30.5 -39t-15.5 -40t-4 -53.5h-27q-14 0 -17 12q-2 8 -2 24
q0 28 6.5 49.5t19.5 41t31 39t41 42.5q20 20 34.5 35.5t23.5 30.5t13.5 32t4.5 40q0 53 -28 80t-95 27zM120 41q0 26 11.5 37t35.5 11q25 0 36.5 -10.5t11.5 -36.5t-11.5 -36t-36.5 -10q-26 0 -36.5 10t-10.5 35z" />
    <glyph glyph-name="at" unicode="@" horiz-adv-x="822" 
d="M531 53q-14 0 -14 17v36q-25 -25 -58.5 -43.5t-76.5 -18.5q-41 0 -68 14.5t-43.5 40.5t-23.5 62.5t-7 80.5q0 50 10 96.5t34 82t65.5 57t104.5 21.5q12 0 27.5 -1t31.5 -2.5t31 -4.5t25 -6q11 -4 15 -8.5t3 -15.5l-19 -358q44 0 72.5 21.5t45 56.5t23 78.5t6.5 87.5
q0 143 -63.5 214.5t-203.5 71.5q-65 0 -125.5 -17.5t-107 -60t-75 -115.5t-28.5 -184q0 -101 24.5 -168.5t69.5 -108t109 -58t144 -17.5q71 0 107.5 7t49.5 7q17 0 17 -16v-26q-24 -9 -75.5 -15.5t-113.5 -6.5q-78 0 -148 18.5t-123.5 64t-84.5 123t-31 196.5
q0 122 32.5 204t87 131.5t125 70.5t146.5 21q61 0 119 -14.5t103 -52t72.5 -102.5t27.5 -167q0 -66 -13 -120.5t-39.5 -93t-66 -59.5t-92.5 -21h-28zM532 441q-14 4 -37.5 6.5t-42.5 2.5q-49 0 -79.5 -16.5t-48 -44.5t-24 -65.5t-6.5 -80.5q0 -80 20.5 -115t72.5 -35
q24 0 44 6.5t36.5 16t29 21t20.5 21.5z" />
    <glyph glyph-name="A" unicode="A" horiz-adv-x="537" 
d="M445 15q-8 48 -18 97.5t-22 101.5h-276q-13 -54 -23.5 -107t-19.5 -107h-40q-17 0 -15 15q20 121 48 228.5t57 195t56 153t46 101.5h48q7 0 11.5 -2t9.5 -12q19 -41 46.5 -109t55.5 -156.5t54 -193.5t44 -220h-46q-13 0 -16 15zM267 635q-39 -89 -70 -181t-56 -189h251
q-24 95 -55.5 188.5t-69.5 181.5z" />
    <glyph glyph-name="B" unicode="B" horiz-adv-x="552" 
d="M134 52h155q40 0 69.5 6.5t48.5 22t28 42.5t9 69q0 39 -10 65.5t-30.5 42.5t-50 22.5t-68.5 6.5h-151v-277zM77 681q18 3 42 6t50.5 5.5t53 4t49.5 1.5q46 0 85 -9t67.5 -31t44.5 -57.5t16 -88.5q0 -57 -21.5 -97.5t-64.5 -57.5q52 -17 78 -59t26 -105q0 -56 -15 -93
t-42.5 -59.5t-67 -31.5t-87.5 -9h-199q-15 0 -15 15v666zM134 380h151q34 0 60.5 5.5t44.5 20.5t27.5 40.5t9.5 65.5t-10 66t-29.5 41t-48.5 21t-68 6q-45 0 -79.5 -3t-57.5 -7v-256z" />
    <glyph glyph-name="C" unicode="C" horiz-adv-x="503" 
d="M316 647q-54 0 -91 -15t-60 -49.5t-33 -91t-10 -140.5q0 -97 13 -157t38 -93t62 -44.5t85 -11.5q49 0 82 7t49 7q17 0 17 -16v-27q-25 -9 -66 -17t-89 -8q-73 0 -121.5 22.5t-77.5 67.5t-41 111.5t-12 153.5q0 93 13.5 160t43 110.5t77 64t115.5 20.5q18 0 37.5 -1.5
t38 -4t35 -6t27.5 -7.5q14 -5 14 -21v-29q-28 5 -68 10t-78 5z" />
    <glyph glyph-name="D" unicode="D" horiz-adv-x="596" 
d="M278 646q-42 0 -79.5 -2.5t-63.5 -7.5v-584h134q48 0 86.5 11t64.5 43t40 89.5t14 150.5q0 87 -10.5 144.5t-34 92t-61 49t-90.5 14.5zM77 681q19 3 44.5 6t53.5 5.5t56.5 4t52.5 1.5q69 0 117 -21t77.5 -64.5t43 -109.5t13.5 -157q0 -86 -13.5 -151t-44 -108.5t-79 -65
t-118.5 -21.5h-188q-15 0 -15 15v666z" />
    <glyph glyph-name="E" unicode="E" horiz-adv-x="509" 
d="M455 641h-320v-267h281q15 0 15 -15v-37h-296v-270h317q15 0 15 -15v-37h-375q-15 0 -15 15v678h363q15 0 15 -15v-37z" />
    <glyph glyph-name="F" unicode="F" horiz-adv-x="475" 
d="M77 693h348q15 0 15 -15v-37h-305v-270h256q15 0 15 -15v-37h-271v-319h-43q-15 0 -15 15v678z" />
    <glyph glyph-name="G" unicode="G" horiz-adv-x="570" 
d="M333 647q-59 0 -99 -14.5t-65 -48.5t-36 -91t-11 -142q0 -98 14 -158t42 -93t69.5 -44t97.5 -11q32 0 59.5 2.5t47.5 6.5v240h-120q-15 0 -15 15v37h177q15 0 15 -15v-314q-35 -12 -78.5 -19t-91.5 -7q-81 0 -135 22t-85.5 66.5t-44.5 110.5t-13 155q0 94 14.5 161.5
t46.5 111t83 63.5t124 20q41 0 81.5 -5.5t63.5 -13.5q14 -5 14 -21v-29q-28 5 -69 10t-86 5z" />
    <glyph glyph-name="H" unicode="H" horiz-adv-x="601" 
d="M524 0h-43q-15 0 -15 15v314h-331v-329h-43q-15 0 -15 15v678h43q15 0 15 -15v-297h331v312h43q15 0 15 -15v-678z" />
    <glyph glyph-name="I" unicode="I" horiz-adv-x="212" 
d="M135 0h-43q-15 0 -15 15v678h43q15 0 15 -15v-678z" />
    <glyph glyph-name="J" unicode="J" horiz-adv-x="359" 
d="M285 202q0 -42 -5.5 -79.5t-23.5 -66.5t-53 -46t-93 -17q-44 0 -72 10q-10 4 -10 16v30q17 -2 32.5 -3t38.5 -1q47 0 73 14t38 36t14.5 48.5t2.5 52.5v497h43q15 0 15 -15v-476z" />
    <glyph glyph-name="K" unicode="K" 
d="M135 379q36 28 76 63.5t80.5 76t79 84.5t70.5 90h41q15 0 15 -13q0 -5 -3 -9q-42 -62 -122.5 -145t-186.5 -171q33 -23 77.5 -62t91 -87.5t90 -102t75.5 -103.5h-50q-14 0 -20 5t-10 10q-39 56 -81 104t-81.5 87t-76 69.5t-65.5 52.5v-328h-43q-15 0 -15 15v678h43
q15 0 15 -15v-299z" />
    <glyph glyph-name="L" unicode="L" horiz-adv-x="465" 
d="M135 52h287q15 0 15 -15v-37h-345q-15 0 -15 15v678h43q15 0 15 -15v-626z" />
    <glyph glyph-name="M" unicode="M" horiz-adv-x="691" 
d="M582 693q14 0 15 -15q10 -179 16.5 -346.5t9.5 -331.5h-42q-15 0 -15 15q-1 67 -3.5 140t-5.5 147t-6 146.5t-5 139.5l-171 -409h-52q-7 0 -10 3.5t-6 10.5l-165 395q-2 -69 -5 -143.5t-6 -150.5t-5.5 -150.5t-3.5 -143.5h-40q-15 0 -15 15q3 165 10 331t17 347h48
q12 0 17 -14l187 -441l193 455h43z" />
    <glyph glyph-name="N" unicode="N" horiz-adv-x="603" 
d="M482 0q-11 0 -19 15q-18 34 -45.5 84t-59.5 107t-66 117t-64.5 113t-55 95.5t-38.5 64.5v-596h-42q-15 0 -15 15v678h50q7 0 10.5 -3.5t8.5 -11.5q13 -22 36.5 -61.5t52.5 -89.5t62 -106.5t64.5 -112.5t59.5 -107t48 -90v582h42q15 0 15 -15v-678h-44z" />
    <glyph glyph-name="O" unicode="O" horiz-adv-x="609" 
d="M122 346q0 -81 8.5 -138t29.5 -93.5t56 -53.5t88 -17q52 0 87 17t56.5 53.5t30.5 93.5t9 138t-9 138.5t-30 93.5t-56.5 53t-87.5 17q-53 0 -88 -17t-56 -53t-29.5 -93.5t-8.5 -138.5zM548 346q0 -107 -17.5 -176t-49.5 -109t-77 -55.5t-100 -15.5q-54 0 -99 15.5
t-77 55.5t-49.5 109t-17.5 176t17.5 176t49.5 109t77 55.5t99 15.5q55 0 100 -15.5t77 -55.5t49.5 -109t17.5 -176z" />
    <glyph glyph-name="P" unicode="P" horiz-adv-x="546" 
d="M92 0q-15 0 -15 15v666q18 3 41 6t48.5 5.5t52 4t51.5 1.5q119 0 173.5 -52.5t54.5 -171.5q0 -61 -14.5 -103t-41 -68.5t-64.5 -38t-85 -11.5q-31 0 -71.5 4t-86.5 13v-270h-43zM135 322q35 -8 73 -12.5t76 -4.5q39 0 68 8t48.5 27.5t29 52t9.5 81.5q0 55 -11.5 89
t-33 52.5t-53 24.5t-70.5 6q-45 0 -79 -3t-57 -7v-314z" />
    <glyph glyph-name="Q" unicode="Q" horiz-adv-x="609" 
d="M122 346q0 -81 8.5 -138t29.5 -93.5t56 -53.5t88 -17q52 0 87 17t56.5 53.5t30.5 93.5t9 138t-9 138.5t-30 93.5t-56.5 53t-87.5 17q-53 0 -88 -17t-56 -53t-29.5 -93.5t-8.5 -138.5zM501 -129q-9 0 -13 4.5t-8 10.5q-9 14 -20.5 30t-24 32t-24.5 29.5t-21 23.5
q-41 -11 -86 -11q-54 0 -99 15.5t-77 55.5t-49.5 109t-17.5 176t17.5 176t49.5 109t77 55.5t99 15.5q55 0 100 -15.5t77 -55.5t49.5 -109t17.5 -176q0 -68 -7.5 -120.5t-21 -91.5t-33.5 -65.5t-45 -43.5q28 -32 60.5 -74t53.5 -80h-54z" />
    <glyph glyph-name="R" unicode="R" horiz-adv-x="561" 
d="M279 646q-51 0 -86 -3t-58 -7v-290h150q34 0 62 6t48.5 22.5t32 45.5t11.5 74q0 44 -10 73t-29.5 46.5t-50 25t-70.5 7.5zM278 698q60 0 101.5 -13.5t68 -39.5t38.5 -64t12 -87q0 -47 -11 -80.5t-30.5 -56t-46.5 -36t-58 -20.5q26 -30 53.5 -71t52 -84t44.5 -82t31 -64
h-49q-11 0 -15 5t-6 10q-10 21 -28 54.5t-41.5 72.5t-51.5 79.5t-58 74.5h-149v-296h-43q-15 0 -15 15v666q36 6 90 11.5t111 5.5z" />
    <glyph glyph-name="S" unicode="S" horiz-adv-x="509" 
d="M237 -9q-48 0 -95 7t-73 16q-14 5 -14 21v29l77.5 -12.5t100.5 -7.5q48 0 79.5 9.5t49.5 27t25.5 43t7.5 58.5t-8 55.5t-27 39t-51.5 29t-80.5 27.5q-40 12 -73 25.5t-57 34.5t-37 52.5t-13 78.5q0 40 11.5 72.5t36.5 55.5t65.5 36t97.5 13q18 0 40 -1t43 -3.5t39.5 -6
t31.5 -7.5q14 -5 14 -21v-29q-31 5 -75.5 10.5t-86.5 5.5q-90 0 -124 -31.5t-34 -92.5q0 -33 8.5 -55t26.5 -37t46.5 -26t67.5 -23q52 -15 89.5 -30.5t62 -37.5t36 -54t11.5 -80q0 -96 -52 -143.5t-166 -47.5z" />
    <glyph glyph-name="T" unicode="T" horiz-adv-x="509" 
d="M240 0q-15 0 -15 15v626h-182q-15 0 -15 15v37h438q15 0 15 -15v-37h-198v-641h-43z" />
    <glyph glyph-name="U" unicode="U" horiz-adv-x="592" 
d="M518 236q0 -70 -15.5 -117t-44 -75.5t-69.5 -40.5t-93 -12q-53 0 -94 12t-69.5 40.5t-43.5 75.5t-15 116v458h43q15 0 15 -15v-443q0 -43 7.5 -78t26.5 -60t51 -38.5t80 -13.5q49 0 81 13.5t50 38.5t25 60t7 78v458h43q15 0 15 -15v-442z" />
    <glyph glyph-name="V" unicode="V" horiz-adv-x="535" 
d="M253 0q-10 0 -14 3t-8 12q-29 61 -58.5 140.5t-57 169t-50 183.5t-35.5 185h48q13 0 15 -15q9 -52 22.5 -118.5t34.5 -145t50 -166.5t69 -183q41 98 71 189.5t51 171.5t34.5 148t22.5 119h41q9 0 12 -4t2 -11q-14 -92 -37.5 -187.5t-51.5 -184.5t-58.5 -168t-58.5 -138
h-44z" />
    <glyph glyph-name="W" unicode="W" horiz-adv-x="786" 
d="M543 0q-8 0 -12 3t-7 14l-131 538l-134 -555h-43q-10 0 -13.5 3t-7.5 13q-29 82 -54 169.5t-45.5 175.5t-34.5 172.5t-21 159.5h47q13 0 15 -15q7 -75 20.5 -153.5t30 -155.5t36 -150t39.5 -136l135 554h52q12 0 15 -14l132 -540q21 65 40.5 140t36.5 154t30 159.5
t20 156.5h41q10 0 12.5 -5t1.5 -10q-8 -76 -22 -160.5t-34.5 -172t-45.5 -175t-54 -170.5h-45z" />
    <glyph glyph-name="X" unicode="X" horiz-adv-x="543" 
d="M443 15q-23 67 -64 147t-108 160q-35 -42 -62 -83t-48 -81t-37 -79.5t-30 -78.5h-33q-8 0 -14 2t-6 12q0 6 5 19q12 31 28.5 69t39 79.5t52 86t68.5 90.5q-25 30 -53.5 71t-55.5 86t-49 91t-34 87h50q11 0 16 -15q12 -33 30.5 -71.5t41 -77t47 -74t47.5 -63.5
q24 29 50 67t49.5 78.5t42.5 81t28 74.5h33q8 0 14 -2t6 -12q0 -6 -5 -19q-15 -39 -36.5 -80.5t-46.5 -82t-51 -77t-48 -63.5q44 -52 76.5 -102.5t56.5 -96.5t40 -86.5t26 -71.5h-50q-11 0 -16 15z" />
    <glyph glyph-name="Y" unicode="Y" horiz-adv-x="509" 
d="M463 693q21 0 14 -22q-18 -54 -37.5 -103t-42.5 -97t-50.5 -98t-63.5 -105v-268h-43q-15 0 -15 15v253q-36 56 -65 108t-53 103t-44 103.5t-39 110.5h48q9 0 12.5 -3t6.5 -12q12 -36 29 -80.5t38 -92t46 -95t52 -89.5q28 41 55.5 95t50.5 107.5t39.5 99t21.5 70.5h40z
" />
    <glyph glyph-name="Z" unicode="Z" horiz-adv-x="524" 
d="M41 48q21 35 48.5 80t58.5 96.5t64.5 106t67.5 109t67 106t63 95.5h-344q-15 0 -15 15v37h410q15 0 15 -15v-35q-55 -81 -108 -164.5t-100 -161t-87 -145.5t-70 -120h357q15 0 15 -15v-37h-427q-15 0 -15 15v33z" />
    <glyph glyph-name="bracketleft" unicode="[" horiz-adv-x="318" 
d="M92 -83q-15 0 -15 15v836h196q15 0 15 -15v-34h-155v-753h140q15 0 15 -15v-34h-196z" />
    <glyph glyph-name="backslash" unicode="\" horiz-adv-x="345" 
d="M69 768q10 0 14 -5.5t7 -16.5l227 -829h-41q-10 0 -14 5.5t-7 16.5l-227 829h41z" />
    <glyph glyph-name="bracketright" unicode="]" horiz-adv-x="318" 
d="M226 768q15 0 15 -15v-836h-196q-15 0 -15 15v34h155v753h-140q-15 0 -15 15v34h196z" />
    <glyph glyph-name="asciicircum" unicode="^" 
d="M91 337q-7 0 -10.5 5t1.5 14l161 317h40q8 0 12 -7l167 -329h-47q-11 0 -15 9l-133 265l-138 -274h-38z" />
    <glyph glyph-name="underscore" unicode="_" horiz-adv-x="500" 
d="M0 -101v50h500v-50h-500z" />
    <glyph glyph-name="grave" unicode="`" horiz-adv-x="432" 
d="M198 693q13 -28 25 -56t26 -62h-34q-14 0 -22 14l-76 119h61q14 0 20 -15z" />
    <glyph glyph-name="a" unicode="a" horiz-adv-x="484" 
d="M364 261h-133q-39 0 -65 -9t-41 -24.5t-21 -36t-6 -42.5q0 -61 31 -86.5t83 -25.5q51 0 88.5 21.5t63.5 47.5v155zM366 55q-12 -12 -29 -23.5t-37.5 -20.5t-44 -15t-49.5 -6q-83 0 -122 42t-39 116q0 85 48.5 122t139.5 37h131v39q0 33 -7 56t-23.5 36.5t-43 19.5
t-65.5 6q-46 0 -82.5 -6t-49.5 -6q-16 0 -16 17v24q39 11 81 15t78 4q55 0 91 -12.5t56.5 -35t28.5 -53t8 -67.5v-344h-37q-15 0 -15 15z" />
    <glyph glyph-name="b" unicode="b" horiz-adv-x="510" 
d="M124 54q25 -6 54.5 -11t62.5 -5q40 0 70 9.5t49 33.5t28.5 66t9.5 108q0 113 -34 162t-101 49q-47 0 -80.5 -15t-58.5 -34v-363zM124 468q27 19 62.5 33t86.5 14q91 0 136.5 -65t45.5 -192q0 -74 -12.5 -125t-38 -82.5t-64.5 -46t-93 -14.5q-22 0 -46.5 2.5t-47 6.5
t-40.5 8.5t-27 8.5q-13 5 -15.5 11t-2.5 15v676h31q14 0 19.5 -5t5.5 -20v-225z" />
    <glyph glyph-name="c" unicode="c" horiz-adv-x="413" 
d="M378 10q-22 -8 -59.5 -13.5t-69.5 -5.5q-55 0 -92.5 18.5t-60 52.5t-32 81.5t-9.5 105.5q0 140 49 201.5t145 61.5q15 0 32.5 -1.5t33 -3.5t28 -4.5t18.5 -5.5q13 -5 13 -18v-28q-32 5 -60.5 8.5t-57.5 3.5q-36 0 -63 -10.5t-45 -34.5t-27 -64.5t-9 -100.5
q0 -66 10.5 -107.5t29.5 -65t46 -32t59 -8.5q36 0 64.5 5.5t40.5 5.5q9 0 12.5 -5t3.5 -10v-26z" />
    <glyph glyph-name="d" unicode="d" horiz-adv-x="510" 
d="M386 438q-26 12 -54.5 20t-66.5 8q-41 0 -70 -11.5t-47.5 -37t-27 -66t-8.5 -98.5q0 -107 27 -160.5t102 -53.5q27 0 49 6.5t40 16.5t32 22t24 23v331zM405 0q-15 0 -15 15l-2 40q-24 -24 -61.5 -44.5t-95.5 -20.5q-51 0 -85 19.5t-54.5 54t-28.5 82.5t-8 106
q0 141 52 202t151 61q50 0 80.5 -11t47.5 -19v233h41q15 0 15 -15v-703h-37z" />
    <glyph glyph-name="e" unicode="e" horiz-adv-x="489" 
d="M256 466q-42 0 -69.5 -14t-44 -39.5t-23.5 -60t-8 -75.5h269q1 7 1 13.5v12.5q0 40 -5 71t-19 51t-38 30.5t-63 10.5zM272 -9q-56 0 -97 13.5t-67.5 44t-39.5 80t-13 120.5q0 73 13 123.5t38.5 82t63 46t86.5 14.5q55 0 90.5 -16.5t55 -45t27 -67.5t7.5 -84q0 -20 -2 -40
t-5 -32h-318q3 -51 11 -87t26.5 -59t50.5 -33.5t82 -10.5q49 0 78.5 5.5t41.5 5.5q9 0 12.5 -5t3.5 -10v-26q-22 -8 -61.5 -13t-83.5 -6z" />
    <glyph glyph-name="f" unicode="f" horiz-adv-x="316" 
d="M289 720q8 -3 9.5 -8t1.5 -10v-26q-26 3 -40.5 4t-29.5 1q-25 0 -40 -5.5t-23 -16.5t-10.5 -26.5t-2.5 -35.5v-94h119q15 0 15 -15v-33h-134v-455h-41q-15 0 -15 15v440h-45q-15 0 -15 15v33h60v99q0 26 5.5 49t20 40.5t38 27.5t59.5 10q5 0 13.5 -0.5t18 -1.5t19.5 -2.5
t17 -4.5z" />
    <glyph glyph-name="g" unicode="g" horiz-adv-x="509" 
d="M249 -177q-35 0 -73.5 3.5t-72.5 13.5q-13 4 -13 19v28q33 -6 69 -10.5t82 -4.5q40 0 67 8t43 24t22.5 38t6.5 51v58q-26 -18 -60.5 -33.5t-82.5 -15.5q-95 0 -138.5 62t-43.5 185q0 78 15.5 129t45.5 80t72.5 40.5t96.5 11.5q18 0 41.5 -1t46.5 -3t42.5 -4.5t31.5 -4.5
q13 -3 17 -7.5t4 -13.5v-23h-32v-460q0 -80 -45 -125t-142 -45zM276 462q-38 0 -68.5 -8.5t-51.5 -31.5t-32.5 -64t-11.5 -107q0 -109 32 -154.5t105 -45.5q40 0 75 16t56 33v358q-22 2 -47 3t-57 1z" />
    <glyph glyph-name="h" unicode="h" horiz-adv-x="512" 
d="M124 449q23 25 64 45.5t101 20.5q73 0 116 -41.5t43 -133.5v-340h-41q-15 0 -15 15v323q0 69 -31.5 98.5t-83.5 29.5q-27 0 -50.5 -6.5t-43 -17t-34.5 -23t-25 -23.5v-396h-41q-15 0 -15 15v703h41q15 0 15 -15v-254z" />
    <glyph glyph-name="i" unicode="i" horiz-adv-x="196" 
d="M70 503h41q15 0 15 -15v-488h-41q-15 0 -15 15v488zM100 601q-21 0 -31 9t-10 32t10 32t31 9t31 -9t10 -32t-10 -32t-31 -9z" />
    <glyph glyph-name="j" unicode="j" horiz-adv-x="196" 
d="M126 -72q0 -19 -4.5 -37.5t-15.5 -32.5t-30 -23t-49 -9q-28 0 -41 6q-10 6 -10 18v24q10 -1 19.5 -1h19.5q34 0 44.5 14.5t10.5 40.5v575h41q15 0 15 -15v-560zM100 601q-21 0 -31 9t-10 32t10 32t31 9t31 -9t10 -32t-10 -32t-31 -9z" />
    <glyph glyph-name="k" unicode="k" horiz-adv-x="465" 
d="M179 267q48 -35 85.5 -66t69 -62.5t59 -65t56.5 -73.5h-56q-11 0 -19 11q-45 61 -104 116.5t-146 117.5v-245h-41q-15 0 -15 15v703h41q15 0 15 -15v-416q84 54 142.5 109.5t102.5 106.5h36q14 0 14 -10q0 -7 -5.5 -14t-10.5 -13q-14 -16 -37 -39.5t-52 -50.5t-63.5 -55
t-71.5 -54z" />
    <glyph glyph-name="l" unicode="l" horiz-adv-x="235" 
d="M207 3q-10 -2 -25.5 -4.5t-29.5 -2.5q-43 0 -63.5 25.5t-20.5 67.5v629h41q15 0 15 -15v-612q0 -32 11.5 -39.5t36.5 -7.5h21q8 0 11 -4.5t3 -9.5v-27z" />
    <glyph glyph-name="m" unicode="m" horiz-adv-x="806" 
d="M105 503q15 0 15 -15l2 -40q10 11 25 23t35 21.5t45 16t54 6.5q48 0 82 -18.5t52 -59.5q10 12 26 25.5t37.5 25t49.5 19.5t62 8q70 0 111 -41.5t41 -133.5v-340h-41q-15 0 -15 15v323q0 69 -29.5 98.5t-78.5 29.5q-27 0 -50.5 -7.5t-42 -19t-33 -24.5t-23.5 -24
q2 -12 3 -24.5t1 -26.5v-340h-41q-15 0 -15 15v323q0 69 -29.5 98.5t-78.5 29.5q-26 0 -48 -6.5t-40.5 -17t-32.5 -23t-24 -23.5v-396h-41q-15 0 -15 15v488h37z" />
    <glyph glyph-name="n" unicode="n" horiz-adv-x="512" 
d="M122 448q10 11 26 23t37 21.5t47 16t57 6.5q73 0 116 -41.5t43 -133.5v-340h-41q-15 0 -15 15v323q0 69 -31.5 98.5t-83.5 29.5q-27 0 -50.5 -6.5t-43 -17t-34.5 -23t-25 -23.5v-396h-41q-15 0 -15 15v488h37q15 0 15 -15z" />
    <glyph glyph-name="o" unicode="o" horiz-adv-x="518" 
d="M259 37q37 0 64.5 11.5t46 37t27.5 66.5t9 100t-9 99.5t-27.5 66t-46 37t-64.5 11.5t-64.5 -11.5t-46 -37t-27.5 -66t-9 -99.5t9 -100t27.5 -66.5t46 -37t64.5 -11.5zM259 515q108 0 156 -64.5t48 -198.5q0 -135 -48 -199.5t-156 -64.5t-156 64.5t-48 199.5
q0 134 48 198.5t156 64.5z" />
    <glyph glyph-name="p" unicode="p" horiz-adv-x="512" 
d="M56 453q-15 0 -15 15v26q18 3 40.5 6t46.5 5t48 3.5t44 1.5q59 0 103.5 -12.5t74 -41.5t44.5 -77.5t15 -120.5q0 -64 -10 -113.5t-33 -83t-61 -51t-95 -17.5q-50 0 -81 11t-48 19v-193h-41q-15 0 -15 15v608h-17zM251 42q38 0 66 10t46.5 34.5t27.5 65t9 102.5
q0 56 -9 95.5t-30 64.5t-56 36.5t-87 11.5q-17 0 -42 -1t-47 -3v-387q26 -12 55 -20.5t67 -8.5z" />
    <glyph glyph-name="q" unicode="q" horiz-adv-x="512" 
d="M383 458q-22 2 -47 3t-57 1q-38 0 -68.5 -8.5t-52.5 -32.5t-34 -67t-12 -111q0 -56 8 -94.5t24.5 -62t41.5 -34t60 -10.5q42 0 77 16t60 35v365zM450 497q13 -3 17 -7.5t4 -13.5v-23h-32v-623h-41q-15 0 -15 15v197q-27 -19 -61.5 -34t-85.5 -15q-96 0 -138.5 60.5
t-42.5 187.5q0 81 16 133t46 82.5t73.5 42t97.5 11.5q18 0 41.5 -1t46.5 -3t42.5 -4.5t31.5 -4.5z" />
    <glyph glyph-name="r" unicode="r" horiz-adv-x="331" 
d="M273 505q20 0 25 -4t5 -12v-36q-7 1 -14.5 1h-12.5q-46 0 -81.5 -18.5t-70.5 -58.5v-377h-41q-15 0 -15 15v488h37q15 0 15 -15l2 -56q11 12 27 25t35.5 23.5t42 17.5t46.5 7z" />
    <glyph glyph-name="s" unicode="s" horiz-adv-x="435" 
d="M64 8q-13 5 -13 19v28q26 -5 64 -10t80 -5t68.5 6t41.5 18t20.5 29t5.5 40q0 27 -8.5 43t-25.5 27t-43 18.5t-61 16.5q-30 8 -57 17t-47 24t-31.5 38.5t-11.5 59.5q0 64 41.5 99.5t127.5 35.5q9 0 26.5 -0.5t37 -2.5t38.5 -5t31 -7q13 -5 13 -19v-27q-31 5 -66.5 9
t-69.5 4q-36 0 -60 -5.5t-38.5 -16t-20 -26t-5.5 -36.5q0 -23 6.5 -37.5t21.5 -25t38.5 -18t57.5 -15.5t63.5 -17.5t51.5 -25t34.5 -41t12.5 -65.5q0 -78 -47.5 -111t-132.5 -33q-12 0 -32 1t-41 3t-40.5 5t-29.5 8z" />
    <glyph glyph-name="t" unicode="t" horiz-adv-x="323" 
d="M263 43q12 0 16 -4.5t4 -10.5v-27q-38 -8 -71 -8t-55 7.5t-35 21t-18.5 32t-5.5 40.5v361h-45q-15 0 -15 15v33h60v135h41q15 0 15 -15v-120h114q15 0 15 -15v-33h-129v-354q0 -14 2 -24.5t9.5 -18.5t22 -12t39.5 -4q11 0 21 0.5t15 0.5z" />
    <glyph glyph-name="u" unicode="u" horiz-adv-x="512" 
d="M390 55q-11 -11 -26.5 -23t-36.5 -22t-47 -16t-57 -6q-73 0 -116 41.5t-43 133.5v340h41q15 0 15 -15v-323q0 -69 31.5 -98.5t83.5 -29.5q27 0 50.5 6.5t43 17t34.5 23t25 23.5v396h41q15 0 15 -15v-488h-37q-15 0 -15 15z" />
    <glyph glyph-name="v" unicode="v" horiz-adv-x="451" 
d="M411 503q8 0 10.5 -4t1.5 -11q-8 -60 -25 -123t-39.5 -125.5t-49.5 -123.5t-55 -116h-45q-10 0 -13 3t-8 13q-28 56 -54.5 117t-48 123t-37.5 124.5t-23 122.5h45q13 0 15 -15q17 -115 55.5 -228t85.5 -207q24 48 46 102.5t41 112.5t33.5 117t22.5 118h42z" />
    <glyph glyph-name="w" unicode="w" horiz-adv-x="690" 
d="M639 503q10 0 12.5 -5t1.5 -10q-7 -57 -20.5 -120t-31 -127t-39 -125.5t-45.5 -115.5h-44q-8 0 -12 3t-7 14l-109 374l-114 -391h-44q-10 0 -13 3t-8 13q-23 55 -44.5 117.5t-38.5 126t-29.5 125.5t-18.5 118h44q13 0 15 -15q6 -50 16.5 -105t24.5 -111t30.5 -109.5
t34.5 -99.5l118 402h45q11 0 15 -14l114 -388q18 48 35 104t31.5 114t25 115t16.5 107h39z" />
    <glyph glyph-name="x" unicode="x" horiz-adv-x="459" 
d="M369 14q-23 53 -56 106.5t-84 107.5q-56 -60 -89.5 -115.5t-57.5 -112.5h-31q-8 0 -14 1.5t-6 10.5q0 3 2.5 9t5.5 13q25 55 61.5 111.5t93.5 113.5q-21 23 -45.5 52.5t-47.5 62t-42 66t-29 63.5h49q7 0 10 -3.5t6 -10.5q11 -25 27 -52t34.5 -53t37.5 -50.5t37 -43.5
q44 47 83 104t60 109h29q8 0 14 -1.5t6 -10.5q0 -3 -2.5 -9t-5.5 -12q-14 -29 -32.5 -58.5t-39 -57.5t-41 -52t-36.5 -42q73 -74 112 -143t57 -117h-50q-7 0 -10 3.5t-6 10.5z" />
    <glyph glyph-name="y" unicode="y" horiz-adv-x="456" 
d="M240 58q48 99 79 209t49 236h40q9 0 12 -4t2 -11q-17 -119 -53.5 -236t-90.5 -226q-24 -48 -46 -85t-44.5 -62.5t-48 -39t-56.5 -13.5q-23 0 -36 6q-10 6 -10 18v24q10 -1 18 -1h16q23 0 41 8t33.5 24.5t31 41.5t33.5 59q-32 55 -61.5 117t-54 126.5t-42 129t-24.5 124.5
h43q10 0 13 -3.5t4 -11.5q8 -57 23.5 -114.5t36 -112.5t44 -106.5t48.5 -96.5z" />
    <glyph glyph-name="z" unicode="z" horiz-adv-x="457" 
d="M45 41q27 41 63 93t76 107t81 110.5t79 103.5h-275q-15 0 -15 15v33h334q22 0 22 -26v-17q-44 -56 -87.5 -114.5t-82.5 -113.5t-72 -102.5t-55 -81.5h284q15 0 15 -15v-33h-352q-15 0 -15 15v26z" />
    <glyph glyph-name="braceleft" unicode="{" horiz-adv-x="327" 
d="M50 367q8 0 16.5 3t16 9t12 17t4.5 28v215q0 25 4 48.5t17 42.5t37 30.5t63 11.5q10 0 31 -2.5t35 -7.5q8 -3 9.5 -7t1.5 -9v-24q-26 2 -39.5 2.5t-27.5 0.5q-25 0 -39.5 -7t-22.5 -21t-10.5 -34.5t-2.5 -46.5v-186q0 -10 -1.5 -22.5t-6.5 -24.5t-14 -22.5t-24 -17.5
q15 -7 24 -17.5t14 -22.5t6.5 -24.5t1.5 -22.5v-187q0 -26 2.5 -46.5t10.5 -34.5t22.5 -21t39.5 -7q19 0 33 1t19 1q15 0 15 -15v-21q-8 -3 -19 -5.5t-22 -4t-21 -2.5t-15 -1q-39 0 -63 11.5t-37 30t-17 42.5t-4 49v216q0 27 -11.5 39t-23.5 15q-8 2 -11 5t-3 11v35z" />
    <glyph glyph-name="bar" unicode="|" horiz-adv-x="258" 
d="M156 -83h-39q-15 0 -15 15v836h39q15 0 15 -15v-836z" />
    <glyph glyph-name="braceright" unicode="}" horiz-adv-x="327" 
d="M277 319q-8 0 -16.5 -3t-16 -9t-12 -17t-4.5 -28v-216q0 -25 -4 -49t-17 -42.5t-37 -30t-63 -11.5q-10 0 -31 2.5t-35 7.5q-8 3 -9.5 7t-1.5 9v24q26 -2 39.5 -2.5t27.5 -0.5q25 0 39.5 7t22.5 21t10.5 34.5t2.5 46.5v187q0 10 1.5 22.5t6.5 24.5t14 22.5t24 17.5
q-15 7 -24 17.5t-14 22.5t-6.5 24.5t-1.5 22.5v186q0 26 -2.5 46.5t-10.5 34.5t-22.5 21t-39.5 7q-19 0 -33 -1t-19 -1q-15 0 -15 15v21q7 3 18.5 5.5t22.5 4t21 2.5t15 1q39 0 63 -11.5t37 -30.5t17 -42.5t4 -48.5v-215q0 -27 11.5 -39t23.5 -15q8 -2 11 -5t3 -11v-35z" />
    <glyph glyph-name="asciitilde" unicode="~" 
d="M255 313q-28 20 -46 29.5t-41 9.5q-16 0 -25.5 -6.5t-15 -18t-7 -26.5t-1.5 -33h-33q-10 0 -13 5t-3 12q0 61 26.5 88t71.5 27q35 0 63 -15.5t51 -32.5q28 -20 46 -29.5t41 -9.5q16 0 25.5 6.5t15 18t7 26.5t1.5 33h33q10 0 13 -5t3 -12q0 -61 -26.5 -88t-71.5 -27
q-35 0 -63 15.5t-51 32.5z" />
    <glyph glyph-name="Euro" unicode="&#x20ac;" 
d="M172 400q-1 -13 -1 -26v-27v-30.5t1 -28.5h213q15 0 15 -15v-30h-224q7 -62 23.5 -101t40.5 -60.5t55.5 -29.5t69.5 -8q49 0 81 7t48 7q17 0 17 -16v-27q-25 -9 -65 -16.5t-86 -7.5q-59 0 -102 16t-72.5 47.5t-46 79t-22.5 109.5h-59q-15 0 -15 15v30h70q-1 13 -1 26.5
v27.5v29.5t1 28.5h-55q-15 0 -15 15v30h74q13 129 70.5 188.5t169.5 59.5q34 0 72.5 -5t61.5 -13q14 -5 14 -21v-29q-28 5 -67 10t-77 5q-43 0 -75.5 -10t-55 -33t-36 -60.5t-19.5 -91.5h210q15 0 15 -15v-30h-228z" />
    <glyph glyph-name="quotesinglbase" unicode="&#x201a;" horiz-adv-x="199" 
d="M64 -108q-11 0 -11 10q0 5 3 13l31 87q-35 5 -35 43q0 46 47 46q25 0 36.5 -10.5t11.5 -36.5q0 -17 -7 -35.5t-15 -35.5l-36 -81h-25z" />
    <glyph glyph-name="florin" unicode="&#x192;" horiz-adv-x="316" 
d="M98 602q0 26 5.5 49t20 40.5t38 27.5t59.5 10q5 0 13.5 -0.5t18 -1.5t19.5 -2.5t17 -4.5q8 -3 9.5 -8t1.5 -10v-26q-26 3 -40.5 4t-29.5 1q-25 0 -40 -5.5t-23 -16.5t-10.5 -26.5t-2.5 -35.5v-94h119q15 0 15 -15v-33h-134v-515q0 -21 -4.5 -41.5t-17.5 -36.5t-35.5 -26
t-59.5 -10q-10 0 -27.5 2t-31.5 7q-8 3 -9.5 7t-1.5 9v25q27 -2 37.5 -2.5t22.5 -0.5q25 0 39.5 5t21.5 14.5t8.5 22.5t1.5 29v511h-45q-15 0 -15 15v33h60v99z" />
    <glyph glyph-name="quotedblbase" unicode="&#x201e;" horiz-adv-x="342" 
d="M64 -108q-11 0 -11 10q0 5 3 13l31 87q-35 5 -35 43q0 46 47 46q25 0 36.5 -10.5t11.5 -36.5q0 -17 -7 -35.5t-15 -35.5l-36 -81h-25zM207 -108q-11 0 -11 10q0 5 3 13l31 87q-35 5 -35 43q0 46 47 46q25 0 36.5 -10.5t11.5 -36.5q0 -17 -7 -35.5t-15 -35.5l-36 -81h-25z
" />
    <glyph glyph-name="ellipsis" unicode="&#x2026;" horiz-adv-x="669" 
d="M64 42q0 26 11.5 36.5t35.5 10.5q25 0 36.5 -10.5t11.5 -36.5t-11.5 -36t-36.5 -10q-26 0 -36.5 10t-10.5 36zM287 42q0 26 11.5 36.5t35.5 10.5q25 0 36.5 -10.5t11.5 -36.5t-11.5 -36t-36.5 -10q-26 0 -36.5 10t-10.5 36zM510 42q0 26 11.5 36.5t35.5 10.5
q25 0 36.5 -10.5t11.5 -36.5t-11.5 -36t-36.5 -10q-26 0 -36.5 10t-10.5 36z" />
    <glyph glyph-name="dagger" unicode="&#x2020;" horiz-adv-x="462" 
d="M258 445v-372q0 -44 -2 -88.5t-4 -67.5h-27q-15 0 -15 15q-2 26 -4 62.5t-2 78.5v372h-131q-15 0 -15 15v35h146v198h39q15 0 15 -15v-183h131q15 0 15 -15v-35h-146z" />
    <glyph glyph-name="daggerdbl" unicode="&#x2021;" horiz-adv-x="462" 
d="M389 165q15 0 15 -15v-35h-146v-198h-39q-15 0 -15 15v183h-131q-15 0 -15 15v35h146v280h-131q-15 0 -15 15v35h146v198h39q15 0 15 -15v-183h131q15 0 15 -15v-35h-146v-280h131z" />
    <glyph glyph-name="circumflex" unicode="&#x2c6;" horiz-adv-x="432" 
d="M290 575q-13 0 -23 14l-51 74l-61 -88h-33q-7 0 -9.5 3.5t2.5 11.5q17 28 33.5 55t42.5 63h37q8 0 11.5 -1t8.5 -8q17 -25 37 -56.5t40 -67.5h-35z" />
    <glyph glyph-name="perthousand" unicode="&#x2030;" horiz-adv-x="1082" 
d="M178 357q50 0 67.5 36.5t17.5 105.5t-17.5 105.5t-67.5 36.5t-67.5 -36.5t-17.5 -105.5t17.5 -105.5t67.5 -36.5zM178 312q-30 0 -54.5 10t-42.5 32.5t-28 58t-10 86.5t10 86.5t28 58t42.5 32.5t54.5 10t54.5 -10t42.5 -32.5t28 -58t10 -86.5t-10 -86.5t-28 -58
t-42.5 -32.5t-54.5 -10zM198 0h-32q-15 0 -15 13q0 6 4 13l399 651h32q15 0 15 -13q0 -6 -4 -13zM574 38q50 0 67.5 36.5t17.5 105.5t-17.5 105.5t-67.5 36.5t-67.5 -36.5t-17.5 -105.5t17.5 -105.5t67.5 -36.5zM574 -7q-30 0 -54.5 10t-42.5 32.5t-28 58t-10 86.5t10 86.5
t28 58t42.5 32.5t54.5 10t54.5 -10t42.5 -32.5t28 -58t10 -86.5t-10 -86.5t-28 -58t-42.5 -32.5t-54.5 -10zM904 38q50 0 67.5 36.5t17.5 105.5t-17.5 105.5t-67.5 36.5t-67.5 -36.5t-17.5 -105.5t17.5 -105.5t67.5 -36.5zM904 -7q-30 0 -54.5 10t-42.5 32.5t-28 58
t-10 86.5t10 86.5t28 58t42.5 32.5t54.5 10t54.5 -10t42.5 -32.5t28 -58t10 -86.5t-10 -86.5t-28 -58t-42.5 -32.5t-54.5 -10z" />
    <glyph glyph-name="Scaron" unicode="&#x160;" horiz-adv-x="509" 
d="M237 -9q-48 0 -95 7t-73 16q-14 5 -14 21v29l77.5 -12.5t100.5 -7.5q48 0 79.5 9.5t49.5 27t25.5 43t7.5 58.5t-8 55.5t-27 39t-51.5 29t-80.5 27.5q-40 12 -73 25.5t-57 34.5t-37 52.5t-13 78.5q0 40 11.5 72.5t36.5 55.5t65.5 36t97.5 13q18 0 40 -1t43 -3.5t39.5 -6
t31.5 -7.5q14 -5 14 -21v-29q-31 5 -75.5 10.5t-86.5 5.5q-90 0 -124 -31.5t-34 -92.5q0 -33 8.5 -55t26.5 -37t46.5 -26t67.5 -23q52 -15 89.5 -30.5t62 -37.5t36 -54t11.5 -80q0 -96 -52 -143.5t-166 -47.5zM173 869q8 0 12.5 -3t10.5 -11l52 -64l64 78h33q7 0 10 -4
t-2 -12q-17 -27 -37.5 -54.5t-40.5 -53.5h-41q-8 0 -11.5 1t-8.5 8q-16 21 -35.5 48.5t-43.5 66.5h38z" />
    <glyph glyph-name="guilsinglleft" unicode="&#x2039;" horiz-adv-x="233" 
d="M103 259l87 -187h-41q-7 0 -13 2.5t-9 9.5l-82 175l92 187h38q7 0 10.5 -6t-1.5 -16z" />
    <glyph glyph-name="OE" unicode="&#x152;" horiz-adv-x="809" 
d="M755 641h-289v-267h250q15 0 15 -15v-37h-265v-270h286q15 0 15 -15v-37h-361q-21 -5 -44.5 -7t-44.5 -2q-56 0 -103 13.5t-81 51.5t-53 107.5t-19 182.5q0 108 21.5 177.5t58 109t85 54.5t102.5 15q42 0 80 -9h332q15 0 15 -15v-37zM317 45q23 0 48 2.5t43 9.5v578
q-33 13 -80 13q-53 0 -91.5 -16.5t-64 -52.5t-38 -93.5t-12.5 -139.5q0 -81 10 -138t33 -93t60.5 -53t91.5 -17z" />
    <glyph glyph-name="quoteleft" unicode="&#x2018;" horiz-adv-x="199" 
d="M135 694q11 0 11 -10q0 -6 -3 -13l-31 -87q35 -5 35 -43q0 -46 -47 -46q-25 0 -36.5 10.5t-11.5 36.5q0 17 7 35.5t15 35.5l36 81h25z" />
    <glyph glyph-name="quoteright" unicode="&#x2019;" horiz-adv-x="199" 
d="M64 496q-11 0 -11 10q0 5 3 13l31 87q-35 5 -35 43q0 46 47 46q25 0 36.5 -10.5t11.5 -36.5q0 -17 -7 -35.5t-15 -35.5l-36 -81h-25z" />
    <glyph glyph-name="quotedblleft" unicode="&#x201c;" horiz-adv-x="342" 
d="M135 694q11 0 11 -10q0 -6 -3 -13l-31 -87q35 -5 35 -43q0 -46 -47 -46q-25 0 -36.5 10.5t-11.5 36.5q0 17 7 35.5t15 35.5l36 81h25zM278 694q11 0 11 -10q0 -6 -3 -13l-31 -87q35 -5 35 -43q0 -46 -47 -46q-25 0 -36.5 10.5t-11.5 36.5q0 17 7 35.5t15 35.5l36 81h25z
" />
    <glyph glyph-name="quotedblright" unicode="&#x201d;" horiz-adv-x="342" 
d="M64 496q-11 0 -11 10q0 5 3 13l31 87q-35 5 -35 43q0 46 47 46q25 0 36.5 -10.5t11.5 -36.5q0 -17 -7 -35.5t-15 -35.5l-36 -81h-25zM207 496q-11 0 -11 10q0 5 3 13l31 87q-35 5 -35 43q0 46 47 46q25 0 36.5 -10.5t11.5 -36.5q0 -17 -7 -35.5t-15 -35.5l-36 -81h-25z
" />
    <glyph glyph-name="bullet" unicode="&#x2022;" horiz-adv-x="398" 
d="M80 345q0 62 30 89.5t89 27.5t89 -27.5t30 -89.5t-30 -89.5t-89 -27.5t-89 27.5t-30 89.5z" />
    <glyph glyph-name="endash" unicode="&#x2013;" horiz-adv-x="500" 
d="M0 290v50h500v-50h-500z" />
    <glyph glyph-name="emdash" unicode="&#x2014;" horiz-adv-x="1000" 
d="M0 290v50h1000v-50h-1000z" />
    <glyph glyph-name="tilde" unicode="&#x2dc;" horiz-adv-x="432" 
d="M355 676q0 -49 -18 -71t-53 -22q-26 0 -44 11t-35 24q-20 15 -31.5 22t-25.5 7q-11 0 -17 -6t-9 -15t-3.5 -20t-0.5 -21h-29q-8 0 -10 4t-2 9q0 49 18 71t53 22q26 0 44 -11t35 -24q20 -15 31.5 -22t25.5 -7q11 0 17 5.5t9 14.5t3.5 20t0.5 22h29q8 0 10 -4t2 -9z" />
    <glyph glyph-name="trademark" unicode="&#x2122;" horiz-adv-x="721" 
d="M300 652h-116v-332h-31q-13 0 -13 13v319h-104q-13 0 -13 13v28h264q13 0 13 -13v-28zM493 411q-12 0 -16 12l-90 208q-2 -74 -6 -155.5t-5 -155.5h-31q-13 0 -13 13q2 85 6 174t9 186h45q11 0 16 -13l93 -214l101 227h36q13 0 13 -13q12 -185 15 -360h-29q-13 0 -13 13
q-2 69 -5.5 147.5t-5.5 150.5l-96 -220h-24z" />
    <glyph glyph-name="scaron" unicode="&#x161;" horiz-adv-x="435" 
d="M64 8q-13 5 -13 19v28q26 -5 64 -10t80 -5t68.5 6t41.5 18t20.5 29t5.5 40q0 27 -8.5 43t-25.5 27t-43 18.5t-61 16.5q-30 8 -57 17t-47 24t-31.5 38.5t-11.5 59.5q0 64 41.5 99.5t127.5 35.5q9 0 26.5 -0.5t37 -2.5t38.5 -5t31 -7q13 -5 13 -19v-27q-31 5 -66.5 9
t-69.5 4q-36 0 -60 -5.5t-38.5 -16t-20 -26t-5.5 -36.5q0 -23 6.5 -37.5t21.5 -25t38.5 -18t57.5 -15.5t63.5 -17.5t51.5 -25t34.5 -41t12.5 -65.5q0 -78 -47.5 -111t-132.5 -33q-12 0 -32 1t-41 3t-40.5 5t-29.5 8zM135 708q13 0 23 -14l51 -74l61 88h31q7 0 10.5 -3.5
t-1.5 -11.5q-17 -28 -33.5 -55t-42.5 -63h-37q-8 0 -11.5 1t-8.5 8q-17 25 -37 56.5t-40 67.5h35z" />
    <glyph glyph-name="guilsinglright" unicode="&#x203a;" horiz-adv-x="233" 
d="M130 259l-87 187h41q7 0 13 -2.5t9 -9.5l82 -175l-92 -187h-38q-7 0 -10.5 6t1.5 16z" />
    <glyph glyph-name="oe" unicode="&#x153;" horiz-adv-x="806" 
d="M255 37q35 0 61 11.5t43.5 37t26 66.5t8.5 100t-8.5 99.5t-26 66t-43.5 37t-61 11.5q-36 0 -63 -11.5t-44.5 -37t-26.5 -66t-9 -99.5t9 -100t26.5 -66.5t44.5 -37t63 -11.5zM448 230q3 -50 8 -86t20.5 -59t44.5 -34t79 -11q48 0 77 5.5t41 5.5q9 0 12.5 -5t3.5 -10v-26
q-22 -8 -61.5 -13.5t-81.5 -5.5q-70 0 -111 22t-61 72q-21 -49 -61 -73t-103 -24q-105 0 -152.5 64.5t-47.5 199.5q0 134 47.5 198.5t152.5 64.5q125 0 165 -101q23 54 62.5 77.5t94.5 23.5q54 0 88 -16.5t53.5 -45t27 -67.5t7.5 -84q0 -20 -2 -40t-5 -32h-298zM697 277
q1 7 1 13.5v12.5q0 40 -5 71t-18.5 51t-37 30.5t-60.5 10.5q-39 0 -63 -14t-38.5 -39.5t-20.5 -60t-7 -75.5h249z" />
    <glyph glyph-name="Ydieresis" unicode="&#x178;" horiz-adv-x="509" 
d="M463 693q21 0 14 -22q-18 -54 -37.5 -103t-42.5 -97t-50.5 -98t-63.5 -105v-268h-43q-15 0 -15 15v253q-36 56 -65 108t-53 103t-44 103.5t-39 110.5h48q9 0 12.5 -3t6.5 -12q12 -36 29 -80.5t38 -92t46 -95t52 -89.5q28 41 55.5 95t50.5 107.5t39.5 99t21.5 70.5h40z
M132 808q0 22 9.5 31t30.5 9q20 0 30 -9t10 -31t-10 -31t-30 -9q-21 0 -30.5 9t-9.5 31zM298 808q0 22 9.5 31t30.5 9q20 0 30 -9t10 -31t-10 -31t-30 -9q-21 0 -30.5 9t-9.5 31z" />
    <glyph glyph-name="uni00A0" unicode="&#xa0;" horiz-adv-x="210" 
 />
    <glyph glyph-name="exclamdown" unicode="&#xa1;" horiz-adv-x="235" 
d="M125 327q15 0 15 -15q5 -60 5.5 -122.5t0.5 -121.5v-238h-42q-15 0 -15 15v223q0 68 1 128.5t6 130.5h29zM70 480q0 26 11.5 36.5t35.5 10.5q25 0 36.5 -10.5t11.5 -36.5t-11.5 -36t-36.5 -10q-26 0 -36.5 10t-10.5 36z" />
    <glyph glyph-name="cent" unicode="&#xa2;" 
d="M447 106q-22 -8 -61 -13.5t-80 -5.5l-8 -99h-32q-15 0 -14 12l7 91q-42 8 -70 29.5t-45.5 54.5t-25 76t-7.5 94q0 137 48.5 199t143.5 64l8 85h32q15 0 14 -12l-7 -75q26 -2 48 -5.5t31 -7.5q14 -5 14 -18v-28q-26 3 -49.5 6.5t-47.5 5.5l-36 -424q51 0 79.5 6t40.5 6
q10 0 13.5 -5t3.5 -10v-26zM168 349q0 -51 6.5 -87.5t19 -61t30.5 -38.5t40 -20l35 417q-33 -3 -57.5 -15t-41 -37t-24.5 -63.5t-8 -94.5z" />
    <glyph glyph-name="sterling" unicode="&#xa3;" 
d="M110 0q-15 0 -15 15v37q37 43 61 98t24 115q0 27 -6 56h-74q-15 0 -15 15v32h77q-8 34 -14 65.5t-6 60.5q0 93 45 146t142 53q38 0 73.5 -5t60.5 -14q8 -3 10 -8.5t2 -10.5v-29q-26 5 -64 10t-76 5q-72 0 -103.5 -33.5t-31.5 -111.5q0 -28 6 -59.5t15 -68.5h164
q15 0 15 -13v-34h-168q3 -14 4 -26.5t1 -25.5q0 -36 -8 -68.5t-20 -60.5t-25.5 -50.5t-25.5 -37.5h318q15 0 15 -15v-37h-381z" />
    <glyph glyph-name="currency" unicode="&#xa4;" 
d="M268 205q67 0 99.5 37t32.5 97t-32.5 97t-99.5 37t-99.5 -37t-32.5 -97t32.5 -97t99.5 -37zM268 155q-69 0 -114 31l-71 -71l-28 26q-5 5 -4.5 10t5.5 10l61 61q-34 46 -34 117q0 34 8.5 64t25.5 53l-71 71l27 27q9 9 20 -1l61 -62q22 15 50.5 23.5t63.5 8.5
q69 0 114 -31l71 71l28 -26q9 -10 -1 -20l-61 -61q34 -46 34 -117q0 -34 -8.5 -64t-25.5 -53l71 -71l-27 -27q-10 -10 -20 1l-61 62q-22 -15 -50.5 -23.5t-63.5 -8.5z" />
    <glyph glyph-name="yen" unicode="&#xa5;" 
d="M283 115v-115h-42q-15 0 -15 15v100h-152q-15 0 -15 15v30h167v112h-152q-15 0 -15 15v30h137q-27 46 -50 89.5t-42.5 87t-36.5 88.5t-33 95h47q8 0 11.5 -3t6.5 -12q12 -34 28.5 -76.5t36.5 -88.5t43 -92t50 -86q27 40 53 92.5t48 103.5t37.5 94.5t20.5 67.5h39
q21 0 14 -21q-15 -44 -31 -86t-35 -83t-41 -83t-49 -87h121q15 0 15 -15v-30h-166v-112h152q15 0 15 -15v-30h-167z" />
    <glyph glyph-name="brokenbar" unicode="&#xa6;" horiz-adv-x="258" 
d="M156 -83h-39q-15 0 -15 15v318h39q15 0 15 -15v-318zM156 435h-39q-15 0 -15 15v318h39q15 0 15 -15v-318z" />
    <glyph glyph-name="section" unicode="&#xa7;" horiz-adv-x="507" 
d="M402 302q0 28 -6.5 47t-27 34t-57.5 29t-97 33q-54 -17 -79.5 -48.5t-25.5 -73.5q0 -29 6.5 -47.5t27 -33.5t57.5 -29t97 -33q54 17 79.5 48.5t25.5 73.5zM68 -27q35 -8 80 -12.5t87 -4.5q67 0 104 17.5t37 64.5q0 24 -6.5 38.5t-22 25t-42.5 20t-68 22.5
q-47 15 -81.5 29.5t-57.5 34t-34.5 45.5t-11.5 64q0 52 24 87.5t83 62.5q-37 16 -57.5 41.5t-20.5 67.5q0 35 13 59.5t36.5 40.5t55.5 23t71 7q12 0 31 -1.5t38.5 -3.5t38 -5.5t29.5 -7.5q14 -6 14 -20v-26q-35 5 -71.5 9t-72.5 4q-61 0 -94 -16.5t-33 -58.5q0 -21 6 -34.5
t22 -23.5t42 -19.5t67 -22.5q47 -15 81.5 -29.5t57.5 -33.5t34.5 -45t11.5 -64q0 -53 -23.5 -88t-83.5 -62q38 -16 59.5 -44t21.5 -72q0 -42 -16.5 -68.5t-43.5 -42t-62 -21.5t-72 -6q-19 0 -41.5 1.5t-44.5 4.5t-41 7t-31 8q-13 5 -13 21v27z" />
    <glyph glyph-name="dieresis" unicode="&#xa8;" horiz-adv-x="432" 
d="M93 641q0 22 9.5 31t30.5 9q20 0 30 -9t10 -31t-10 -31t-30 -9q-21 0 -30.5 9t-9.5 31zM259 641q0 22 9.5 31t30.5 9q20 0 30 -9t10 -31t-10 -31t-30 -9q-21 0 -30.5 9t-9.5 31z" />
    <glyph glyph-name="copyright" unicode="&#xa9;" horiz-adv-x="786" 
d="M501 166q-13 -5 -42.5 -9.5t-58.5 -4.5q-82 0 -120 46.5t-38 146.5q0 106 41.5 151t119.5 45q24 0 49.5 -3t35.5 -7q11 -4 11 -14v-31q-26 3 -44.5 4.5t-38.5 1.5q-27 0 -49 -5.5t-37 -21.5t-23.5 -44t-8.5 -74q0 -52 9.5 -81.5t25.5 -43.5t37.5 -17.5t44.5 -3.5
q29 0 44 2.5t29 2.5q13 0 13 -12v-28zM393 703q81 0 144.5 -24t108 -70t67.5 -112.5t23 -150.5t-23 -150.5t-67.5 -112.5t-108 -70t-144.5 -24t-144.5 24t-108 70t-67.5 112.5t-23 150.5t23 150.5t67.5 112.5t108 70t144.5 24zM393 652q-81 0 -136.5 -24t-89 -66
t-48.5 -97.5t-15 -118.5t15 -118.5t48.5 -97.5t89 -66t136.5 -24t136.5 24t89 66t48.5 97.5t15 118.5t-15 118.5t-48.5 97.5t-89 66t-136.5 24z" />
    <glyph glyph-name="ordfeminine" unicode="&#xaa;" horiz-adv-x="360" 
d="M252 538h-79q-48 0 -66.5 -18t-18.5 -47q0 -30 16.5 -44t45.5 -14q16 0 32 5t29.5 13t24 17.5t16.5 18.5v69zM255 424q-17 -17 -45 -34t-65 -17q-49 0 -76.5 25t-27.5 71q0 57 34.5 83t99.5 26h77v21q0 21 -7 34t-18.5 19.5t-27.5 8.5t-34 2q-27 0 -49 -4t-33 -4
q-14 0 -14 11v26q23 7 51.5 10.5t51.5 3.5q70 0 99 -29t29 -73v-226h-30q-4 0 -8.5 3.5t-4.5 11.5zM70 262q-15 0 -15 14v29h230q15 0 15 -15v-28h-230z" />
    <glyph glyph-name="guillemotleft" unicode="&#xab;" horiz-adv-x="384" 
d="M103 259l87 -187h-41q-7 0 -13 2.5t-9 9.5l-82 175l92 187h38q7 0 10.5 -6t-1.5 -16zM254 259l87 -187h-41q-7 0 -13 2.5t-9 9.5l-82 175l92 187h38q7 0 10.5 -6t-1.5 -16z" />
    <glyph glyph-name="logicalnot" unicode="&#xac;" 
d="M438 434q15 0 15 -15v-211h-32q-15 0 -15 15v163h-316q-15 0 -15 15v33h363z" />
    <glyph glyph-name="uni00AD" unicode="&#xad;" horiz-adv-x="383" 
d="M63 248q-15 0 -15 15v35h272q15 0 15 -15v-35h-272z" />
    <glyph glyph-name="registered" unicode="&#xae;" horiz-adv-x="496" 
d="M185 414q-13 0 -13 13v196l17.5 2.5t21.5 2.5t21 1.5t16 0.5q39 0 57 -17.5t18 -47.5q0 -27 -12.5 -40.5t-29.5 -19.5q7 -9 15.5 -21.5t16 -25t13.5 -24.5t9 -20h-32q-6 0 -8.5 2.5t-4.5 5.5q-5 13 -17 34.5t-27 41.5h-36v-84h-25zM210 529h35q21 0 30.5 7t9.5 29
q0 21 -10.5 27t-32.5 6q-6 0 -16 -0.5t-16 -1.5v-67zM247 345q80 0 123 46.5t43 127.5t-43 127.5t-123 46.5t-123 -46.5t-43 -127.5t43 -127.5t123 -46.5zM247 309q-97 0 -151.5 56t-54.5 154t54.5 154t151.5 56t151.5 -56t54.5 -154t-54.5 -154t-151.5 -56z" />
    <glyph glyph-name="macron" unicode="&#xaf;" horiz-adv-x="432" 
d="M116 616q-15 0 -15 15v33h215q15 0 15 -15v-33h-215z" />
    <glyph glyph-name="degree" unicode="&#xb0;" horiz-adv-x="334" 
d="M167 441q-57 0 -91.5 34.5t-34.5 91.5t34.5 91.5t91.5 34.5t91.5 -34.5t34.5 -91.5t-34.5 -91.5t-91.5 -34.5zM167 485q37 0 57.5 22.5t20.5 59.5t-20.5 59.5t-57.5 22.5t-57.5 -22.5t-20.5 -59.5t20.5 -59.5t57.5 -22.5z" />
    <glyph glyph-name="plusminus" unicode="&#xb1;" 
d="M243 320h-153q-15 0 -15 15v33h168v179h36q15 0 15 -15v-164h153q15 0 15 -15v-33h-168v-179h-36q-15 0 -15 15v164zM90 2q-15 0 -15 15v33h372q15 0 15 -15v-33h-372z" />
    <glyph glyph-name="uni00B2" unicode="&#xb2;" horiz-adv-x="381" 
d="M58 318q0 30 8.5 54.5t23.5 44.5t36 36.5t46 32.5q46 29 70 48t24 48q0 26 -19 41.5t-74 15.5q-22 0 -39.5 -2.5t-29.5 -4.5q-14 -3 -23 -3q-11 0 -13.5 5t-2.5 12v21q23 8 52.5 12.5t64.5 4.5q68 0 101.5 -26.5t33.5 -74.5q0 -23 -7.5 -40t-20.5 -31t-31.5 -26.5
t-39.5 -25.5l-37.5 -25t-35 -28.5t-26 -35t-11.5 -44.5h193q17 0 17 -16v-29h-243q-8 0 -12.5 5t-4.5 12v19z" />
    <glyph glyph-name="uni00B3" unicode="&#xb3;" horiz-adv-x="381" 
d="M159 275q-7 0 -20 0.5t-27.5 2t-28.5 3.5t-22 5q-14 4 -14 20v25q30 -5 54.5 -8t53.5 -3q59 0 81 20.5t22 53.5q0 42 -25.5 55.5t-70.5 13.5h-30q-17 0 -17 16v29h52q25 0 41 7t25 17.5t12 23t3 24.5q0 29 -19.5 44t-64.5 15q-30 0 -55 -4.5t-39 -4.5q-11 0 -14 4.5
t-3 12.5v22q21 5 49.5 10t64.5 5q67 0 99.5 -28t32.5 -76q0 -31 -14 -53t-36 -36q29 -13 45 -35.5t16 -60.5q0 -63 -40.5 -91.5t-110.5 -28.5z" />
    <glyph glyph-name="acute" unicode="&#xb4;" horiz-adv-x="432" 
d="M297 708q8 0 11.5 -4.5t-1.5 -12.5l-80 -116h-31q-7 0 -10 4t0 11q14 32 28.5 60.5t29.5 57.5h53z" />
    <glyph glyph-name="uni00B5" unicode="&#xb5;" horiz-adv-x="516" 
d="M230 -12q-8 0 -21 1.5t-28 6t-30.5 12.5t-26.5 22v-200h-41q-15 0 -15 15v658h41q15 0 15 -15v-323q0 -69 31.5 -98.5t83.5 -29.5q27 0 50.5 6.5t43 17t34.5 23t25 23.5v396h41q15 0 15 -15v-488h-37q-15 0 -15 15l-2 40q-11 -11 -26.5 -23t-36.5 -22t-46 -16t-55 -6z
" />
    <glyph glyph-name="paragraph" unicode="&#xb6;" horiz-adv-x="550" 
d="M305 696q18 0 41.5 -1t46.5 -3t42.5 -4.5t31.5 -4.5q13 -3 17 -6.5t4 -12.5v-25h-32v-722h-40q-15 0 -15 15v712q-23 2 -47 3t-52 1h-16t-18 -2v-729h-40q-15 0 -15 15v354q-39 4 -69 16.5t-50.5 36t-31 58.5t-10.5 85q0 63 18 104.5t51 66t80 34t104 9.5z" />
    <glyph glyph-name="periodcentered" unicode="&#xb7;" horiz-adv-x="223" 
d="M64 340q0 26 11.5 36.5t35.5 10.5q25 0 36.5 -10.5t11.5 -36.5t-11.5 -36t-36.5 -10q-26 0 -36.5 10t-10.5 36z" />
    <glyph glyph-name="cedilla" unicode="&#xb8;" horiz-adv-x="432" 
d="M160 -149q26 0 43 4t17 26q0 14 -9.5 19t-27.5 9l-10 2q-11 2 -16 5.5t-5 11.5t7 25l22 52h40l-26 -61l15 -3q32 -7 45 -21.5t13 -38.5q0 -12 -3.5 -24.5t-13 -22t-26.5 -15.5t-43 -6q-29 0 -44 5q-10 3 -10 12v21h32z" />
    <glyph glyph-name="uni00B9" unicode="&#xb9;" horiz-adv-x="381" 
d="M68 633l38 15q31 12 50.5 20t31 12t17.5 5.5t11 1.5q17 0 17 -16v-389h-36q-7 0 -11.5 5t-4.5 12v328l-82 -32q-4 -2 -8.5 -2.5t-6.5 -0.5q-16 0 -16 16v25z" />
    <glyph glyph-name="ordmasculine" unicode="&#xba;" horiz-adv-x="360" 
d="M72 262q-15 0 -15 15v28h230q15 0 15 -15v-28h-230zM180 417q43 0 64.5 28.5t21.5 94.5t-21.5 94.5t-64.5 28.5t-64.5 -28.5t-21.5 -94.5t21.5 -94.5t64.5 -28.5zM180 374q-65 0 -100.5 38.5t-35.5 127.5t35.5 127.5t100.5 38.5q64 0 100 -38.5t36 -127.5t-36 -127.5
t-100 -38.5z" />
    <glyph glyph-name="guillemotright" unicode="&#xbb;" horiz-adv-x="384" 
d="M130 259l-87 187h41q7 0 13 -2.5t9 -9.5l82 -175l-92 -187h-38q-7 0 -10.5 6t1.5 16zM281 259l-87 187h41q7 0 13 -2.5t9 -9.5l82 -175l-92 -187h-38q-7 0 -10.5 6t1.5 16z" />
    <glyph glyph-name="onequarter" unicode="&#xbc;" horiz-adv-x="882" 
d="M68 633l38 15q31 12 50.5 20t31 12t17.5 5.5t11 1.5q17 0 17 -16v-389h-36q-7 0 -11.5 5t-4.5 12v328l-82 -32q-4 -2 -8.5 -2.5t-6.5 -0.5q-16 0 -16 16v25zM251 0h-32q-15 0 -15 13q0 6 4 13l399 651h32q15 0 15 -13q0 -6 -4 -13zM743 141v204q-29 -21 -53.5 -47
t-43.5 -53t-33 -54t-21 -50h151zM543 137q9 30 26.5 64.5t42.5 69.5t57 67.5t70 58.5h35q17 0 17 -17v-239h30q8 0 12 -5t4 -12v-25h-46v-97h-31q-17 0 -17 17v80h-184q-16 0 -16 17v21z" />
    <glyph glyph-name="onehalf" unicode="&#xbd;" horiz-adv-x="882" 
d="M68 633l38 15q31 12 50.5 20t31 12t17.5 5.5t11 1.5q17 0 17 -16v-389h-36q-7 0 -11.5 5t-4.5 12v328l-82 -32q-4 -2 -8.5 -2.5t-6.5 -0.5q-16 0 -16 16v25zM228 0h-32q-15 0 -15 13q0 6 4 13l399 651h32q15 0 15 -13q0 -6 -4 -13zM562 38q0 30 8.5 54.5t23.5 44.5
t36 36.5t46 32.5q46 29 70 48t24 48q0 26 -19 41.5t-74 15.5q-22 0 -39.5 -2.5t-29.5 -4.5q-14 -3 -23 -3q-11 0 -13.5 5t-2.5 12v21q23 8 52.5 12.5t64.5 4.5q68 0 101.5 -26.5t33.5 -74.5q0 -23 -7.5 -40t-20.5 -31t-31.5 -26.5t-39.5 -25.5l-37.5 -25t-35 -28.5t-26 -35
t-11.5 -44.5h193q17 0 17 -16v-29h-243q-8 0 -12.5 5t-4.5 12v19z" />
    <glyph glyph-name="threequarters" unicode="&#xbe;" horiz-adv-x="882" 
d="M159 275q-7 0 -20 0.5t-27.5 2t-28.5 3.5t-22 5q-14 4 -14 20v25q30 -5 54.5 -8t53.5 -3q59 0 81 20.5t22 53.5q0 42 -25.5 55.5t-70.5 13.5h-30q-17 0 -17 16v29h52q25 0 41 7t25 17.5t12 23t3 24.5q0 29 -19.5 44t-64.5 15q-30 0 -55 -4.5t-39 -4.5q-11 0 -14 4.5
t-3 12.5v22q21 5 49.5 10t64.5 5q67 0 99.5 -28t32.5 -76q0 -31 -14 -53t-36 -36q29 -13 45 -35.5t16 -60.5q0 -63 -40.5 -91.5t-110.5 -28.5zM275 0h-32q-15 0 -15 13q0 6 4 13l399 651h32q15 0 15 -13q0 -6 -4 -13zM743 141v204q-29 -21 -53.5 -47t-43.5 -53t-33 -54
t-21 -50h151zM543 137q9 30 26.5 64.5t42.5 69.5t57 67.5t70 58.5h35q17 0 17 -17v-239h30q8 0 12 -5t4 -12v-25h-46v-97h-31q-17 0 -17 17v80h-184q-16 0 -16 17v21z" />
    <glyph glyph-name="questiondown" unicode="&#xbf;" horiz-adv-x="416" 
d="M227 -126q45 0 79.5 8.5t49.5 8.5q10 0 12.5 -5t2.5 -11v-26q-32 -11 -70 -19t-79 -8q-48 0 -81 12t-54 33t-30.5 49.5t-9.5 62.5q0 30 8 54t20 43.5t27.5 36t30.5 31.5q30 30 49 50t30.5 39t15.5 40.5t4 53.5h27q14 0 17 -12q2 -8 2 -24q0 -28 -6.5 -49.5t-19.5 -41
t-31 -39t-41 -42.5q-20 -20 -34.5 -35.5t-23.5 -30.5t-13.5 -32t-4.5 -40q0 -53 28 -80t95 -27zM201 480q0 26 11.5 36.5t35.5 10.5q25 0 36.5 -10.5t11.5 -36.5t-11.5 -36t-36.5 -10q-26 0 -36.5 10t-10.5 36z" />
    <glyph glyph-name="Agrave" unicode="&#xc0;" horiz-adv-x="537" 
d="M445 15q-8 48 -18 97.5t-22 101.5h-276q-13 -54 -23.5 -107t-19.5 -107h-40q-17 0 -15 15q20 121 48 228.5t57 195t56 153t46 101.5h48q7 0 11.5 -2t9.5 -12q19 -41 46.5 -109t55.5 -156.5t54 -193.5t44 -220h-46q-13 0 -16 15zM267 635q-39 -89 -70 -181t-56 -189h251
q-24 95 -55.5 188.5t-69.5 181.5zM251 854q12 -21 28 -49.5t28 -59.5h-37q-8 0 -12.5 3.5t-9.5 10.5l-84 110h67q8 0 11.5 -3.5t8.5 -11.5z" />
    <glyph glyph-name="Aacute" unicode="&#xc1;" horiz-adv-x="537" 
d="M445 15q-8 48 -18 97.5t-22 101.5h-276q-13 -54 -23.5 -107t-19.5 -107h-40q-17 0 -15 15q20 121 48 228.5t57 195t56 153t46 101.5h48q7 0 11.5 -2t9.5 -12q19 -41 46.5 -109t55.5 -156.5t54 -193.5t44 -220h-46q-13 0 -16 15zM267 635q-39 -89 -70 -181t-56 -189h251
q-24 95 -55.5 188.5t-69.5 181.5zM353 869q6 0 10.5 -4.5t-0.5 -12.5l-88 -107h-32q-6 0 -10 3.5t0 11.5q14 29 30 56t34 53h56z" />
    <glyph glyph-name="Acircumflex" unicode="&#xc2;" horiz-adv-x="537" 
d="M445 15q-8 48 -18 97.5t-22 101.5h-276q-13 -54 -23.5 -107t-19.5 -107h-40q-17 0 -15 15q20 121 48 228.5t57 195t56 153t46 101.5h48q7 0 11.5 -2t9.5 -12q19 -41 46.5 -109t55.5 -156.5t54 -193.5t44 -220h-46q-13 0 -16 15zM267 635q-39 -89 -70 -181t-56 -189h251
q-24 95 -55.5 188.5t-69.5 181.5zM343 745q-8 0 -12.5 3t-10.5 11l-52 64l-64 -78h-33q-7 0 -10 4t2 12q17 27 37.5 54.5t40.5 53.5h41q8 0 11.5 -1t8.5 -8q16 -21 35.5 -48.5t43.5 -66.5h-38z" />
    <glyph glyph-name="Atilde" unicode="&#xc3;" horiz-adv-x="537" 
d="M445 15q-8 48 -18 97.5t-22 101.5h-276q-13 -54 -23.5 -107t-19.5 -107h-40q-17 0 -15 15q20 121 48 228.5t57 195t56 153t46 101.5h48q7 0 11.5 -2t9.5 -12q19 -41 46.5 -109t55.5 -156.5t54 -193.5t44 -220h-46q-13 0 -16 15zM267 635q-39 -89 -70 -181t-56 -189h251
q-24 95 -55.5 188.5t-69.5 181.5zM407 847q0 -49 -18 -71t-53 -22q-26 0 -44 11t-35 24q-20 15 -31.5 22t-25.5 7q-11 0 -17 -6t-9 -15t-3.5 -20t-0.5 -21h-29q-8 0 -10 4t-2 9q0 49 18 71t53 22q26 0 44 -11t35 -24q20 -15 31.5 -22t25.5 -7q11 0 17 5.5t9 14.5t3.5 20
t0.5 22h29q8 0 10 -4t2 -9z" />
    <glyph glyph-name="Adieresis" unicode="&#xc4;" horiz-adv-x="537" 
d="M445 15q-8 48 -18 97.5t-22 101.5h-276q-13 -54 -23.5 -107t-19.5 -107h-40q-17 0 -15 15q20 121 48 228.5t57 195t56 153t46 101.5h48q7 0 11.5 -2t9.5 -12q19 -41 46.5 -109t55.5 -156.5t54 -193.5t44 -220h-46q-13 0 -16 15zM267 635q-39 -89 -70 -181t-56 -189h251
q-24 95 -55.5 188.5t-69.5 181.5zM145 808q0 22 9.5 31t30.5 9q20 0 30 -9t10 -31t-10 -31t-30 -9q-21 0 -30.5 9t-9.5 31zM311 808q0 22 9.5 31t30.5 9q20 0 30 -9t10 -31t-10 -31t-30 -9q-21 0 -30.5 9t-9.5 31z" />
    <glyph glyph-name="Aring" unicode="&#xc5;" horiz-adv-x="537" 
d="M445 15q-8 48 -18 97.5t-22 101.5h-276q-13 -54 -23.5 -107t-19.5 -107h-40q-17 0 -15 15q20 121 48 228.5t57 195t56 153t46 101.5h48q7 0 11.5 -2t9.5 -12q19 -41 46.5 -109t55.5 -156.5t54 -193.5t44 -220h-46q-13 0 -16 15zM267 635q-39 -89 -70 -181t-56 -189h251
q-24 95 -55.5 188.5t-69.5 181.5zM268 768q23 0 36.5 11.5t13.5 39.5t-13.5 39.5t-36.5 11.5t-36.5 -11.5t-13.5 -39.5t13.5 -39.5t36.5 -11.5zM268 730q-47 0 -70 24t-23 65t23 65t70 24t70 -24t23 -65t-23 -65t-70 -24z" />
    <glyph glyph-name="AE" unicode="&#xc6;" horiz-adv-x="784" 
d="M398 0q-15 0 -15 15v199h-235q-23 -54 -42.5 -107t-36.5 -107h-39q-7 0 -11 4t-2 11q37 116 81 218t89.5 187.5t89.5 154t80 118.5h358q15 0 15 -15v-37h-289v-267h250q15 0 15 -15v-37h-265v-270h286q15 0 15 -15v-37h-344zM383 644q-62 -85 -115 -181t-98 -198h213v379
z" />
    <glyph glyph-name="Ccedilla" unicode="&#xc7;" horiz-adv-x="503" 
d="M259 -149q26 0 43 4t17 26q0 14 -9.5 19t-27.5 9l-10 2q-11 2 -16 5.5t-5 11.5t7 25l17 40q-62 6 -103 31t-65.5 69.5t-35 108t-10.5 144.5q0 93 13.5 160t43 110.5t77 64t115.5 20.5q18 0 37.5 -1.5t38 -4t35 -6t27.5 -7.5q14 -5 14 -21v-29q-28 5 -68 10t-78 5
q-54 0 -91 -15t-60 -49.5t-33 -91t-10 -140.5q0 -97 13 -157t38 -93t62 -44.5t85 -11.5q49 0 82 7t49 7q17 0 17 -16v-27q-25 -9 -66 -17t-88 -8l-20 -47l15 -3q32 -7 45 -21.5t13 -38.5q0 -12 -3.5 -24.5t-13 -22t-26.5 -15.5t-43 -6q-29 0 -44 5q-10 3 -10 12v21h32z" />
    <glyph glyph-name="Egrave" unicode="&#xc8;" horiz-adv-x="509" 
d="M455 641h-320v-267h281q15 0 15 -15v-37h-296v-270h317q15 0 15 -15v-37h-375q-15 0 -15 15v678h363q15 0 15 -15v-37zM249 854q12 -21 28 -49.5t28 -59.5h-37q-8 0 -12.5 3.5t-9.5 10.5l-84 110h67q8 0 11.5 -3.5t8.5 -11.5z" />
    <glyph glyph-name="Eacute" unicode="&#xc9;" horiz-adv-x="509" 
d="M455 641h-320v-267h281q15 0 15 -15v-37h-296v-270h317q15 0 15 -15v-37h-375q-15 0 -15 15v678h363q15 0 15 -15v-37zM351 869q6 0 10.5 -4.5t-0.5 -12.5l-88 -107h-32q-6 0 -10 3.5t0 11.5q14 29 30 56t34 53h56z" />
    <glyph glyph-name="Ecircumflex" unicode="&#xca;" horiz-adv-x="509" 
d="M455 641h-320v-267h281q15 0 15 -15v-37h-296v-270h317q15 0 15 -15v-37h-375q-15 0 -15 15v678h363q15 0 15 -15v-37zM341 745q-8 0 -12.5 3t-10.5 11l-52 64l-64 -78h-33q-7 0 -10 4t2 12q17 27 37.5 54.5t40.5 53.5h41q8 0 11.5 -1t8.5 -8q16 -21 35.5 -48.5
t43.5 -66.5h-38z" />
    <glyph glyph-name="Edieresis" unicode="&#xcb;" horiz-adv-x="509" 
d="M455 641h-320v-267h281q15 0 15 -15v-37h-296v-270h317q15 0 15 -15v-37h-375q-15 0 -15 15v678h363q15 0 15 -15v-37zM143 808q0 22 9.5 31t30.5 9q20 0 30 -9t10 -31t-10 -31t-30 -9q-21 0 -30.5 9t-9.5 31zM309 808q0 22 9.5 31t30.5 9q20 0 30 -9t10 -31t-10 -31
t-30 -9q-21 0 -30.5 9t-9.5 31z" />
    <glyph glyph-name="Igrave" unicode="&#xcc;" horiz-adv-x="212" 
d="M135 0h-43q-15 0 -15 15v678h43q15 0 15 -15v-678zM91 854q12 -21 28 -49.5t28 -59.5h-37q-8 0 -12.5 3.5t-9.5 10.5l-84 110h67q8 0 11.5 -3.5t8.5 -11.5z" />
    <glyph glyph-name="Iacute" unicode="&#xcd;" horiz-adv-x="212" 
d="M135 0h-43q-15 0 -15 15v678h43q15 0 15 -15v-678zM193 869q6 0 10.5 -4.5t-0.5 -12.5l-88 -107h-32q-6 0 -10 3.5t0 11.5q14 29 30 56t34 53h56z" />
    <glyph glyph-name="Icircumflex" unicode="&#xce;" horiz-adv-x="212" 
d="M135 0h-43q-15 0 -15 15v678h43q15 0 15 -15v-678zM183 745q-8 0 -12.5 3t-10.5 11l-52 64l-64 -78h-33q-7 0 -10 4t2 12q17 27 37.5 54.5t40.5 53.5h41q8 0 11.5 -1t8.5 -8q16 -21 35.5 -48.5t43.5 -66.5h-38z" />
    <glyph glyph-name="Idieresis" unicode="&#xcf;" horiz-adv-x="212" 
d="M135 0h-43q-15 0 -15 15v678h43q15 0 15 -15v-678zM-15 808q0 22 9.5 31t30.5 9q20 0 30 -9t10 -31t-10 -31t-30 -9q-21 0 -30.5 9t-9.5 31zM151 808q0 22 9.5 31t30.5 9q20 0 30 -9t10 -31t-10 -31t-30 -9q-21 0 -30.5 9t-9.5 31z" />
    <glyph glyph-name="Eth" unicode="&#xd0;" horiz-adv-x="623" 
d="M104 333h-66q-15 0 -15 15v33h81v300q19 3 44.5 6t53.5 5.5t56.5 4t52.5 1.5q69 0 117 -21t77.5 -64.5t43 -109.5t13.5 -157q0 -86 -13.5 -151t-44 -108.5t-79 -65t-118.5 -21.5h-188q-15 0 -15 15v318zM162 333v-281h134q48 0 86.5 11t64.5 43t40 89.5t14 150.5
q0 87 -10.5 144.5t-34 92t-61 49t-90.5 14.5q-42 0 -79.5 -2.5t-63.5 -7.5v-255h127q15 0 15 -15v-33h-142z" />
    <glyph glyph-name="Ntilde" unicode="&#xd1;" horiz-adv-x="603" 
d="M482 0q-11 0 -19 15q-18 34 -45.5 84t-59.5 107t-66 117t-64.5 113t-55 95.5t-38.5 64.5v-596h-42q-15 0 -15 15v678h50q7 0 10.5 -3.5t8.5 -11.5q13 -22 36.5 -61.5t52.5 -89.5t62 -106.5t64.5 -112.5t59.5 -107t48 -90v582h42q15 0 15 -15v-678h-44zM440 847
q0 -49 -18 -71t-53 -22q-26 0 -44 11t-35 24q-20 15 -31.5 22t-25.5 7q-11 0 -17 -6t-9 -15t-3.5 -20t-0.5 -21h-29q-8 0 -10 4t-2 9q0 49 18 71t53 22q26 0 44 -11t35 -24q20 -15 31.5 -22t25.5 -7q11 0 17 5.5t9 14.5t3.5 20t0.5 22h29q8 0 10 -4t2 -9z" />
    <glyph glyph-name="Ograve" unicode="&#xd2;" horiz-adv-x="609" 
d="M122 346q0 -81 8.5 -138t29.5 -93.5t56 -53.5t88 -17q52 0 87 17t56.5 53.5t30.5 93.5t9 138t-9 138.5t-30 93.5t-56.5 53t-87.5 17q-53 0 -88 -17t-56 -53t-29.5 -93.5t-8.5 -138.5zM548 346q0 -107 -17.5 -176t-49.5 -109t-77 -55.5t-100 -15.5q-54 0 -99 15.5
t-77 55.5t-49.5 109t-17.5 176t17.5 176t49.5 109t77 55.5t99 15.5q55 0 100 -15.5t77 -55.5t49.5 -109t17.5 -176zM287 854q12 -21 28 -49.5t28 -59.5h-37q-8 0 -12.5 3.5t-9.5 10.5l-84 110h67q8 0 11.5 -3.5t8.5 -11.5z" />
    <glyph glyph-name="Oacute" unicode="&#xd3;" horiz-adv-x="609" 
d="M122 346q0 -81 8.5 -138t29.5 -93.5t56 -53.5t88 -17q52 0 87 17t56.5 53.5t30.5 93.5t9 138t-9 138.5t-30 93.5t-56.5 53t-87.5 17q-53 0 -88 -17t-56 -53t-29.5 -93.5t-8.5 -138.5zM548 346q0 -107 -17.5 -176t-49.5 -109t-77 -55.5t-100 -15.5q-54 0 -99 15.5
t-77 55.5t-49.5 109t-17.5 176t17.5 176t49.5 109t77 55.5t99 15.5q55 0 100 -15.5t77 -55.5t49.5 -109t17.5 -176zM389 869q6 0 10.5 -4.5t-0.5 -12.5l-88 -107h-32q-6 0 -10 3.5t0 11.5q14 29 30 56t34 53h56z" />
    <glyph glyph-name="Ocircumflex" unicode="&#xd4;" horiz-adv-x="609" 
d="M122 346q0 -81 8.5 -138t29.5 -93.5t56 -53.5t88 -17q52 0 87 17t56.5 53.5t30.5 93.5t9 138t-9 138.5t-30 93.5t-56.5 53t-87.5 17q-53 0 -88 -17t-56 -53t-29.5 -93.5t-8.5 -138.5zM548 346q0 -107 -17.5 -176t-49.5 -109t-77 -55.5t-100 -15.5q-54 0 -99 15.5
t-77 55.5t-49.5 109t-17.5 176t17.5 176t49.5 109t77 55.5t99 15.5q55 0 100 -15.5t77 -55.5t49.5 -109t17.5 -176zM379 745q-8 0 -12.5 3t-10.5 11l-52 64l-64 -78h-33q-7 0 -10 4t2 12q17 27 37.5 54.5t40.5 53.5h41q8 0 11.5 -1t8.5 -8q16 -21 35.5 -48.5t43.5 -66.5h-38
z" />
    <glyph glyph-name="Otilde" unicode="&#xd5;" horiz-adv-x="609" 
d="M122 346q0 -81 8.5 -138t29.5 -93.5t56 -53.5t88 -17q52 0 87 17t56.5 53.5t30.5 93.5t9 138t-9 138.5t-30 93.5t-56.5 53t-87.5 17q-53 0 -88 -17t-56 -53t-29.5 -93.5t-8.5 -138.5zM548 346q0 -107 -17.5 -176t-49.5 -109t-77 -55.5t-100 -15.5q-54 0 -99 15.5
t-77 55.5t-49.5 109t-17.5 176t17.5 176t49.5 109t77 55.5t99 15.5q55 0 100 -15.5t77 -55.5t49.5 -109t17.5 -176zM443 847q0 -49 -18 -71t-53 -22q-26 0 -44 11t-35 24q-20 15 -31.5 22t-25.5 7q-11 0 -17 -6t-9 -15t-3.5 -20t-0.5 -21h-29q-8 0 -10 4t-2 9q0 49 18 71
t53 22q26 0 44 -11t35 -24q20 -15 31.5 -22t25.5 -7q11 0 17 5.5t9 14.5t3.5 20t0.5 22h29q8 0 10 -4t2 -9z" />
    <glyph glyph-name="Odieresis" unicode="&#xd6;" horiz-adv-x="609" 
d="M122 346q0 -81 8.5 -138t29.5 -93.5t56 -53.5t88 -17q52 0 87 17t56.5 53.5t30.5 93.5t9 138t-9 138.5t-30 93.5t-56.5 53t-87.5 17q-53 0 -88 -17t-56 -53t-29.5 -93.5t-8.5 -138.5zM548 346q0 -107 -17.5 -176t-49.5 -109t-77 -55.5t-100 -15.5q-54 0 -99 15.5
t-77 55.5t-49.5 109t-17.5 176t17.5 176t49.5 109t77 55.5t99 15.5q55 0 100 -15.5t77 -55.5t49.5 -109t17.5 -176zM181 808q0 22 9.5 31t30.5 9q20 0 30 -9t10 -31t-10 -31t-30 -9q-21 0 -30.5 9t-9.5 31zM347 808q0 22 9.5 31t30.5 9q20 0 30 -9t10 -31t-10 -31t-30 -9
q-21 0 -30.5 9t-9.5 31z" />
    <glyph glyph-name="multiply" unicode="&#xd7;" 
d="M417 479q12 -11 0 -21l-114 -115l126 -126l-24 -24q-11 -9 -22 0l-115 116l-125 -125l-24 24q-10 10 0 21l114 114l-125 126l24 24q11 9 22 0l114 -115l125 125z" />
    <glyph glyph-name="Oslash" unicode="&#xd8;" horiz-adv-x="609" 
d="M491 616q27 -41 42 -106.5t15 -163.5q0 -107 -17.5 -176t-49.5 -109t-77 -55.5t-100 -15.5q-46 0 -84.5 10.5t-68.5 36.5l-42 -72h-33q-10 0 -13.5 7t1.5 16l52 89q-26 42 -40.5 107t-14.5 162q0 107 17.5 176t49.5 109t77 55.5t99 15.5q45 0 83.5 -10t69.5 -36l41 70h36
q8 0 11.5 -5.5t-1.5 -14.5zM487 346q0 72 -7 124t-23 89l-277 -472q21 -23 51.5 -33t72.5 -10q52 0 87 17t56.5 53.5t30.5 93.5t9 138zM122 346q0 -71 6 -123t22 -89l277 471q-21 23 -51 33t-72 10q-53 0 -88 -17t-56 -53t-29.5 -93.5t-8.5 -138.5z" />
    <glyph glyph-name="Ugrave" unicode="&#xd9;" horiz-adv-x="592" 
d="M518 236q0 -70 -15.5 -117t-44 -75.5t-69.5 -40.5t-93 -12q-53 0 -94 12t-69.5 40.5t-43.5 75.5t-15 116v458h43q15 0 15 -15v-443q0 -43 7.5 -78t26.5 -60t51 -38.5t80 -13.5q49 0 81 13.5t50 38.5t25 60t7 78v458h43q15 0 15 -15v-442zM279 854q12 -21 28 -49.5
t28 -59.5h-37q-8 0 -12.5 3.5t-9.5 10.5l-84 110h67q8 0 11.5 -3.5t8.5 -11.5z" />
    <glyph glyph-name="Uacute" unicode="&#xda;" horiz-adv-x="592" 
d="M518 236q0 -70 -15.5 -117t-44 -75.5t-69.5 -40.5t-93 -12q-53 0 -94 12t-69.5 40.5t-43.5 75.5t-15 116v458h43q15 0 15 -15v-443q0 -43 7.5 -78t26.5 -60t51 -38.5t80 -13.5q49 0 81 13.5t50 38.5t25 60t7 78v458h43q15 0 15 -15v-442zM381 869q6 0 10.5 -4.5
t-0.5 -12.5l-88 -107h-32q-6 0 -10 3.5t0 11.5q14 29 30 56t34 53h56z" />
    <glyph glyph-name="Ucircumflex" unicode="&#xdb;" horiz-adv-x="592" 
d="M518 236q0 -70 -15.5 -117t-44 -75.5t-69.5 -40.5t-93 -12q-53 0 -94 12t-69.5 40.5t-43.5 75.5t-15 116v458h43q15 0 15 -15v-443q0 -43 7.5 -78t26.5 -60t51 -38.5t80 -13.5q49 0 81 13.5t50 38.5t25 60t7 78v458h43q15 0 15 -15v-442zM371 745q-8 0 -12.5 3t-10.5 11
l-52 64l-64 -78h-33q-7 0 -10 4t2 12q17 27 37.5 54.5t40.5 53.5h41q8 0 11.5 -1t8.5 -8q16 -21 35.5 -48.5t43.5 -66.5h-38z" />
    <glyph glyph-name="Udieresis" unicode="&#xdc;" horiz-adv-x="592" 
d="M518 236q0 -70 -15.5 -117t-44 -75.5t-69.5 -40.5t-93 -12q-53 0 -94 12t-69.5 40.5t-43.5 75.5t-15 116v458h43q15 0 15 -15v-443q0 -43 7.5 -78t26.5 -60t51 -38.5t80 -13.5q49 0 81 13.5t50 38.5t25 60t7 78v458h43q15 0 15 -15v-442zM173 808q0 22 9.5 31t30.5 9
q20 0 30 -9t10 -31t-10 -31t-30 -9q-21 0 -30.5 9t-9.5 31zM339 808q0 22 9.5 31t30.5 9q20 0 30 -9t10 -31t-10 -31t-30 -9q-21 0 -30.5 9t-9.5 31z" />
    <glyph glyph-name="Yacute" unicode="&#xdd;" horiz-adv-x="509" 
d="M463 693q21 0 14 -22q-18 -54 -37.5 -103t-42.5 -97t-50.5 -98t-63.5 -105v-268h-43q-15 0 -15 15v253q-36 56 -65 108t-53 103t-44 103.5t-39 110.5h48q9 0 12.5 -3t6.5 -12q12 -36 29 -80.5t38 -92t46 -95t52 -89.5q28 41 55.5 95t50.5 107.5t39.5 99t21.5 70.5h40z
M340 869q6 0 10.5 -4.5t-0.5 -12.5l-88 -107h-32q-6 0 -10 3.5t0 11.5q14 29 30 56t34 53h56z" />
    <glyph glyph-name="Thorn" unicode="&#xde;" horiz-adv-x="548" 
d="M92 0q-15 0 -15 15v678h43q15 0 15 -15v-113q32 5 67 8t68 3q119 0 173.5 -52t54.5 -167q0 -59 -14.5 -100t-41 -67t-64.5 -37.5t-85 -11.5q-31 0 -71.5 4t-86.5 13v-158h-43zM135 210q35 -8 73 -12.5t76 -4.5q39 0 68 8t48.5 27t29 50.5t9.5 78.5q0 53 -11.5 86t-33 51
t-53 24t-70.5 6q-45 0 -79 -3t-57 -8v-303z" />
    <glyph glyph-name="germandbls" unicode="&#xdf;" horiz-adv-x="524" 
d="M325 41q49 0 76 23t27 74q0 43 -19.5 64.5t-46.5 37.5q-32 19 -54 32.5t-35.5 27t-19 29t-5.5 39.5q0 18 5.5 32.5t16 28t25 26.5t32.5 28q17 15 28 26.5t17 22.5t8.5 23.5t2.5 28.5q0 30 -11 48t-28.5 28t-40 13.5t-46.5 3.5q-75 0 -104 -34t-29 -100v-543h-41
q-15 0 -15 15v530q0 34 8 67t29.5 59t58 41.5t93.5 15.5q36 0 69 -6.5t58 -22.5t40 -43t15 -69q0 -22 -3.5 -39t-12 -32t-22 -29.5t-33.5 -32.5q-21 -18 -34 -30t-20 -20.5t-9.5 -16.5t-2.5 -18q0 -12 4 -21t14.5 -18t28.5 -20.5t47 -27.5q19 -11 35 -24t28 -30.5
t18.5 -39.5t6.5 -51q0 -72 -43 -108t-114 -36q-28 0 -53.5 3.5t-39.5 9.5q-13 5 -13 19v27q20 -4 46.5 -7.5t57.5 -3.5z" />
    <glyph glyph-name="agrave" unicode="&#xe0;" horiz-adv-x="484" 
d="M364 261h-133q-39 0 -65 -9t-41 -24.5t-21 -36t-6 -42.5q0 -61 31 -86.5t83 -25.5q51 0 88.5 21.5t63.5 47.5v155zM366 55q-12 -12 -29 -23.5t-37.5 -20.5t-44 -15t-49.5 -6q-83 0 -122 42t-39 116q0 85 48.5 122t139.5 37h131v39q0 33 -7 56t-23.5 36.5t-43 19.5
t-65.5 6q-46 0 -82.5 -6t-49.5 -6q-16 0 -16 17v24q39 11 81 15t78 4q55 0 91 -12.5t56.5 -35t28.5 -53t8 -67.5v-344h-37q-15 0 -15 15zM220 693q13 -28 25 -56t26 -62h-34q-14 0 -22 14l-76 119h61q14 0 20 -15z" />
    <glyph glyph-name="aacute" unicode="&#xe1;" horiz-adv-x="484" 
d="M364 261h-133q-39 0 -65 -9t-41 -24.5t-21 -36t-6 -42.5q0 -61 31 -86.5t83 -25.5q51 0 88.5 21.5t63.5 47.5v155zM366 55q-12 -12 -29 -23.5t-37.5 -20.5t-44 -15t-49.5 -6q-83 0 -122 42t-39 116q0 85 48.5 122t139.5 37h131v39q0 33 -7 56t-23.5 36.5t-43 19.5
t-65.5 6q-46 0 -82.5 -6t-49.5 -6q-16 0 -16 17v24q39 11 81 15t78 4q55 0 91 -12.5t56.5 -35t28.5 -53t8 -67.5v-344h-37q-15 0 -15 15zM319 708q8 0 11.5 -4.5t-1.5 -12.5l-80 -116h-31q-7 0 -10 4t0 11q14 32 28.5 60.5t29.5 57.5h53z" />
    <glyph glyph-name="acircumflex" unicode="&#xe2;" horiz-adv-x="484" 
d="M364 261h-133q-39 0 -65 -9t-41 -24.5t-21 -36t-6 -42.5q0 -61 31 -86.5t83 -25.5q51 0 88.5 21.5t63.5 47.5v155zM366 55q-12 -12 -29 -23.5t-37.5 -20.5t-44 -15t-49.5 -6q-83 0 -122 42t-39 116q0 85 48.5 122t139.5 37h131v39q0 33 -7 56t-23.5 36.5t-43 19.5
t-65.5 6q-46 0 -82.5 -6t-49.5 -6q-16 0 -16 17v24q39 11 81 15t78 4q55 0 91 -12.5t56.5 -35t28.5 -53t8 -67.5v-344h-37q-15 0 -15 15zM312 575q-13 0 -23 14l-51 74l-61 -88h-33q-7 0 -9.5 3.5t2.5 11.5q17 28 33.5 55t42.5 63h37q8 0 11.5 -1t8.5 -8q17 -25 37 -56.5
t40 -67.5h-35z" />
    <glyph glyph-name="atilde" unicode="&#xe3;" horiz-adv-x="484" 
d="M364 261h-133q-39 0 -65 -9t-41 -24.5t-21 -36t-6 -42.5q0 -61 31 -86.5t83 -25.5q51 0 88.5 21.5t63.5 47.5v155zM366 55q-12 -12 -29 -23.5t-37.5 -20.5t-44 -15t-49.5 -6q-83 0 -122 42t-39 116q0 85 48.5 122t139.5 37h131v39q0 33 -7 56t-23.5 36.5t-43 19.5
t-65.5 6q-46 0 -82.5 -6t-49.5 -6q-16 0 -16 17v24q39 11 81 15t78 4q55 0 91 -12.5t56.5 -35t28.5 -53t8 -67.5v-344h-37q-15 0 -15 15zM377 676q0 -49 -18 -71t-53 -22q-26 0 -44 11t-35 24q-20 15 -31.5 22t-25.5 7q-11 0 -17 -6t-9 -15t-3.5 -20t-0.5 -21h-29
q-8 0 -10 4t-2 9q0 49 18 71t53 22q26 0 44 -11t35 -24q20 -15 31.5 -22t25.5 -7q11 0 17 5.5t9 14.5t3.5 20t0.5 22h29q8 0 10 -4t2 -9z" />
    <glyph glyph-name="adieresis" unicode="&#xe4;" horiz-adv-x="484" 
d="M364 261h-133q-39 0 -65 -9t-41 -24.5t-21 -36t-6 -42.5q0 -61 31 -86.5t83 -25.5q51 0 88.5 21.5t63.5 47.5v155zM366 55q-12 -12 -29 -23.5t-37.5 -20.5t-44 -15t-49.5 -6q-83 0 -122 42t-39 116q0 85 48.5 122t139.5 37h131v39q0 33 -7 56t-23.5 36.5t-43 19.5
t-65.5 6q-46 0 -82.5 -6t-49.5 -6q-16 0 -16 17v24q39 11 81 15t78 4q55 0 91 -12.5t56.5 -35t28.5 -53t8 -67.5v-344h-37q-15 0 -15 15zM115 641q0 22 9.5 31t30.5 9q20 0 30 -9t10 -31t-10 -31t-30 -9q-21 0 -30.5 9t-9.5 31zM281 641q0 22 9.5 31t30.5 9q20 0 30 -9
t10 -31t-10 -31t-30 -9q-21 0 -30.5 9t-9.5 31z" />
    <glyph glyph-name="aring" unicode="&#xe5;" horiz-adv-x="484" 
d="M364 261h-133q-39 0 -65 -9t-41 -24.5t-21 -36t-6 -42.5q0 -61 31 -86.5t83 -25.5q51 0 88.5 21.5t63.5 47.5v155zM366 55q-12 -12 -29 -23.5t-37.5 -20.5t-44 -15t-49.5 -6q-83 0 -122 42t-39 116q0 85 48.5 122t139.5 37h131v39q0 33 -7 56t-23.5 36.5t-43 19.5
t-65.5 6q-46 0 -82.5 -6t-49.5 -6q-16 0 -16 17v24q39 11 81 15t78 4q55 0 91 -12.5t56.5 -35t28.5 -53t8 -67.5v-344h-37q-15 0 -15 15zM238 610q23 0 36.5 11.5t13.5 39.5t-13.5 39.5t-36.5 11.5t-36.5 -11.5t-13.5 -39.5t13.5 -39.5t36.5 -11.5zM238 572q-47 0 -70 24
t-23 65t23 65t70 24t70 -24t23 -65t-23 -65t-70 -24z" />
    <glyph glyph-name="ae" unicode="&#xe6;" horiz-adv-x="767" 
d="M372 100q-10 29 -13.5 65t-3.5 84v6h-127q-42 0 -67 -10t-37.5 -26t-16 -36t-3.5 -40q0 -30 9.5 -50.5t25.5 -33t38 -17.5t48 -5q49 0 85 20t62 43zM538 466q-39 0 -63 -14t-38.5 -39.5t-20.5 -60t-7 -75.5h249q1 7 1 13.5v12.5q0 40 -5 71t-18.5 51t-37 30.5t-60.5 10.5
zM552 -9q-60 0 -99 15.5t-62 51.5q-29 -26 -71.5 -47t-102.5 -21q-76 0 -121 37.5t-45 114.5q0 84 41.5 121t137.5 37h125v45q0 64 -29 91.5t-102 27.5q-40 0 -76 -6t-49 -6q-16 0 -16 17v24q39 11 80 15t72 4q66 0 102.5 -22t51.5 -59q24 44 61 64t88 20q54 0 88 -16.5
t53.5 -45t27 -67.5t7.5 -84q0 -20 -2 -40t-5 -32h-298q3 -50 8 -86t20.5 -59t44.5 -34t79 -11q48 0 77 5.5t41 5.5q9 0 12.5 -5t3.5 -10v-26q-22 -8 -61.5 -13.5t-81.5 -5.5z" />
    <glyph glyph-name="ccedilla" unicode="&#xe7;" horiz-adv-x="413" 
d="M205 -149q26 0 43 4t17 26q0 14 -9.5 19t-27.5 9l-10 2q-11 2 -16 5.5t-5 11.5t7 25l16 40q-47 4 -78.5 24.5t-50.5 53.5t-27.5 78.5t-8.5 99.5q0 140 49 201.5t145 61.5q15 0 32.5 -1.5t33 -3.5t28 -4.5t18.5 -5.5q13 -5 13 -18v-28q-32 5 -60.5 8.5t-57.5 3.5
q-36 0 -63 -10.5t-45 -34.5t-27 -64.5t-9 -100.5q0 -66 10.5 -107.5t29.5 -65t46 -32t59 -8.5q36 0 64.5 5.5t40.5 5.5q9 0 12.5 -5t3.5 -10v-26q-20 -8 -54 -13t-64 -6l-20 -47l15 -3q32 -7 45 -21.5t13 -38.5q0 -12 -3.5 -24.5t-13 -22t-26.5 -15.5t-43 -6q-29 0 -44 5
q-10 3 -10 12v21h32z" />
    <glyph glyph-name="egrave" unicode="&#xe8;" horiz-adv-x="489" 
d="M256 466q-42 0 -69.5 -14t-44 -39.5t-23.5 -60t-8 -75.5h269q1 7 1 13.5v12.5q0 40 -5 71t-19 51t-38 30.5t-63 10.5zM272 -9q-56 0 -97 13.5t-67.5 44t-39.5 80t-13 120.5q0 73 13 123.5t38.5 82t63 46t86.5 14.5q55 0 90.5 -16.5t55 -45t27 -67.5t7.5 -84q0 -20 -2 -40
t-5 -32h-318q3 -51 11 -87t26.5 -59t50.5 -33.5t82 -10.5q49 0 78.5 5.5t41.5 5.5q9 0 12.5 -5t3.5 -10v-26q-22 -8 -61.5 -13t-83.5 -6zM228 693q13 -28 25 -56t26 -62h-34q-14 0 -22 14l-76 119h61q14 0 20 -15z" />
    <glyph glyph-name="eacute" unicode="&#xe9;" horiz-adv-x="489" 
d="M256 466q-42 0 -69.5 -14t-44 -39.5t-23.5 -60t-8 -75.5h269q1 7 1 13.5v12.5q0 40 -5 71t-19 51t-38 30.5t-63 10.5zM272 -9q-56 0 -97 13.5t-67.5 44t-39.5 80t-13 120.5q0 73 13 123.5t38.5 82t63 46t86.5 14.5q55 0 90.5 -16.5t55 -45t27 -67.5t7.5 -84q0 -20 -2 -40
t-5 -32h-318q3 -51 11 -87t26.5 -59t50.5 -33.5t82 -10.5q49 0 78.5 5.5t41.5 5.5q9 0 12.5 -5t3.5 -10v-26q-22 -8 -61.5 -13t-83.5 -6zM327 708q8 0 11.5 -4.5t-1.5 -12.5l-80 -116h-31q-7 0 -10 4t0 11q14 32 28.5 60.5t29.5 57.5h53z" />
    <glyph glyph-name="ecircumflex" unicode="&#xea;" horiz-adv-x="489" 
d="M256 466q-42 0 -69.5 -14t-44 -39.5t-23.5 -60t-8 -75.5h269q1 7 1 13.5v12.5q0 40 -5 71t-19 51t-38 30.5t-63 10.5zM272 -9q-56 0 -97 13.5t-67.5 44t-39.5 80t-13 120.5q0 73 13 123.5t38.5 82t63 46t86.5 14.5q55 0 90.5 -16.5t55 -45t27 -67.5t7.5 -84q0 -20 -2 -40
t-5 -32h-318q3 -51 11 -87t26.5 -59t50.5 -33.5t82 -10.5q49 0 78.5 5.5t41.5 5.5q9 0 12.5 -5t3.5 -10v-26q-22 -8 -61.5 -13t-83.5 -6zM320 575q-13 0 -23 14l-51 74l-61 -88h-33q-7 0 -9.5 3.5t2.5 11.5q17 28 33.5 55t42.5 63h37q8 0 11.5 -1t8.5 -8q17 -25 37 -56.5
t40 -67.5h-35z" />
    <glyph glyph-name="edieresis" unicode="&#xeb;" horiz-adv-x="489" 
d="M256 466q-42 0 -69.5 -14t-44 -39.5t-23.5 -60t-8 -75.5h269q1 7 1 13.5v12.5q0 40 -5 71t-19 51t-38 30.5t-63 10.5zM272 -9q-56 0 -97 13.5t-67.5 44t-39.5 80t-13 120.5q0 73 13 123.5t38.5 82t63 46t86.5 14.5q55 0 90.5 -16.5t55 -45t27 -67.5t7.5 -84q0 -20 -2 -40
t-5 -32h-318q3 -51 11 -87t26.5 -59t50.5 -33.5t82 -10.5q49 0 78.5 5.5t41.5 5.5q9 0 12.5 -5t3.5 -10v-26q-22 -8 -61.5 -13t-83.5 -6zM123 641q0 22 9.5 31t30.5 9q20 0 30 -9t10 -31t-10 -31t-30 -9q-21 0 -30.5 9t-9.5 31zM289 641q0 22 9.5 31t30.5 9q20 0 30 -9
t10 -31t-10 -31t-30 -9q-21 0 -30.5 9t-9.5 31z" />
    <glyph glyph-name="igrave" unicode="&#xec;" horiz-adv-x="196" 
d="M70 503h41q15 0 15 -15v-488h-41q-15 0 -15 15v488zM82 693q13 -28 25 -56t26 -62h-34q-14 0 -22 14l-76 119h61q14 0 20 -15z" />
    <glyph glyph-name="iacute" unicode="&#xed;" horiz-adv-x="196" 
d="M70 503h41q15 0 15 -15v-488h-41q-15 0 -15 15v488zM181 708q8 0 11.5 -4.5t-1.5 -12.5l-80 -116h-31q-7 0 -10 4t0 11q14 32 28.5 60.5t29.5 57.5h53z" />
    <glyph glyph-name="icircumflex" unicode="&#xee;" horiz-adv-x="196" 
d="M70 503h41q15 0 15 -15v-488h-41q-15 0 -15 15v488zM174 575q-13 0 -23 14l-51 74l-61 -88h-33q-7 0 -9.5 3.5t2.5 11.5q17 28 33.5 55t42.5 63h37q8 0 11.5 -1t8.5 -8q17 -25 37 -56.5t40 -67.5h-35z" />
    <glyph glyph-name="idieresis" unicode="&#xef;" horiz-adv-x="196" 
d="M70 503h41q15 0 15 -15v-488h-41q-15 0 -15 15v488zM-23 641q0 22 9.5 31t30.5 9q20 0 30 -9t10 -31t-10 -31t-30 -9q-21 0 -30.5 9t-9.5 31zM143 641q0 22 9.5 31t30.5 9q20 0 30 -9t10 -31t-10 -31t-30 -9q-21 0 -30.5 9t-9.5 31z" />
    <glyph glyph-name="eth" unicode="&#xf0;" horiz-adv-x="514" 
d="M402 270q0 42 -3.5 79.5t-11.5 66.5q-34 19 -64 27t-72 8q-41 0 -68 -15.5t-42.5 -42.5t-22 -64t-6.5 -81q0 -38 5 -75.5t20.5 -67.5t44 -49t75.5 -19q54 0 83 23.5t43 58.5t16.5 75.5t2.5 75.5zM181 575q-16 -6 -21 8l-9 25l97 37q-37 36 -82 73h56q8 0 12.5 -1.5
t15.5 -10.5q13 -11 24.5 -21t22.5 -21l103 40q16 6 21 -8l9 -25l-101 -39q29 -32 52.5 -68.5t40.5 -80t26.5 -96.5t9.5 -117q0 -53 -7 -103.5t-28 -90t-60.5 -64t-105.5 -24.5t-105.5 24.5t-61 62t-28.5 83.5t-7 90q0 122 46 187t146 65q38 0 70 -9t54 -20q-14 38 -39.5 76
t-51.5 66z" />
    <glyph glyph-name="ntilde" unicode="&#xf1;" horiz-adv-x="512" 
d="M122 448q10 11 26 23t37 21.5t47 16t57 6.5q73 0 116 -41.5t43 -133.5v-340h-41q-15 0 -15 15v323q0 69 -31.5 98.5t-83.5 29.5q-27 0 -50.5 -6.5t-43 -17t-34.5 -23t-25 -23.5v-396h-41q-15 0 -15 15v488h37q15 0 15 -15zM397 676q0 -49 -18 -71t-53 -22q-26 0 -44 11
t-35 24q-20 15 -31.5 22t-25.5 7q-11 0 -17 -6t-9 -15t-3.5 -20t-0.5 -21h-29q-8 0 -10 4t-2 9q0 49 18 71t53 22q26 0 44 -11t35 -24q20 -15 31.5 -22t25.5 -7q11 0 17 5.5t9 14.5t3.5 20t0.5 22h29q8 0 10 -4t2 -9z" />
    <glyph glyph-name="ograve" unicode="&#xf2;" horiz-adv-x="518" 
d="M259 37q37 0 64.5 11.5t46 37t27.5 66.5t9 100t-9 99.5t-27.5 66t-46 37t-64.5 11.5t-64.5 -11.5t-46 -37t-27.5 -66t-9 -99.5t9 -100t27.5 -66.5t46 -37t64.5 -11.5zM259 515q108 0 156 -64.5t48 -198.5q0 -135 -48 -199.5t-156 -64.5t-156 64.5t-48 199.5
q0 134 48 198.5t156 64.5zM241 693q13 -28 25 -56t26 -62h-34q-14 0 -22 14l-76 119h61q14 0 20 -15z" />
    <glyph glyph-name="oacute" unicode="&#xf3;" horiz-adv-x="518" 
d="M259 37q37 0 64.5 11.5t46 37t27.5 66.5t9 100t-9 99.5t-27.5 66t-46 37t-64.5 11.5t-64.5 -11.5t-46 -37t-27.5 -66t-9 -99.5t9 -100t27.5 -66.5t46 -37t64.5 -11.5zM259 515q108 0 156 -64.5t48 -198.5q0 -135 -48 -199.5t-156 -64.5t-156 64.5t-48 199.5
q0 134 48 198.5t156 64.5zM340 708q8 0 11.5 -4.5t-1.5 -12.5l-80 -116h-31q-7 0 -10 4t0 11q14 32 28.5 60.5t29.5 57.5h53z" />
    <glyph glyph-name="ocircumflex" unicode="&#xf4;" horiz-adv-x="518" 
d="M259 37q37 0 64.5 11.5t46 37t27.5 66.5t9 100t-9 99.5t-27.5 66t-46 37t-64.5 11.5t-64.5 -11.5t-46 -37t-27.5 -66t-9 -99.5t9 -100t27.5 -66.5t46 -37t64.5 -11.5zM259 515q108 0 156 -64.5t48 -198.5q0 -135 -48 -199.5t-156 -64.5t-156 64.5t-48 199.5
q0 134 48 198.5t156 64.5zM333 575q-13 0 -23 14l-51 74l-61 -88h-33q-7 0 -9.5 3.5t2.5 11.5q17 28 33.5 55t42.5 63h37q8 0 11.5 -1t8.5 -8q17 -25 37 -56.5t40 -67.5h-35z" />
    <glyph glyph-name="otilde" unicode="&#xf5;" horiz-adv-x="518" 
d="M259 37q37 0 64.5 11.5t46 37t27.5 66.5t9 100t-9 99.5t-27.5 66t-46 37t-64.5 11.5t-64.5 -11.5t-46 -37t-27.5 -66t-9 -99.5t9 -100t27.5 -66.5t46 -37t64.5 -11.5zM259 515q108 0 156 -64.5t48 -198.5q0 -135 -48 -199.5t-156 -64.5t-156 64.5t-48 199.5
q0 134 48 198.5t156 64.5zM398 676q0 -49 -18 -71t-53 -22q-26 0 -44 11t-35 24q-20 15 -31.5 22t-25.5 7q-11 0 -17 -6t-9 -15t-3.5 -20t-0.5 -21h-29q-8 0 -10 4t-2 9q0 49 18 71t53 22q26 0 44 -11t35 -24q20 -15 31.5 -22t25.5 -7q11 0 17 5.5t9 14.5t3.5 20t0.5 22h29
q8 0 10 -4t2 -9z" />
    <glyph glyph-name="odieresis" unicode="&#xf6;" horiz-adv-x="518" 
d="M259 37q37 0 64.5 11.5t46 37t27.5 66.5t9 100t-9 99.5t-27.5 66t-46 37t-64.5 11.5t-64.5 -11.5t-46 -37t-27.5 -66t-9 -99.5t9 -100t27.5 -66.5t46 -37t64.5 -11.5zM259 515q108 0 156 -64.5t48 -198.5q0 -135 -48 -199.5t-156 -64.5t-156 64.5t-48 199.5
q0 134 48 198.5t156 64.5zM136 641q0 22 9.5 31t30.5 9q20 0 30 -9t10 -31t-10 -31t-30 -9q-21 0 -30.5 9t-9.5 31zM302 641q0 22 9.5 31t30.5 9q20 0 30 -9t10 -31t-10 -31t-30 -9q-21 0 -30.5 9t-9.5 31z" />
    <glyph glyph-name="divide" unicode="&#xf7;" 
d="M90 320q-15 0 -15 15v33h372q15 0 15 -15v-33h-372zM223 500q0 24 11 34.5t34 10.5t34.5 -10.5t11.5 -34.5t-11.5 -34t-34.5 -10q-24 0 -34.5 10t-10.5 34zM223 186q0 24 11 34.5t34 10.5t34.5 -10.5t11.5 -34.5t-11.5 -34t-34.5 -10q-24 0 -34.5 10t-10.5 34z" />
    <glyph glyph-name="oslash" unicode="&#xf8;" horiz-adv-x="518" 
d="M421 441q22 -32 32 -79t10 -110q0 -135 -48 -199.5t-156 -64.5q-86 0 -133 40l-45 -63h-35q-7 0 -9.5 5.5t2.5 12.5l57 80q-41 63 -41 189q0 134 48 198.5t156 64.5q85 0 132 -40l45 63h34q7 0 9.5 -5.5t-2.5 -12.5zM259 37q37 0 64.5 11.5t46 37t27.5 66.5t9 100
q0 89 -21 139l-227 -318q35 -36 101 -36zM112 252q0 -91 20 -138l227 316q-35 36 -100 36q-37 0 -64.5 -11.5t-46 -37t-27.5 -66t-9 -99.5z" />
    <glyph glyph-name="ugrave" unicode="&#xf9;" horiz-adv-x="512" 
d="M390 55q-11 -11 -26.5 -23t-36.5 -22t-47 -16t-57 -6q-73 0 -116 41.5t-43 133.5v340h41q15 0 15 -15v-323q0 -69 31.5 -98.5t83.5 -29.5q27 0 50.5 6.5t43 17t34.5 23t25 23.5v396h41q15 0 15 -15v-488h-37q-15 0 -15 15zM236 693q13 -28 25 -56t26 -62h-34
q-14 0 -22 14l-76 119h61q14 0 20 -15z" />
    <glyph glyph-name="uacute" unicode="&#xfa;" horiz-adv-x="512" 
d="M390 55q-11 -11 -26.5 -23t-36.5 -22t-47 -16t-57 -6q-73 0 -116 41.5t-43 133.5v340h41q15 0 15 -15v-323q0 -69 31.5 -98.5t83.5 -29.5q27 0 50.5 6.5t43 17t34.5 23t25 23.5v396h41q15 0 15 -15v-488h-37q-15 0 -15 15zM335 708q8 0 11.5 -4.5t-1.5 -12.5l-80 -116
h-31q-7 0 -10 4t0 11q14 32 28.5 60.5t29.5 57.5h53z" />
    <glyph glyph-name="ucircumflex" unicode="&#xfb;" horiz-adv-x="512" 
d="M390 55q-11 -11 -26.5 -23t-36.5 -22t-47 -16t-57 -6q-73 0 -116 41.5t-43 133.5v340h41q15 0 15 -15v-323q0 -69 31.5 -98.5t83.5 -29.5q27 0 50.5 6.5t43 17t34.5 23t25 23.5v396h41q15 0 15 -15v-488h-37q-15 0 -15 15zM328 575q-13 0 -23 14l-51 74l-61 -88h-33
q-7 0 -9.5 3.5t2.5 11.5q17 28 33.5 55t42.5 63h37q8 0 11.5 -1t8.5 -8q17 -25 37 -56.5t40 -67.5h-35z" />
    <glyph glyph-name="udieresis" unicode="&#xfc;" horiz-adv-x="512" 
d="M390 55q-11 -11 -26.5 -23t-36.5 -22t-47 -16t-57 -6q-73 0 -116 41.5t-43 133.5v340h41q15 0 15 -15v-323q0 -69 31.5 -98.5t83.5 -29.5q27 0 50.5 6.5t43 17t34.5 23t25 23.5v396h41q15 0 15 -15v-488h-37q-15 0 -15 15zM131 641q0 22 9.5 31t30.5 9q20 0 30 -9t10 -31
t-10 -31t-30 -9q-21 0 -30.5 9t-9.5 31zM297 641q0 22 9.5 31t30.5 9q20 0 30 -9t10 -31t-10 -31t-30 -9q-21 0 -30.5 9t-9.5 31z" />
    <glyph glyph-name="yacute" unicode="&#xfd;" horiz-adv-x="456" 
d="M240 58q48 99 79 209t49 236h40q9 0 12 -4t2 -11q-17 -119 -53.5 -236t-90.5 -226q-24 -48 -46 -85t-44.5 -62.5t-48 -39t-56.5 -13.5q-23 0 -36 6q-10 6 -10 18v24q10 -1 18 -1h16q23 0 41 8t33.5 24.5t31 41.5t33.5 59q-32 55 -61.5 117t-54 126.5t-42 129t-24.5 124.5
h43q10 0 13 -3.5t4 -11.5q8 -57 23.5 -114.5t36 -112.5t44 -106.5t48.5 -96.5zM309 708q8 0 11.5 -4.5t-1.5 -12.5l-80 -116h-31q-7 0 -10 4t0 11q14 32 28.5 60.5t29.5 57.5h53z" />
    <glyph glyph-name="thorn" unicode="&#xfe;" horiz-adv-x="510" 
d="M124 71q26 -12 55.5 -20.5t67.5 -8.5t66.5 10t47 34.5t28 65t9.5 102.5q0 114 -34 163t-101 49q-47 0 -80.5 -15t-58.5 -34v-346zM124 -170h-41q-15 0 -15 15v873h31q14 0 19.5 -5t5.5 -20v-225q27 19 62.5 33t86.5 14q91 0 136.5 -65t45.5 -192q0 -64 -10 -113.5
t-33.5 -83t-62 -51t-95.5 -17.5q-50 0 -81.5 11t-48.5 19v-193z" />
    <glyph glyph-name="ydieresis" unicode="&#xff;" horiz-adv-x="456" 
d="M240 58q48 99 79 209t49 236h40q9 0 12 -4t2 -11q-17 -119 -53.5 -236t-90.5 -226q-24 -48 -46 -85t-44.5 -62.5t-48 -39t-56.5 -13.5q-23 0 -36 6q-10 6 -10 18v24q10 -1 18 -1h16q23 0 41 8t33.5 24.5t31 41.5t33.5 59q-32 55 -61.5 117t-54 126.5t-42 129t-24.5 124.5
h43q10 0 13 -3.5t4 -11.5q8 -57 23.5 -114.5t36 -112.5t44 -106.5t48.5 -96.5zM105 641q0 22 9.5 31t30.5 9q20 0 30 -9t10 -31t-10 -31t-30 -9q-21 0 -30.5 9t-9.5 31zM271 641q0 22 9.5 31t30.5 9q20 0 30 -9t10 -31t-10 -31t-30 -9q-21 0 -30.5 9t-9.5 31z" />
    <glyph glyph-name="Amacron" unicode="&#x100;" horiz-adv-x="537" 
d="M445 15q-8 48 -18 97.5t-22 101.5h-276q-13 -54 -23.5 -107t-19.5 -107h-40q-17 0 -15 15q20 121 48 228.5t57 195t56 153t46 101.5h48q7 0 11.5 -2t9.5 -12q19 -41 46.5 -109t55.5 -156.5t54 -193.5t44 -220h-46q-13 0 -16 15zM267 635q-39 -89 -70 -181t-56 -189h251
q-24 95 -55.5 188.5t-69.5 181.5zM168 783q-15 0 -15 15v33h215q15 0 15 -15v-33h-215z" />
    <glyph glyph-name="amacron" unicode="&#x101;" horiz-adv-x="484" 
d="M364 261h-133q-39 0 -65 -9t-41 -24.5t-21 -36t-6 -42.5q0 -61 31 -86.5t83 -25.5q51 0 88.5 21.5t63.5 47.5v155zM366 55q-12 -12 -29 -23.5t-37.5 -20.5t-44 -15t-49.5 -6q-83 0 -122 42t-39 116q0 85 48.5 122t139.5 37h131v39q0 33 -7 56t-23.5 36.5t-43 19.5
t-65.5 6q-46 0 -82.5 -6t-49.5 -6q-16 0 -16 17v24q39 11 81 15t78 4q55 0 91 -12.5t56.5 -35t28.5 -53t8 -67.5v-344h-37q-15 0 -15 15zM138 616q-15 0 -15 15v33h215q15 0 15 -15v-33h-215z" />
    <glyph glyph-name="Abreve" unicode="&#x102;" horiz-adv-x="537" 
d="M445 15q-8 48 -18 97.5t-22 101.5h-276q-13 -54 -23.5 -107t-19.5 -107h-40q-17 0 -15 15q20 121 48 228.5t57 195t56 153t46 101.5h48q7 0 11.5 -2t9.5 -12q19 -41 46.5 -109t55.5 -156.5t54 -193.5t44 -220h-46q-13 0 -16 15zM267 635q-39 -89 -70 -181t-56 -189h251
q-24 95 -55.5 188.5t-69.5 181.5zM194 866q8 0 10 -4t3 -10q5 -35 20 -47t41 -12q12 0 23 2.5t19.5 10.5t13.5 22.5t7 37.5h32q13 0 11 -14q-6 -60 -35 -81.5t-71 -21.5q-21 0 -39.5 5t-33 18t-23.5 35.5t-11 58.5h33z" />
    <glyph glyph-name="abreve" unicode="&#x103;" horiz-adv-x="484" 
d="M364 261h-133q-39 0 -65 -9t-41 -24.5t-21 -36t-6 -42.5q0 -61 31 -86.5t83 -25.5q51 0 88.5 21.5t63.5 47.5v155zM366 55q-12 -12 -29 -23.5t-37.5 -20.5t-44 -15t-49.5 -6q-83 0 -122 42t-39 116q0 85 48.5 122t139.5 37h131v39q0 33 -7 56t-23.5 36.5t-43 19.5
t-65.5 6q-46 0 -82.5 -6t-49.5 -6q-16 0 -16 17v24q39 11 81 15t78 4q55 0 91 -12.5t56.5 -35t28.5 -53t8 -67.5v-344h-37q-15 0 -15 15zM163 695q8 0 10.5 -2.5t3.5 -11.5q5 -35 20 -47t41 -12q12 0 23 2.5t19.5 10.5t13.5 22.5t7 37.5h32q12 0 11 -14q-6 -60 -35 -81.5
t-71 -21.5q-21 0 -39.5 5t-33 18t-23.5 35.5t-11 58.5h32z" />
    <glyph glyph-name="Aogonek" unicode="&#x104;" horiz-adv-x="537" 
d="M507 0q-41 -32 -60.5 -56t-19.5 -45q0 -19 10 -25t27 -6q11 0 20 1.5t13 1.5q7 0 9.5 -3t2.5 -9v-25q-10 -3 -23 -5.5t-27 -2.5q-35 0 -59 14t-24 53q0 31 23 57t50 51q-11 61 -21.5 111t-21.5 96h-278q-24 -100 -42 -208h-39q-17 0 -15 15q20 121 47.5 228.5t57 195
t56.5 153t46 101.5h46q7 0 11.5 -2t9.5 -12q19 -41 46.5 -109t56 -156.5t54.5 -193.5t44 -220zM267 635q-26 -62 -59.5 -157t-65.5 -216h251q-32 121 -65.5 216t-60.5 157z" />
    <glyph glyph-name="aogonek" unicode="&#x105;" horiz-adv-x="484" 
d="M364 261h-133q-39 0 -65 -9t-41 -24.5t-21 -36t-6 -42.5q0 -61 31 -86.5t83 -25.5q51 0 88.5 21.5t63.5 47.5v155zM420 1q-41 -38 -59 -59.5t-18 -42.5q0 -19 10 -25t27 -6q11 0 20 1.5t13 1.5q7 0 9.5 -3.5t2.5 -8.5v-25q-10 -3 -23 -5.5t-27 -2.5q-35 0 -59 14t-24 53
q0 31 23.5 57.5t54.5 54.5l-4 50q-12 -12 -29 -23.5t-37.5 -20.5t-44 -15t-49.5 -6q-83 0 -122 42t-39 116q0 85 48.5 122t139.5 37h131v39q0 33 -7 56t-23.5 36.5t-43 19.5t-65.5 6q-46 0 -82.5 -6t-49.5 -6q-16 0 -16 17v24q39 11 81 15t78 4q55 0 91 -12.5t56.5 -35
t28.5 -53t8 -67.5v-343z" />
    <glyph glyph-name="Cacute" unicode="&#x106;" horiz-adv-x="503" 
d="M316 647q-54 0 -91 -15t-60 -49.5t-33 -91t-10 -140.5q0 -97 13 -157t38 -93t62 -44.5t85 -11.5q49 0 82 7t49 7q17 0 17 -16v-27q-25 -9 -66 -17t-89 -8q-73 0 -121.5 22.5t-77.5 67.5t-41 111.5t-12 153.5q0 93 13.5 160t43 110.5t77 64t115.5 20.5q18 0 37.5 -1.5
t38 -4t35 -6t27.5 -7.5q14 -5 14 -21v-29q-28 5 -68 10t-78 5zM376 869q6 0 10.5 -4.5t-0.5 -12.5l-88 -107h-32q-6 0 -10 3.5t0 11.5q14 29 30 56t34 53h56z" />
    <glyph glyph-name="cacute" unicode="&#x107;" horiz-adv-x="413" 
d="M378 10q-22 -8 -59.5 -13.5t-69.5 -5.5q-55 0 -92.5 18.5t-60 52.5t-32 81.5t-9.5 105.5q0 140 49 201.5t145 61.5q15 0 32.5 -1.5t33 -3.5t28 -4.5t18.5 -5.5q13 -5 13 -18v-28q-32 5 -60.5 8.5t-57.5 3.5q-36 0 -63 -10.5t-45 -34.5t-27 -64.5t-9 -100.5
q0 -66 10.5 -107.5t29.5 -65t46 -32t59 -8.5q36 0 64.5 5.5t40.5 5.5q9 0 12.5 -5t3.5 -10v-26zM318 708q8 0 11.5 -4.5t-1.5 -12.5l-80 -116h-31q-7 0 -10 4t0 11q14 32 28.5 60.5t29.5 57.5h53z" />
    <glyph glyph-name="Ccircumflex" unicode="&#x108;" horiz-adv-x="503" 
d="M316 647q-54 0 -91 -15t-60 -49.5t-33 -91t-10 -140.5q0 -97 13 -157t38 -93t62 -44.5t85 -11.5q49 0 82 7t49 7q17 0 17 -16v-27q-25 -9 -66 -17t-89 -8q-73 0 -121.5 22.5t-77.5 67.5t-41 111.5t-12 153.5q0 93 13.5 160t43 110.5t77 64t115.5 20.5q18 0 37.5 -1.5
t38 -4t35 -6t27.5 -7.5q14 -5 14 -21v-29q-28 5 -68 10t-78 5zM366 745q-8 0 -12.5 3t-10.5 11l-52 64l-64 -78h-33q-7 0 -10 4t2 12q17 27 37.5 54.5t40.5 53.5h41q8 0 11.5 -1t8.5 -8q16 -21 35.5 -48.5t43.5 -66.5h-38z" />
    <glyph glyph-name="ccircumflex" unicode="&#x109;" horiz-adv-x="413" 
d="M378 10q-22 -8 -59.5 -13.5t-69.5 -5.5q-55 0 -92.5 18.5t-60 52.5t-32 81.5t-9.5 105.5q0 140 49 201.5t145 61.5q15 0 32.5 -1.5t33 -3.5t28 -4.5t18.5 -5.5q13 -5 13 -18v-28q-32 5 -60.5 8.5t-57.5 3.5q-36 0 -63 -10.5t-45 -34.5t-27 -64.5t-9 -100.5
q0 -66 10.5 -107.5t29.5 -65t46 -32t59 -8.5q36 0 64.5 5.5t40.5 5.5q9 0 12.5 -5t3.5 -10v-26zM311 575q-13 0 -23 14l-51 74l-61 -88h-33q-7 0 -9.5 3.5t2.5 11.5q17 28 33.5 55t42.5 63h37q8 0 11.5 -1t8.5 -8q17 -25 37 -56.5t40 -67.5h-35z" />
    <glyph glyph-name="Cdotaccent" unicode="&#x10a;" horiz-adv-x="503" 
d="M316 647q-54 0 -91 -15t-60 -49.5t-33 -91t-10 -140.5q0 -97 13 -157t38 -93t62 -44.5t85 -11.5q49 0 82 7t49 7q17 0 17 -16v-27q-25 -9 -66 -17t-89 -8q-73 0 -121.5 22.5t-77.5 67.5t-41 111.5t-12 153.5q0 93 13.5 160t43 110.5t77 64t115.5 20.5q18 0 37.5 -1.5
t38 -4t35 -6t27.5 -7.5q14 -5 14 -21v-29q-28 5 -68 10t-78 5zM291 769q-21 0 -31 9t-10 32t10 32t31 9t31 -9t10 -32t-10 -32t-31 -9z" />
    <glyph glyph-name="cdotaccent" unicode="&#x10b;" horiz-adv-x="413" 
d="M378 10q-22 -8 -59.5 -13.5t-69.5 -5.5q-55 0 -92.5 18.5t-60 52.5t-32 81.5t-9.5 105.5q0 140 49 201.5t145 61.5q15 0 32.5 -1.5t33 -3.5t28 -4.5t18.5 -5.5q13 -5 13 -18v-28q-32 5 -60.5 8.5t-57.5 3.5q-36 0 -63 -10.5t-45 -34.5t-27 -64.5t-9 -100.5
q0 -66 10.5 -107.5t29.5 -65t46 -32t59 -8.5q36 0 64.5 5.5t40.5 5.5q9 0 12.5 -5t3.5 -10v-26zM237 601q-21 0 -31 9t-10 32t10 32t31 9t31 -9t10 -32t-10 -32t-31 -9z" />
    <glyph glyph-name="Ccaron" unicode="&#x10c;" horiz-adv-x="503" 
d="M316 647q-54 0 -91 -15t-60 -49.5t-33 -91t-10 -140.5q0 -97 13 -157t38 -93t62 -44.5t85 -11.5q49 0 82 7t49 7q17 0 17 -16v-27q-25 -9 -66 -17t-89 -8q-73 0 -121.5 22.5t-77.5 67.5t-41 111.5t-12 153.5q0 93 13.5 160t43 110.5t77 64t115.5 20.5q18 0 37.5 -1.5
t38 -4t35 -6t27.5 -7.5q14 -5 14 -21v-29q-28 5 -68 10t-78 5zM216 869q8 0 12.5 -3t10.5 -11l52 -64l64 78h33q7 0 10 -4t-2 -12q-17 -27 -37.5 -54.5t-40.5 -53.5h-41q-8 0 -11.5 1t-8.5 8q-16 21 -35.5 48.5t-43.5 66.5h38z" />
    <glyph glyph-name="ccaron" unicode="&#x10d;" horiz-adv-x="413" 
d="M378 10q-22 -8 -59.5 -13.5t-69.5 -5.5q-55 0 -92.5 18.5t-60 52.5t-32 81.5t-9.5 105.5q0 140 49 201.5t145 61.5q15 0 32.5 -1.5t33 -3.5t28 -4.5t18.5 -5.5q13 -5 13 -18v-28q-32 5 -60.5 8.5t-57.5 3.5q-36 0 -63 -10.5t-45 -34.5t-27 -64.5t-9 -100.5
q0 -66 10.5 -107.5t29.5 -65t46 -32t59 -8.5q36 0 64.5 5.5t40.5 5.5q9 0 12.5 -5t3.5 -10v-26zM163 708q13 0 23 -14l51 -74l61 88h31q7 0 10.5 -3.5t-1.5 -11.5q-17 -28 -33.5 -55t-42.5 -63h-37q-8 0 -11.5 1t-8.5 8q-17 25 -37 56.5t-40 67.5h35z" />
    <glyph glyph-name="Dcaron" unicode="&#x10e;" horiz-adv-x="596" 
d="M278 646q-42 0 -79.5 -2.5t-63.5 -7.5v-584h134q48 0 86.5 11t64.5 43t40 89.5t14 150.5q0 87 -10.5 144.5t-34 92t-61 49t-90.5 14.5zM77 681q19 3 44.5 6t53.5 5.5t56.5 4t52.5 1.5q69 0 117 -21t77.5 -64.5t43 -109.5t13.5 -157q0 -86 -13.5 -151t-44 -108.5t-79 -65
t-118.5 -21.5h-188q-15 0 -15 15v666zM187 869q8 0 12.5 -3t10.5 -11l52 -64l64 78h33q7 0 10 -4t-2 -12q-17 -27 -37.5 -54.5t-40.5 -53.5h-41q-8 0 -11.5 1t-8.5 8q-16 21 -35.5 48.5t-43.5 66.5h38z" />
    <glyph glyph-name="dcaron" unicode="&#x10f;" horiz-adv-x="553" 
d="M386 438q-26 12 -54.5 20t-66.5 8q-41 0 -70 -11.5t-47.5 -37t-27 -66t-8.5 -98.5q0 -107 27 -160.5t102 -53.5q27 0 49 6.5t40 16.5t32 22t24 23v331zM405 0q-15 0 -15 15l-2 40q-24 -24 -61.5 -44.5t-95.5 -20.5q-51 0 -85 19.5t-54.5 54t-28.5 82.5t-8 106
q0 141 52 202t151 61q50 0 80.5 -11t47.5 -19v233h41q15 0 15 -15v-703h-37zM519 560q-13 0 -13 13v145h44q16 0 16 -13q0 -7 -2 -23.5t-5 -37.5t-7 -43.5t-8 -40.5h-25z" />
    <glyph glyph-name="Dcroat" unicode="&#x110;" horiz-adv-x="623" 
d="M104 333h-66q-15 0 -15 15v33h81v300q19 3 44.5 6t53.5 5.5t56.5 4t52.5 1.5q69 0 117 -21t77.5 -64.5t43 -109.5t13.5 -157q0 -86 -13.5 -151t-44 -108.5t-79 -65t-118.5 -21.5h-188q-15 0 -15 15v318zM162 333v-281h134q48 0 86.5 11t64.5 43t40 89.5t14 150.5
q0 87 -10.5 144.5t-34 92t-61 49t-90.5 14.5q-42 0 -79.5 -2.5t-63.5 -7.5v-255h127q15 0 15 -15v-33h-142z" />
    <glyph glyph-name="dcroat" unicode="&#x111;" horiz-adv-x="510" 
d="M405 0q-15 0 -15 15l-2 40q-24 -24 -61.5 -44.5t-95.5 -20.5q-51 0 -85 19t-54.5 53.5t-28.5 82.5t-8 105q0 138 52 198.5t151 60.5q50 0 80.5 -11t47.5 -19v110h-111q-15 0 -15 15v30h126v84h41q15 0 15 -15v-69h41q15 0 15 -15v-30h-56v-589h-37zM386 432
q-26 12 -54.5 20t-66.5 8q-41 0 -70 -11.5t-47.5 -36.5t-27 -64.5t-8.5 -96.5q0 -106 27 -159t102 -53q27 0 49 6.5t40 16.5t32 22t24 23v325z" />
    <glyph glyph-name="Emacron" unicode="&#x112;" horiz-adv-x="509" 
d="M455 641h-320v-267h281q15 0 15 -15v-37h-296v-270h317q15 0 15 -15v-37h-375q-15 0 -15 15v678h363q15 0 15 -15v-37zM176 783q-15 0 -15 15v33h215q15 0 15 -15v-33h-215z" />
    <glyph glyph-name="emacron" unicode="&#x113;" horiz-adv-x="489" 
d="M256 466q-42 0 -69.5 -14t-44 -39.5t-23.5 -60t-8 -75.5h269q1 7 1 13.5v12.5q0 40 -5 71t-19 51t-38 30.5t-63 10.5zM272 -9q-56 0 -97 13.5t-67.5 44t-39.5 80t-13 120.5q0 73 13 123.5t38.5 82t63 46t86.5 14.5q55 0 90.5 -16.5t55 -45t27 -67.5t7.5 -84q0 -20 -2 -40
t-5 -32h-318q3 -51 11 -87t26.5 -59t50.5 -33.5t82 -10.5q49 0 78.5 5.5t41.5 5.5q9 0 12.5 -5t3.5 -10v-26q-22 -8 -61.5 -13t-83.5 -6zM146 616q-15 0 -15 15v33h215q15 0 15 -15v-33h-215z" />
    <glyph glyph-name="Ebreve" unicode="&#x114;" horiz-adv-x="509" 
d="M455 641h-320v-267h281q15 0 15 -15v-37h-296v-270h317q15 0 15 -15v-37h-375q-15 0 -15 15v678h363q15 0 15 -15v-37zM192 866q8 0 10 -4t3 -10q5 -35 20 -47t41 -12q12 0 23 2.5t19.5 10.5t13.5 22.5t7 37.5h32q13 0 11 -14q-6 -60 -35 -81.5t-71 -21.5q-21 0 -39.5 5
t-33 18t-23.5 35.5t-11 58.5h33z" />
    <glyph glyph-name="ebreve" unicode="&#x115;" horiz-adv-x="489" 
d="M256 466q-42 0 -69.5 -14t-44 -39.5t-23.5 -60t-8 -75.5h269q1 7 1 13.5v12.5q0 40 -5 71t-19 51t-38 30.5t-63 10.5zM272 -9q-56 0 -97 13.5t-67.5 44t-39.5 80t-13 120.5q0 73 13 123.5t38.5 82t63 46t86.5 14.5q55 0 90.5 -16.5t55 -45t27 -67.5t7.5 -84q0 -20 -2 -40
t-5 -32h-318q3 -51 11 -87t26.5 -59t50.5 -33.5t82 -10.5q49 0 78.5 5.5t41.5 5.5q9 0 12.5 -5t3.5 -10v-26q-22 -8 -61.5 -13t-83.5 -6zM171 695q8 0 10.5 -2.5t3.5 -11.5q5 -35 20 -47t41 -12q12 0 23 2.5t19.5 10.5t13.5 22.5t7 37.5h32q12 0 11 -14q-6 -60 -35 -81.5
t-71 -21.5q-21 0 -39.5 5t-33 18t-23.5 35.5t-11 58.5h32z" />
    <glyph glyph-name="Edotaccent" unicode="&#x116;" horiz-adv-x="509" 
d="M455 641h-320v-267h281q15 0 15 -15v-37h-296v-270h317q15 0 15 -15v-37h-375q-15 0 -15 15v678h363q15 0 15 -15v-37zM266 768q-21 0 -31 9t-10 32t10 32t31 9t31 -9t10 -32t-10 -32t-31 -9z" />
    <glyph glyph-name="edotaccent" unicode="&#x117;" horiz-adv-x="489" 
d="M256 466q-42 0 -69.5 -14t-44 -39.5t-23.5 -60t-8 -75.5h269q1 7 1 13.5v12.5q0 40 -5 71t-19 51t-38 30.5t-63 10.5zM272 -9q-56 0 -97 13.5t-67.5 44t-39.5 80t-13 120.5q0 73 13 123.5t38.5 82t63 46t86.5 14.5q55 0 90.5 -16.5t55 -45t27 -67.5t7.5 -84q0 -20 -2 -40
t-5 -32h-318q3 -51 11 -87t26.5 -59t50.5 -33.5t82 -10.5q49 0 78.5 5.5t41.5 5.5q9 0 12.5 -5t3.5 -10v-26q-22 -8 -61.5 -13t-83.5 -6zM246 601q-21 0 -31 9t-10 32t10 32t31 9t31 -9t10 -32t-10 -32t-31 -9z" />
    <glyph glyph-name="Eogonek" unicode="&#x118;" horiz-adv-x="509" 
d="M422 -174q-35 0 -59 14t-24 53q0 31 22.5 57t49.5 50h-319q-15 0 -15 15v678h363q15 0 15 -15v-37h-320v-267h281q15 0 15 -15v-37h-296v-270h317q15 0 15 -15v-36q-41 -38 -59 -59.5t-18 -42.5q0 -19 10 -25t27 -6q11 0 20 1.5t13 1.5q7 0 9.5 -3.5t2.5 -8.5v-25
q-10 -3 -23 -5.5t-27 -2.5z" />
    <glyph glyph-name="eogonek" unicode="&#x119;" horiz-adv-x="489" 
d="M366 -174q-35 0 -59 14t-24 53q0 29 21.5 55t46.5 49q-18 -2 -41 -4t-38 -2q-56 0 -97 13.5t-67.5 44t-39.5 80t-13 120.5q0 73 13 123.5t38.5 82t63 46t86.5 14.5q55 0 90.5 -16.5t55 -45t27 -67.5t7.5 -84q0 -20 -2 -40t-5 -32h-318q3 -51 11 -87t26.5 -59t50.5 -33.5
t82 -10.5q49 0 78.5 5.5t41.5 5.5q9 0 12.5 -5t3.5 -10v-26q-46 -44 -64.5 -67t-18.5 -44q0 -19 10 -25t27 -6q11 0 20 1.5t13 1.5q7 0 9.5 -3.5t2.5 -8.5v-25q-10 -3 -23 -5.5t-27 -2.5zM256 466q-42 0 -69.5 -14t-44 -39.5t-23.5 -60t-8 -75.5h269q1 7 1 13.5v12.5
q0 40 -5 71t-19 51t-38 30.5t-63 10.5z" />
    <glyph glyph-name="Ecaron" unicode="&#x11a;" horiz-adv-x="509" 
d="M455 641h-320v-267h281q15 0 15 -15v-37h-296v-270h317q15 0 15 -15v-37h-375q-15 0 -15 15v678h363q15 0 15 -15v-37zM191 869q8 0 12.5 -3t10.5 -11l52 -64l64 78h33q7 0 10 -4t-2 -12q-17 -27 -37.5 -54.5t-40.5 -53.5h-41q-8 0 -11.5 1t-8.5 8q-16 21 -35.5 48.5
t-43.5 66.5h38z" />
    <glyph glyph-name="ecaron" unicode="&#x11b;" horiz-adv-x="489" 
d="M256 466q-42 0 -69.5 -14t-44 -39.5t-23.5 -60t-8 -75.5h269q1 7 1 13.5v12.5q0 40 -5 71t-19 51t-38 30.5t-63 10.5zM272 -9q-56 0 -97 13.5t-67.5 44t-39.5 80t-13 120.5q0 73 13 123.5t38.5 82t63 46t86.5 14.5q55 0 90.5 -16.5t55 -45t27 -67.5t7.5 -84q0 -20 -2 -40
t-5 -32h-318q3 -51 11 -87t26.5 -59t50.5 -33.5t82 -10.5q49 0 78.5 5.5t41.5 5.5q9 0 12.5 -5t3.5 -10v-26q-22 -8 -61.5 -13t-83.5 -6zM172 708q13 0 23 -14l51 -74l61 88h31q7 0 10.5 -3.5t-1.5 -11.5q-17 -28 -33.5 -55t-42.5 -63h-37q-8 0 -11.5 1t-8.5 8
q-17 25 -37 56.5t-40 67.5h35z" />
    <glyph glyph-name="Gcircumflex" unicode="&#x11c;" horiz-adv-x="570" 
d="M333 647q-59 0 -99 -14.5t-65 -48.5t-36 -91t-11 -142q0 -98 14 -158t42 -93t69.5 -44t97.5 -11q32 0 59.5 2.5t47.5 6.5v240h-120q-15 0 -15 15v37h177q15 0 15 -15v-314q-35 -12 -78.5 -19t-91.5 -7q-81 0 -135 22t-85.5 66.5t-44.5 110.5t-13 155q0 94 14.5 161.5
t46.5 111t83 63.5t124 20q41 0 81.5 -5.5t63.5 -13.5q14 -5 14 -21v-29q-28 5 -69 10t-86 5zM379 745q-8 0 -12.5 3t-10.5 11l-52 64l-64 -78h-33q-7 0 -10 4t2 12q17 27 37.5 54.5t40.5 53.5h41q8 0 11.5 -1t8.5 -8q16 -21 35.5 -48.5t43.5 -66.5h-38z" />
    <glyph glyph-name="gcircumflex" unicode="&#x11d;" horiz-adv-x="509" 
d="M249 -177q-35 0 -73.5 3.5t-72.5 13.5q-13 4 -13 19v28q33 -6 69 -10.5t82 -4.5q40 0 67 8t43 24t22.5 38t6.5 51v58q-26 -18 -60.5 -33.5t-82.5 -15.5q-95 0 -138.5 62t-43.5 185q0 78 15.5 129t45.5 80t72.5 40.5t96.5 11.5q18 0 41.5 -1t46.5 -3t42.5 -4.5t31.5 -4.5
q13 -3 17 -7.5t4 -13.5v-23h-32v-460q0 -80 -45 -125t-142 -45zM276 462q-38 0 -68.5 -8.5t-51.5 -31.5t-32.5 -64t-11.5 -107q0 -109 32 -154.5t105 -45.5q40 0 75 16t56 33v358q-22 2 -47 3t-57 1zM341 575q-13 0 -23 14l-51 74l-61 -88h-33q-7 0 -9.5 3.5t2.5 11.5
q17 28 33.5 55t42.5 63h37q8 0 11.5 -1t8.5 -8q17 -25 37 -56.5t40 -67.5h-35z" />
    <glyph glyph-name="Gbreve" unicode="&#x11e;" horiz-adv-x="570" 
d="M333 647q-59 0 -99 -14.5t-65 -48.5t-36 -91t-11 -142q0 -98 14 -158t42 -93t69.5 -44t97.5 -11q32 0 59.5 2.5t47.5 6.5v240h-120q-15 0 -15 15v37h177q15 0 15 -15v-314q-35 -12 -78.5 -19t-91.5 -7q-81 0 -135 22t-85.5 66.5t-44.5 110.5t-13 155q0 94 14.5 161.5
t46.5 111t83 63.5t124 20q41 0 81.5 -5.5t63.5 -13.5q14 -5 14 -21v-29q-28 5 -69 10t-86 5zM230 866q8 0 10 -4t3 -10q5 -35 20 -47t41 -12q12 0 23 2.5t19.5 10.5t13.5 22.5t7 37.5h32q13 0 11 -14q-6 -60 -35 -81.5t-71 -21.5q-21 0 -39.5 5t-33 18t-23.5 35.5t-11 58.5
h33z" />
    <glyph glyph-name="gbreve" unicode="&#x11f;" horiz-adv-x="509" 
d="M249 -177q-35 0 -73.5 3.5t-72.5 13.5q-13 4 -13 19v28q33 -6 69 -10.5t82 -4.5q40 0 67 8t43 24t22.5 38t6.5 51v58q-26 -18 -60.5 -33.5t-82.5 -15.5q-95 0 -138.5 62t-43.5 185q0 78 15.5 129t45.5 80t72.5 40.5t96.5 11.5q18 0 41.5 -1t46.5 -3t42.5 -4.5t31.5 -4.5
q13 -3 17 -7.5t4 -13.5v-23h-32v-460q0 -80 -45 -125t-142 -45zM276 462q-38 0 -68.5 -8.5t-51.5 -31.5t-32.5 -64t-11.5 -107q0 -109 32 -154.5t105 -45.5q40 0 75 16t56 33v358q-22 2 -47 3t-57 1zM192 695q8 0 10.5 -2.5t3.5 -11.5q5 -35 20 -47t41 -12q12 0 23 2.5
t19.5 10.5t13.5 22.5t7 37.5h32q12 0 11 -14q-6 -60 -35 -81.5t-71 -21.5q-21 0 -39.5 5t-33 18t-23.5 35.5t-11 58.5h32z" />
    <glyph glyph-name="Gdotaccent" unicode="&#x120;" horiz-adv-x="570" 
d="M333 647q-59 0 -99 -14.5t-65 -48.5t-36 -91t-11 -142q0 -98 14 -158t42 -93t69.5 -44t97.5 -11q32 0 59.5 2.5t47.5 6.5v240h-120q-15 0 -15 15v37h177q15 0 15 -15v-314q-35 -12 -78.5 -19t-91.5 -7q-81 0 -135 22t-85.5 66.5t-44.5 110.5t-13 155q0 94 14.5 161.5
t46.5 111t83 63.5t124 20q41 0 81.5 -5.5t63.5 -13.5q14 -5 14 -21v-29q-28 5 -69 10t-86 5zM304 768q-21 0 -31 9t-10 32t10 32t31 9t31 -9t10 -32t-10 -32t-31 -9z" />
    <glyph glyph-name="gdotaccent" unicode="&#x121;" horiz-adv-x="509" 
d="M249 -177q-35 0 -73.5 3.5t-72.5 13.5q-13 4 -13 19v28q33 -6 69 -10.5t82 -4.5q40 0 67 8t43 24t22.5 38t6.5 51v58q-26 -18 -60.5 -33.5t-82.5 -15.5q-95 0 -138.5 62t-43.5 185q0 78 15.5 129t45.5 80t72.5 40.5t96.5 11.5q18 0 41.5 -1t46.5 -3t42.5 -4.5t31.5 -4.5
q13 -3 17 -7.5t4 -13.5v-23h-32v-460q0 -80 -45 -125t-142 -45zM276 462q-38 0 -68.5 -8.5t-51.5 -31.5t-32.5 -64t-11.5 -107q0 -109 32 -154.5t105 -45.5q40 0 75 16t56 33v358q-22 2 -47 3t-57 1zM267 601q-21 0 -31 9t-10 32t10 32t31 9t31 -9t10 -32t-10 -32t-31 -9z
" />
    <glyph glyph-name="Gcommaaccent" unicode="&#x122;" horiz-adv-x="570" 
d="M333 647q-59 0 -99 -14.5t-65 -48.5t-36 -91t-11 -142q0 -98 14 -158t42 -93t69.5 -44t97.5 -11q32 0 59.5 2.5t47.5 6.5v240h-120q-15 0 -15 15v37h177q15 0 15 -15v-314q-35 -12 -78.5 -19t-91.5 -7q-81 0 -135 22t-85.5 66.5t-44.5 110.5t-13 155q0 94 14.5 161.5
t46.5 111t83 63.5t124 20q41 0 81.5 -5.5t63.5 -13.5q14 -5 14 -21v-29q-28 5 -69 10t-86 5zM282 -187q-10 0 -11 6t2 11l27 52q-14 4 -20 11t-6 23q0 21 10 30t30 9t30.5 -9t10.5 -30q0 -14 -5 -26t-14 -28l-29 -49h-25z" />
    <glyph glyph-name="gcommaaccent" unicode="&#x123;" horiz-adv-x="509" 
d="M249 -177q-35 0 -73.5 3.5t-72.5 13.5q-13 4 -13 19v28q33 -6 69 -10.5t82 -4.5q40 0 67 8t43 24t22.5 38t6.5 51v58q-26 -18 -60.5 -33.5t-82.5 -15.5q-95 0 -138.5 62t-43.5 185q0 78 15.5 129t45.5 80t72.5 40.5t96.5 11.5q18 0 41.5 -1t46.5 -3t42.5 -4.5t31.5 -4.5
q13 -3 17 -7.5t4 -13.5v-23h-32v-460q0 -80 -45 -125t-142 -45zM276 462q-38 0 -68.5 -8.5t-51.5 -31.5t-32.5 -64t-11.5 -107q0 -109 32 -154.5t105 -45.5q40 0 75 16t56 33v358q-22 2 -47 3t-57 1zM299 712q10 0 11 -6t-2 -11l-27 -52q14 -4 20 -11t6 -23q0 -21 -10 -30
t-30 -9t-30.5 9t-10.5 30q0 14 5 26t14 28l29 49h25z" />
    <glyph glyph-name="Hcircumflex" unicode="&#x124;" horiz-adv-x="601" 
d="M524 0h-43q-15 0 -15 15v314h-331v-329h-43q-15 0 -15 15v678h43q15 0 15 -15v-297h331v312h43q15 0 15 -15v-678zM375 745q-8 0 -12.5 3t-10.5 11l-52 64l-64 -78h-33q-7 0 -10 4t2 12q17 27 37.5 54.5t40.5 53.5h41q8 0 11.5 -1t8.5 -8q16 -21 35.5 -48.5t43.5 -66.5
h-38z" />
    <glyph glyph-name="hcircumflex" unicode="&#x125;" horiz-adv-x="512" 
d="M124 449q23 25 64 45.5t101 20.5q73 0 116 -41.5t43 -133.5v-340h-41q-15 0 -15 15v323q0 69 -31.5 98.5t-83.5 29.5q-27 0 -50.5 -6.5t-43 -17t-34.5 -23t-25 -23.5v-396h-41q-15 0 -15 15v703h41q15 0 15 -15v-254zM249 759q-14 0 -23 12l-51 61l-61 -73h-33
q-7 0 -9.5 4.5t2.5 11.5q17 25 35.5 49.5t40.5 50.5h38q8 0 11.5 -1t8.5 -7q17 -22 37 -49t41 -59h-37z" />
    <glyph glyph-name="Hbar" unicode="&#x126;" horiz-adv-x="601" 
d="M524 565h41q15 0 15 -15v-33h-56v-517h-43q-15 0 -15 15v314h-331v-329h-43q-15 0 -15 15v502h-41q-15 0 -15 15v33h56v128h43q15 0 15 -15v-113h331v128h43q15 0 15 -15v-113zM466 380v137h-331v-137h331z" />
    <glyph glyph-name="hbar" unicode="&#x127;" horiz-adv-x="512" 
d="M124 634h111q15 0 15 -15v-30h-126v-146q23 25 64 45.5t101 20.5q73 0 116 -41.5t43 -133.5v-334h-41q-15 0 -15 15v317q0 69 -31.5 98.5t-83.5 29.5q-27 0 -50.5 -6.5t-43 -17t-34.5 -23t-25 -23.5v-390h-41q-15 0 -15 15v574h-41q-15 0 -15 15v30h56v84h41q15 0 15 -15
v-69z" />
    <glyph glyph-name="Itilde" unicode="&#x128;" horiz-adv-x="212" 
d="M135 0h-43q-15 0 -15 15v678h43q15 0 15 -15v-678zM247 847q0 -49 -18 -71t-53 -22q-26 0 -44 11t-35 24q-20 15 -31.5 22t-25.5 7q-11 0 -17 -6t-9 -15t-3.5 -20t-0.5 -21h-29q-8 0 -10 4t-2 9q0 49 18 71t53 22q26 0 44 -11t35 -24q20 -15 31.5 -22t25.5 -7
q11 0 17 5.5t9 14.5t3.5 20t0.5 22h29q8 0 10 -4t2 -9z" />
    <glyph glyph-name="itilde" unicode="&#x129;" horiz-adv-x="196" 
d="M70 503h41q15 0 15 -15v-488h-41q-15 0 -15 15v488zM239 676q0 -49 -18 -71t-53 -22q-26 0 -44 11t-35 24q-20 15 -31.5 22t-25.5 7q-11 0 -17 -6t-9 -15t-3.5 -20t-0.5 -21h-29q-8 0 -10 4t-2 9q0 49 18 71t53 22q26 0 44 -11t35 -24q20 -15 31.5 -22t25.5 -7
q11 0 17 5.5t9 14.5t3.5 20t0.5 22h29q8 0 10 -4t2 -9z" />
    <glyph glyph-name="Imacron" unicode="&#x12a;" horiz-adv-x="212" 
d="M135 0h-43q-15 0 -15 15v678h43q15 0 15 -15v-678zM8 783q-15 0 -15 15v33h215q15 0 15 -15v-33h-215z" />
    <glyph glyph-name="imacron" unicode="&#x12b;" horiz-adv-x="196" 
d="M70 503h41q15 0 15 -15v-488h-41q-15 0 -15 15v488zM0 616q-15 0 -15 15v33h215q15 0 15 -15v-33h-215z" />
    <glyph glyph-name="Iogonek" unicode="&#x12e;" horiz-adv-x="212" 
d="M135 1q-20 -18 -33 -32t-20.5 -26t-10.5 -22.5t-3 -21.5q0 -19 10 -25t27 -6q11 0 20 1.5t13 1.5q7 0 9.5 -3.5t2.5 -8.5v-25q-10 -3 -23 -5.5t-27 -2.5q-35 0 -59 14t-24 53q0 30 18.5 55.5t41.5 51.5v693h43q15 0 15 -15v-677z" />
    <glyph glyph-name="iogonek" unicode="&#x12f;" horiz-adv-x="196" 
d="M98 601q-21 0 -31 9t-10 32t10 32t31 9t31 -9t10 -32t-10 -32t-31 -9zM70 503h41q15 0 15 -15v-487q-20 -18 -33 -32t-20.5 -26t-10.5 -22.5t-3 -21.5q0 -19 10 -25t27 -6q11 0 20 1.5t13 1.5q7 0 9.5 -3.5t2.5 -8.5v-25q-10 -3 -23 -5.5t-27 -2.5q-35 0 -59 14t-24 53
q0 30 19 56t43 53v501z" />
    <glyph glyph-name="Idotaccent" unicode="&#x130;" horiz-adv-x="212" 
d="M135 0h-43q-15 0 -15 15v678h43q15 0 15 -15v-678zM108 768q-21 0 -31 9t-10 32t10 32t31 9t31 -9t10 -32t-10 -32t-31 -9z" />
    <glyph glyph-name="dotlessi" unicode="&#x131;" horiz-adv-x="196" 
d="M70 503h41q15 0 15 -15v-488h-41q-15 0 -15 15v488z" />
    <glyph glyph-name="IJ" unicode="&#x132;" horiz-adv-x="571" 
d="M135 0h-43q-15 0 -15 15v678h43q15 0 15 -15v-678zM497 202q0 -42 -5.5 -79.5t-23.5 -66.5t-53 -46t-93 -17q-44 0 -72 10q-10 4 -10 16v30q17 -2 32.5 -3t38.5 -1q47 0 73 14t38 36t14.5 48.5t2.5 52.5v497h43q15 0 15 -15v-476z" />
    <glyph glyph-name="ij" unicode="&#x133;" horiz-adv-x="406" 
d="M70 503h41q15 0 15 -15v-488h-41q-15 0 -15 15v488zM336 -72q0 -19 -4.5 -37.5t-15.5 -32.5t-30 -23t-49 -9q-28 0 -41 6q-10 6 -10 18v24q10 -1 19.5 -1h19.5q34 0 44.5 14.5t10.5 40.5v575h41q15 0 15 -15v-560zM100 601q-21 0 -31 9t-10 32t10 32t31 9t31 -9t10 -32
t-10 -32t-31 -9zM308 601q-21 0 -31 9t-10 32t10 32t31 9t31 -9t10 -32t-10 -32t-31 -9z" />
    <glyph glyph-name="Jcircumflex" unicode="&#x134;" horiz-adv-x="359" 
d="M285 202q0 -42 -5.5 -79.5t-23.5 -66.5t-53 -46t-93 -17q-44 0 -72 10q-10 4 -10 16v30q17 -2 32.5 -3t38.5 -1q47 0 73 14t38 36t14.5 48.5t2.5 52.5v497h43q15 0 15 -15v-476zM331 745q-8 0 -12.5 3t-10.5 11l-52 64l-64 -78h-33q-7 0 -10 4t2 12q17 27 37.5 54.5
t40.5 53.5h41q8 0 11.5 -1t8.5 -8q16 -21 35.5 -48.5t43.5 -66.5h-38z" />
    <glyph glyph-name="jcircumflex" unicode="&#x135;" horiz-adv-x="196" 
d="M126 -72q0 -19 -4.5 -37.5t-15.5 -32.5t-30 -23t-49 -9q-28 0 -41 6q-10 6 -10 18v24q10 -1 19.5 -1h19.5q34 0 44.5 14.5t10.5 40.5v575h41q15 0 15 -15v-560zM174 575q-13 0 -23 14l-51 74l-61 -88h-33q-7 0 -9.5 3.5t2.5 11.5q17 28 33.5 55t42.5 63h37q8 0 11.5 -1
t8.5 -8q17 -25 37 -56.5t40 -67.5h-35z" />
    <glyph glyph-name="Kcommaaccent" unicode="&#x136;" 
d="M135 379q36 28 76 63.5t80.5 76t79 84.5t70.5 90h41q15 0 15 -13q0 -5 -3 -9q-42 -62 -122.5 -145t-186.5 -171q33 -23 77.5 -62t91 -87.5t90 -102t75.5 -103.5h-50q-14 0 -20 5t-10 10q-39 56 -81 104t-81.5 87t-76 69.5t-65.5 52.5v-328h-43q-15 0 -15 15v678h43
q15 0 15 -15v-299zM250 -187q-10 0 -11 6t2 11l27 52q-14 4 -20 11t-6 23q0 21 10 30t30 9t30.5 -9t10.5 -30q0 -14 -5 -26t-14 -28l-29 -49h-25z" />
    <glyph glyph-name="kcommaaccent" unicode="&#x137;" horiz-adv-x="465" 
d="M179 267q48 -35 85.5 -66t69 -62.5t59 -65t56.5 -73.5h-56q-11 0 -19 11q-45 61 -104 116.5t-146 117.5v-245h-41q-15 0 -15 15v703h41q15 0 15 -15v-416q84 54 142.5 109.5t102.5 106.5h36q14 0 14 -10q0 -7 -5.5 -14t-10.5 -13q-14 -16 -37 -39.5t-52 -50.5t-63.5 -55
t-71.5 -54zM215 -187q-10 0 -11 6t2 11l27 52q-14 4 -20 11t-6 23q0 21 10 30t30 9t30.5 -9t10.5 -30q0 -14 -5 -26t-14 -28l-29 -49h-25z" />
    <glyph glyph-name="Lacute" unicode="&#x139;" horiz-adv-x="465" 
d="M135 52h287q15 0 15 -15v-37h-345q-15 0 -15 15v678h43q15 0 15 -15v-626zM201 869q6 0 10.5 -4.5t-0.5 -12.5l-88 -107h-32q-6 0 -10 3.5t0 11.5q14 29 30 56t34 53h56z" />
    <glyph glyph-name="lacute" unicode="&#x13a;" horiz-adv-x="235" 
d="M207 3q-10 -2 -25.5 -4.5t-29.5 -2.5q-43 0 -63.5 25.5t-20.5 67.5v629h41q15 0 15 -15v-612q0 -32 11.5 -39.5t36.5 -7.5h21q8 0 11 -4.5t3 -9.5v-27zM183 875q6 0 11.5 -5t-2.5 -14l-78 -97h-32q-6 0 -10 3.5t0 11.5q14 30 29.5 55.5t28.5 45.5h53z" />
    <glyph glyph-name="Lcommaaccent" unicode="&#x13b;" horiz-adv-x="465" 
d="M135 52h287q15 0 15 -15v-37h-345q-15 0 -15 15v678h43q15 0 15 -15v-626zM225 -187q-10 0 -11 6t2 11l27 52q-14 4 -20 11t-6 23q0 21 10 30t30 9t30.5 -9t10.5 -30q0 -14 -5 -26t-14 -28l-29 -49h-25z" />
    <glyph glyph-name="lcommaaccent" unicode="&#x13c;" horiz-adv-x="235" 
d="M207 3q-10 -2 -25.5 -4.5t-29.5 -2.5q-43 0 -63.5 25.5t-20.5 67.5v629h41q15 0 15 -15v-612q0 -32 11.5 -39.5t36.5 -7.5h21q8 0 11 -4.5t3 -9.5v-27zM105 -187q-10 0 -11 6t2 11l27 52q-14 4 -20 11t-6 23q0 21 10 30t30 9t30.5 -9t10.5 -30q0 -14 -5 -26t-14 -28
l-29 -49h-25z" />
    <glyph glyph-name="Lcaron" unicode="&#x13d;" horiz-adv-x="465" 
d="M135 52h287q15 0 15 -15v-37h-345q-15 0 -15 15v678h43q15 0 15 -15v-626zM228 537q-13 0 -13 13v145h44q16 0 16 -13q0 -7 -2 -23.5t-5 -37.5t-7 -43.5t-8 -40.5h-25z" />
    <glyph glyph-name="lcaron" unicode="&#x13e;" horiz-adv-x="235" 
d="M207 3q-10 -2 -25.5 -4.5t-29.5 -2.5q-43 0 -63.5 25.5t-20.5 67.5v629h41q15 0 15 -15v-612q0 -32 11.5 -39.5t36.5 -7.5h21q8 0 11 -4.5t3 -9.5v-27zM201 560q-13 0 -13 13v145h44q16 0 16 -13q0 -7 -2 -23.5t-5 -37.5t-7 -43.5t-8 -40.5h-25z" />
    <glyph glyph-name="Ldot" unicode="&#x13f;" horiz-adv-x="465" 
d="M135 52h287q15 0 15 -15v-37h-345q-15 0 -15 15v678h43q15 0 15 -15v-626zM335 319q-21 0 -31 9t-10 32t10 32t31 9t31 -9t10 -32t-10 -32t-31 -9z" />
    <glyph glyph-name="ldot" unicode="&#x140;" horiz-adv-x="264" 
d="M207 3q-10 -2 -25.5 -4.5t-29.5 -2.5q-43 0 -63.5 25.5t-20.5 67.5v629h41q15 0 15 -15v-612q0 -32 11.5 -39.5t36.5 -7.5h21q8 0 11 -4.5t3 -9.5v-27zM228 319q-21 0 -31 9t-10 32t10 32t31 9t31 -9t10 -32t-10 -32t-31 -9z" />
    <glyph glyph-name="Lslash" unicode="&#x141;" horiz-adv-x="492" 
d="M335 391l-173 -82v-257h287q15 0 15 -15v-37h-345q-15 0 -15 15v267l-66 -31q-15 -7 -15 9v36l81 38v359h43q15 0 15 -15v-316l158 74q15 7 15 -9v-36z" />
    <glyph glyph-name="lslash" unicode="&#x142;" horiz-adv-x="272" 
d="M157 345v-254q0 -32 11.5 -39.5t36.5 -7.5h21q8 0 11 -4.5t3 -9.5v-27q-10 -2 -25.5 -4.5t-29.5 -2.5q-43 0 -63.5 25.5t-20.5 67.5v230l-65 -30q-16 -7 -16 7v35l81 38v349h41q15 0 15 -15v-308l67 31q6 3 11 1t5 -9v-34z" />
    <glyph glyph-name="Nacute" unicode="&#x143;" horiz-adv-x="603" 
d="M482 0q-11 0 -19 15q-18 34 -45.5 84t-59.5 107t-66 117t-64.5 113t-55 95.5t-38.5 64.5v-596h-42q-15 0 -15 15v678h50q7 0 10.5 -3.5t8.5 -11.5q13 -22 36.5 -61.5t52.5 -89.5t62 -106.5t64.5 -112.5t59.5 -107t48 -90v582h42q15 0 15 -15v-678h-44zM386 869
q6 0 10.5 -4.5t-0.5 -12.5l-88 -107h-32q-6 0 -10 3.5t0 11.5q14 29 30 56t34 53h56z" />
    <glyph glyph-name="nacute" unicode="&#x144;" horiz-adv-x="512" 
d="M122 448q10 11 26 23t37 21.5t47 16t57 6.5q73 0 116 -41.5t43 -133.5v-340h-41q-15 0 -15 15v323q0 69 -31.5 98.5t-83.5 29.5q-27 0 -50.5 -6.5t-43 -17t-34.5 -23t-25 -23.5v-396h-41q-15 0 -15 15v488h37q15 0 15 -15zM339 708q8 0 11.5 -4.5t-1.5 -12.5l-80 -116
h-31q-7 0 -10 4t0 11q14 32 28.5 60.5t29.5 57.5h53z" />
    <glyph glyph-name="Ncommaaccent" unicode="&#x145;" horiz-adv-x="603" 
d="M482 0q-11 0 -19 15q-18 34 -45.5 84t-59.5 107t-66 117t-64.5 113t-55 95.5t-38.5 64.5v-596h-42q-15 0 -15 15v678h50q7 0 10.5 -3.5t8.5 -11.5q13 -22 36.5 -61.5t52.5 -89.5t62 -106.5t64.5 -112.5t59.5 -107t48 -90v582h42q15 0 15 -15v-678h-44zM269 -187
q-10 0 -11 6t2 11l27 52q-14 4 -20 11t-6 23q0 21 10 30t30 9t30.5 -9t10.5 -30q0 -14 -5 -26t-14 -28l-29 -49h-25z" />
    <glyph glyph-name="ncommaaccent" unicode="&#x146;" horiz-adv-x="512" 
d="M122 448q10 11 26 23t37 21.5t47 16t57 6.5q73 0 116 -41.5t43 -133.5v-340h-41q-15 0 -15 15v323q0 69 -31.5 98.5t-83.5 29.5q-27 0 -50.5 -6.5t-43 -17t-34.5 -23t-25 -23.5v-396h-41q-15 0 -15 15v488h37q15 0 15 -15zM226 -187q-10 0 -11 6t2 11l27 52q-14 4 -20 11
t-6 23q0 21 10 30t30 9t30.5 -9t10.5 -30q0 -14 -5 -26t-14 -28l-29 -49h-25z" />
    <glyph glyph-name="Ncaron" unicode="&#x147;" horiz-adv-x="603" 
d="M482 0q-11 0 -19 15q-18 34 -45.5 84t-59.5 107t-66 117t-64.5 113t-55 95.5t-38.5 64.5v-596h-42q-15 0 -15 15v678h50q7 0 10.5 -3.5t8.5 -11.5q13 -22 36.5 -61.5t52.5 -89.5t62 -106.5t64.5 -112.5t59.5 -107t48 -90v582h42q15 0 15 -15v-678h-44zM226 869
q8 0 12.5 -3t10.5 -11l52 -64l64 78h33q7 0 10 -4t-2 -12q-17 -27 -37.5 -54.5t-40.5 -53.5h-41q-8 0 -11.5 1t-8.5 8q-16 21 -35.5 48.5t-43.5 66.5h38z" />
    <glyph glyph-name="ncaron" unicode="&#x148;" horiz-adv-x="512" 
d="M122 448q10 11 26 23t37 21.5t47 16t57 6.5q73 0 116 -41.5t43 -133.5v-340h-41q-15 0 -15 15v323q0 69 -31.5 98.5t-83.5 29.5q-27 0 -50.5 -6.5t-43 -17t-34.5 -23t-25 -23.5v-396h-41q-15 0 -15 15v488h37q15 0 15 -15zM184 708q13 0 23 -14l51 -74l61 88h31
q7 0 10.5 -3.5t-1.5 -11.5q-17 -28 -33.5 -55t-42.5 -63h-37q-8 0 -11.5 1t-8.5 8q-17 25 -37 56.5t-40 67.5h35z" />
    <glyph glyph-name="napostrophe" unicode="&#x149;" horiz-adv-x="512" 
d="M130 448q10 11 26 23t37 21.5t47 16t57 6.5q73 0 116 -41.5t43 -133.5v-340h-41q-15 0 -15 15v323q0 69 -31.5 98.5t-83.5 29.5q-27 0 -50.5 -6.5t-43 -17t-34.5 -23t-25 -23.5v-396h-41q-15 0 -15 15v488h37q15 0 15 -15zM11 556q-10 0 -10 9q0 6 3 12l24 66
q-33 4 -33 42q0 24 11 34t33 10q23 0 34.5 -10t11.5 -34q0 -17 -6.5 -34.5t-13.5 -33.5l-28 -61h-26z" />
    <glyph glyph-name="Omacron" unicode="&#x14c;" horiz-adv-x="609" 
d="M122 346q0 -81 8.5 -138t29.5 -93.5t56 -53.5t88 -17q52 0 87 17t56.5 53.5t30.5 93.5t9 138t-9 138.5t-30 93.5t-56.5 53t-87.5 17q-53 0 -88 -17t-56 -53t-29.5 -93.5t-8.5 -138.5zM548 346q0 -107 -17.5 -176t-49.5 -109t-77 -55.5t-100 -15.5q-54 0 -99 15.5
t-77 55.5t-49.5 109t-17.5 176t17.5 176t49.5 109t77 55.5t99 15.5q55 0 100 -15.5t77 -55.5t49.5 -109t17.5 -176zM204 783q-15 0 -15 15v33h215q15 0 15 -15v-33h-215z" />
    <glyph glyph-name="omacron" unicode="&#x14d;" horiz-adv-x="518" 
d="M259 37q37 0 64.5 11.5t46 37t27.5 66.5t9 100t-9 99.5t-27.5 66t-46 37t-64.5 11.5t-64.5 -11.5t-46 -37t-27.5 -66t-9 -99.5t9 -100t27.5 -66.5t46 -37t64.5 -11.5zM259 515q108 0 156 -64.5t48 -198.5q0 -135 -48 -199.5t-156 -64.5t-156 64.5t-48 199.5
q0 134 48 198.5t156 64.5zM159 616q-15 0 -15 15v33h215q15 0 15 -15v-33h-215z" />
    <glyph glyph-name="Obreve" unicode="&#x14e;" horiz-adv-x="609" 
d="M122 346q0 -81 8.5 -138t29.5 -93.5t56 -53.5t88 -17q52 0 87 17t56.5 53.5t30.5 93.5t9 138t-9 138.5t-30 93.5t-56.5 53t-87.5 17q-53 0 -88 -17t-56 -53t-29.5 -93.5t-8.5 -138.5zM548 346q0 -107 -17.5 -176t-49.5 -109t-77 -55.5t-100 -15.5q-54 0 -99 15.5
t-77 55.5t-49.5 109t-17.5 176t17.5 176t49.5 109t77 55.5t99 15.5q55 0 100 -15.5t77 -55.5t49.5 -109t17.5 -176zM230 866q8 0 10 -4t3 -10q5 -35 20 -47t41 -12q12 0 23 2.5t19.5 10.5t13.5 22.5t7 37.5h32q13 0 11 -14q-6 -60 -35 -81.5t-71 -21.5q-21 0 -39.5 5t-33 18
t-23.5 35.5t-11 58.5h33z" />
    <glyph glyph-name="obreve" unicode="&#x14f;" horiz-adv-x="518" 
d="M259 37q37 0 64.5 11.5t46 37t27.5 66.5t9 100t-9 99.5t-27.5 66t-46 37t-64.5 11.5t-64.5 -11.5t-46 -37t-27.5 -66t-9 -99.5t9 -100t27.5 -66.5t46 -37t64.5 -11.5zM259 515q108 0 156 -64.5t48 -198.5q0 -135 -48 -199.5t-156 -64.5t-156 64.5t-48 199.5
q0 134 48 198.5t156 64.5zM184 695q8 0 10.5 -2.5t3.5 -11.5q5 -35 20 -47t41 -12q12 0 23 2.5t19.5 10.5t13.5 22.5t7 37.5h32q12 0 11 -14q-6 -60 -35 -81.5t-71 -21.5q-21 0 -39.5 5t-33 18t-23.5 35.5t-11 58.5h32z" />
    <glyph glyph-name="Ohungarumlaut" unicode="&#x150;" horiz-adv-x="609" 
d="M122 346q0 -81 8.5 -138t29.5 -93.5t56 -53.5t88 -17q52 0 87 17t56.5 53.5t30.5 93.5t9 138t-9 138.5t-30 93.5t-56.5 53t-87.5 17q-53 0 -88 -17t-56 -53t-29.5 -93.5t-8.5 -138.5zM548 346q0 -107 -17.5 -176t-49.5 -109t-77 -55.5t-100 -15.5q-54 0 -99 15.5
t-77 55.5t-49.5 109t-17.5 176t17.5 176t49.5 109t77 55.5t99 15.5q55 0 100 -15.5t77 -55.5t49.5 -109t17.5 -176zM315 869q6 0 11 -5t-2 -14l-83 -105h-31q-6 0 -10 4.5t1 12.5q17 32 32 56.5t32 50.5h50zM459 869q6 0 11 -5t-2 -14l-83 -105h-31q-6 0 -10 4.5t1 12.5
q17 32 32 56.5t32 50.5h50z" />
    <glyph glyph-name="ohungarumlaut" unicode="&#x151;" horiz-adv-x="518" 
d="M259 37q37 0 64.5 11.5t46 37t27.5 66.5t9 100t-9 99.5t-27.5 66t-46 37t-64.5 11.5t-64.5 -11.5t-46 -37t-27.5 -66t-9 -99.5t9 -100t27.5 -66.5t46 -37t64.5 -11.5zM259 515q108 0 156 -64.5t48 -198.5q0 -135 -48 -199.5t-156 -64.5t-156 64.5t-48 199.5
q0 134 48 198.5t156 64.5zM266 708q6 0 10.5 -4.5t-0.5 -12.5l-76 -116h-30q-6 0 -10 3.5t0 11.5q14 32 28 60.5t29 57.5h49zM410 708q6 0 10.5 -4.5t-0.5 -12.5l-76 -116h-30q-6 0 -10 3.5t0 11.5q14 32 28 60.5t29 57.5h49z" />
    <glyph glyph-name="Racute" unicode="&#x154;" horiz-adv-x="561" 
d="M279 646q-51 0 -86 -3t-58 -7v-290h150q34 0 62 6t48.5 22.5t32 45.5t11.5 74q0 44 -10 73t-29.5 46.5t-50 25t-70.5 7.5zM278 698q60 0 101.5 -13.5t68 -39.5t38.5 -64t12 -87q0 -47 -11 -80.5t-30.5 -56t-46.5 -36t-58 -20.5q26 -30 53.5 -71t52 -84t44.5 -82t31 -64
h-49q-11 0 -15 5t-6 10q-10 21 -28 54.5t-41.5 72.5t-51.5 79.5t-58 74.5h-149v-296h-43q-15 0 -15 15v666q36 6 90 11.5t111 5.5zM357 869q6 0 10.5 -4.5t-0.5 -12.5l-88 -107h-32q-6 0 -10 3.5t0 11.5q14 29 30 56t34 53h56z" />
    <glyph glyph-name="racute" unicode="&#x155;" horiz-adv-x="331" 
d="M273 505q20 0 25 -4t5 -12v-36q-7 1 -14.5 1h-12.5q-46 0 -81.5 -18.5t-70.5 -58.5v-377h-41q-15 0 -15 15v488h37q15 0 15 -15l2 -56q11 12 27 25t35.5 23.5t42 17.5t46.5 7zM254 708q8 0 11.5 -4.5t-1.5 -12.5l-80 -116h-31q-7 0 -10 4t0 11q14 32 28.5 60.5t29.5 57.5
h53z" />
    <glyph glyph-name="Rcommaaccent" unicode="&#x156;" horiz-adv-x="561" 
d="M279 646q-51 0 -86 -3t-58 -7v-290h150q34 0 62 6t48.5 22.5t32 45.5t11.5 74q0 44 -10 73t-29.5 46.5t-50 25t-70.5 7.5zM278 698q60 0 101.5 -13.5t68 -39.5t38.5 -64t12 -87q0 -47 -11 -80.5t-30.5 -56t-46.5 -36t-58 -20.5q26 -30 53.5 -71t52 -84t44.5 -82t31 -64
h-49q-11 0 -15 5t-6 10q-10 21 -28 54.5t-41.5 72.5t-51.5 79.5t-58 74.5h-149v-296h-43q-15 0 -15 15v666q36 6 90 11.5t111 5.5zM263 -187q-10 0 -11 6t2 11l27 52q-14 4 -20 11t-6 23q0 21 10 30t30 9t30.5 -9t10.5 -30q0 -14 -5 -26t-14 -28l-29 -49h-25z" />
    <glyph glyph-name="rcommaaccent" unicode="&#x157;" horiz-adv-x="331" 
d="M273 505q20 0 25 -4t5 -12v-36q-7 1 -14.5 1h-12.5q-46 0 -81.5 -18.5t-70.5 -58.5v-377h-41q-15 0 -15 15v488h37q15 0 15 -15l2 -56q11 12 27 25t35.5 23.5t42 17.5t46.5 7zM67 -187q-10 0 -11 6t2 11l27 52q-14 4 -20 11t-6 23q0 21 10 30t30 9t30.5 -9t10.5 -30
q0 -14 -5 -26t-14 -28l-29 -49h-25z" />
    <glyph glyph-name="Rcaron" unicode="&#x158;" horiz-adv-x="561" 
d="M279 646q-51 0 -86 -3t-58 -7v-290h150q34 0 62 6t48.5 22.5t32 45.5t11.5 74q0 44 -10 73t-29.5 46.5t-50 25t-70.5 7.5zM278 698q60 0 101.5 -13.5t68 -39.5t38.5 -64t12 -87q0 -47 -11 -80.5t-30.5 -56t-46.5 -36t-58 -20.5q26 -30 53.5 -71t52 -84t44.5 -82t31 -64
h-49q-11 0 -15 5t-6 10q-10 21 -28 54.5t-41.5 72.5t-51.5 79.5t-58 74.5h-149v-296h-43q-15 0 -15 15v666q36 6 90 11.5t111 5.5zM197 869q8 0 12.5 -3t10.5 -11l52 -64l64 78h33q7 0 10 -4t-2 -12q-17 -27 -37.5 -54.5t-40.5 -53.5h-41q-8 0 -11.5 1t-8.5 8
q-16 21 -35.5 48.5t-43.5 66.5h38z" />
    <glyph glyph-name="rcaron" unicode="&#x159;" horiz-adv-x="331" 
d="M273 505q20 0 25 -4t5 -12v-36q-7 1 -14.5 1h-12.5q-46 0 -81.5 -18.5t-70.5 -58.5v-377h-41q-15 0 -15 15v488h37q15 0 15 -15l2 -56q11 12 27 25t35.5 23.5t42 17.5t46.5 7zM99 708q13 0 23 -14l51 -74l61 88h31q7 0 10.5 -3.5t-1.5 -11.5q-17 -28 -33.5 -55t-42.5 -63
h-37q-8 0 -11.5 1t-8.5 8q-17 25 -37 56.5t-40 67.5h35z" />
    <glyph glyph-name="Sacute" unicode="&#x15a;" horiz-adv-x="509" 
d="M237 -9q-48 0 -95 7t-73 16q-14 5 -14 21v29l77.5 -12.5t100.5 -7.5q48 0 79.5 9.5t49.5 27t25.5 43t7.5 58.5t-8 55.5t-27 39t-51.5 29t-80.5 27.5q-40 12 -73 25.5t-57 34.5t-37 52.5t-13 78.5q0 40 11.5 72.5t36.5 55.5t65.5 36t97.5 13q18 0 40 -1t43 -3.5t39.5 -6
t31.5 -7.5q14 -5 14 -21v-29q-31 5 -75.5 10.5t-86.5 5.5q-90 0 -124 -31.5t-34 -92.5q0 -33 8.5 -55t26.5 -37t46.5 -26t67.5 -23q52 -15 89.5 -30.5t62 -37.5t36 -54t11.5 -80q0 -96 -52 -143.5t-166 -47.5zM333 869q6 0 10.5 -4.5t-0.5 -12.5l-88 -107h-32q-6 0 -10 3.5
t0 11.5q14 29 30 56t34 53h56z" />
    <glyph glyph-name="sacute" unicode="&#x15b;" horiz-adv-x="435" 
d="M64 8q-13 5 -13 19v28q26 -5 64 -10t80 -5t68.5 6t41.5 18t20.5 29t5.5 40q0 27 -8.5 43t-25.5 27t-43 18.5t-61 16.5q-30 8 -57 17t-47 24t-31.5 38.5t-11.5 59.5q0 64 41.5 99.5t127.5 35.5q9 0 26.5 -0.5t37 -2.5t38.5 -5t31 -7q13 -5 13 -19v-27q-31 5 -66.5 9
t-69.5 4q-36 0 -60 -5.5t-38.5 -16t-20 -26t-5.5 -36.5q0 -23 6.5 -37.5t21.5 -25t38.5 -18t57.5 -15.5t63.5 -17.5t51.5 -25t34.5 -41t12.5 -65.5q0 -78 -47.5 -111t-132.5 -33q-12 0 -32 1t-41 3t-40.5 5t-29.5 8zM290 708q8 0 11.5 -4.5t-1.5 -12.5l-80 -116h-31
q-7 0 -10 4t0 11q14 32 28.5 60.5t29.5 57.5h53z" />
    <glyph glyph-name="Scircumflex" unicode="&#x15c;" horiz-adv-x="509" 
d="M237 -9q-48 0 -95 7t-73 16q-14 5 -14 21v29l77.5 -12.5t100.5 -7.5q48 0 79.5 9.5t49.5 27t25.5 43t7.5 58.5t-8 55.5t-27 39t-51.5 29t-80.5 27.5q-40 12 -73 25.5t-57 34.5t-37 52.5t-13 78.5q0 40 11.5 72.5t36.5 55.5t65.5 36t97.5 13q18 0 40 -1t43 -3.5t39.5 -6
t31.5 -7.5q14 -5 14 -21v-29q-31 5 -75.5 10.5t-86.5 5.5q-90 0 -124 -31.5t-34 -92.5q0 -33 8.5 -55t26.5 -37t46.5 -26t67.5 -23q52 -15 89.5 -30.5t62 -37.5t36 -54t11.5 -80q0 -96 -52 -143.5t-166 -47.5zM323 745q-8 0 -12.5 3t-10.5 11l-52 64l-64 -78h-33q-7 0 -10 4
t2 12q17 27 37.5 54.5t40.5 53.5h41q8 0 11.5 -1t8.5 -8q16 -21 35.5 -48.5t43.5 -66.5h-38z" />
    <glyph glyph-name="scircumflex" unicode="&#x15d;" horiz-adv-x="435" 
d="M64 8q-13 5 -13 19v28q26 -5 64 -10t80 -5t68.5 6t41.5 18t20.5 29t5.5 40q0 27 -8.5 43t-25.5 27t-43 18.5t-61 16.5q-30 8 -57 17t-47 24t-31.5 38.5t-11.5 59.5q0 64 41.5 99.5t127.5 35.5q9 0 26.5 -0.5t37 -2.5t38.5 -5t31 -7q13 -5 13 -19v-27q-31 5 -66.5 9
t-69.5 4q-36 0 -60 -5.5t-38.5 -16t-20 -26t-5.5 -36.5q0 -23 6.5 -37.5t21.5 -25t38.5 -18t57.5 -15.5t63.5 -17.5t51.5 -25t34.5 -41t12.5 -65.5q0 -78 -47.5 -111t-132.5 -33q-12 0 -32 1t-41 3t-40.5 5t-29.5 8zM283 575q-13 0 -23 14l-51 74l-61 -88h-33q-7 0 -9.5 3.5
t2.5 11.5q17 28 33.5 55t42.5 63h37q8 0 11.5 -1t8.5 -8q17 -25 37 -56.5t40 -67.5h-35z" />
    <glyph glyph-name="Scedilla" unicode="&#x15e;" horiz-adv-x="509" 
d="M210 -149q26 0 43 4t17 26q0 14 -9.5 19t-27.5 9l-10 2q-11 2 -16 5.5t-5 11.5t7 25l16 38q-45 1 -88.5 7.5t-67.5 15.5q-14 5 -14 21v29l77.5 -12.5t100.5 -7.5q48 0 79.5 9.5t49.5 27t25.5 43t7.5 58.5t-8 55.5t-27 39t-51.5 29t-80.5 27.5q-40 12 -73 25.5t-57 34.5
t-37 52.5t-13 78.5q0 40 11.5 72.5t36.5 55.5t65.5 36t97.5 13q18 0 40 -1t43 -3.5t39.5 -6t31.5 -7.5q14 -5 14 -21v-29q-31 5 -75.5 10.5t-86.5 5.5q-90 0 -124 -31.5t-34 -92.5q0 -33 8.5 -55t26.5 -37t46.5 -26t67.5 -23q52 -15 89.5 -30.5t62 -37.5t36 -54t11.5 -80
q0 -90 -45.5 -137t-144.5 -53l-20 -48l15 -3q32 -7 45 -21.5t13 -38.5q0 -12 -3.5 -24.5t-13 -22t-26.5 -15.5t-43 -6q-29 0 -44 5q-10 3 -10 12v21h32z" />
    <glyph glyph-name="scedilla" unicode="&#x15f;" horiz-adv-x="435" 
d="M173 -149q26 0 43 4t17 26q0 14 -9.5 19t-27.5 9l-10 2q-11 2 -16 5.5t-5 11.5t7 25l16 38q-15 1 -33 2t-35 3.5t-32 5t-24 6.5q-13 5 -13 19v28q26 -5 64 -10t80 -5t68.5 6t41.5 18t20.5 29t5.5 40q0 27 -8.5 43t-25.5 27t-43 18.5t-61 16.5q-30 8 -57 17t-47 24
t-31.5 38.5t-11.5 59.5q0 64 41.5 99.5t127.5 35.5q9 0 26.5 -0.5t37 -2.5t38.5 -5t31 -7q13 -5 13 -19v-27q-31 5 -66.5 9t-69.5 4q-36 0 -60 -5.5t-38.5 -16t-20 -26t-5.5 -36.5q0 -23 6.5 -37.5t21.5 -25t38.5 -18t57.5 -15.5t63.5 -17.5t51.5 -25t34.5 -41t12.5 -65.5
q0 -74 -42 -106.5t-117 -36.5l-20 -48l15 -3q32 -7 45 -21.5t13 -38.5q0 -12 -3.5 -24.5t-13 -22t-26.5 -15.5t-43 -6q-29 0 -44 5q-10 3 -10 12v21h32z" />
    <glyph glyph-name="Tcommaaccent" unicode="&#x162;" horiz-adv-x="509" 
d="M219 -149q26 0 43 4t17 26q0 14 -9.5 19t-27.5 9l-10 2q-11 2 -16 5.5t-5 11.5t7 25l20 47q-13 2 -13 15v626h-182q-15 0 -15 15v37h438q15 0 15 -15v-37h-198v-641h-5l-24 -56l15 -3q32 -7 45 -21.5t13 -38.5q0 -12 -3.5 -24.5t-13 -22t-26.5 -15.5t-43 -6q-29 0 -44 5
q-10 3 -10 12v21h32z" />
    <glyph glyph-name="tcommaaccent" unicode="&#x163;" horiz-adv-x="323" 
d="M156 -149q26 0 43 4t17 26q0 14 -9.5 19t-27.5 9l-10 2q-11 2 -16 5.5t-5 11.5t7 25l18 44q-43 8 -59 34t-16 63v361h-45q-15 0 -15 15v33h60v135h41q15 0 15 -15v-120h114q15 0 15 -15v-33h-129v-354q0 -14 2 -24.5t9.5 -18.5t22 -12t39.5 -4q11 0 21 0.5t15 0.5
q12 0 16 -4.5t4 -10.5v-27q-38 -8 -71 -8l-21 -49l15 -3q32 -7 45 -21.5t13 -38.5q0 -12 -3.5 -24.5t-13 -22t-26.5 -15.5t-43 -6q-29 0 -44 5q-10 3 -10 12v21h32z" />
    <glyph glyph-name="Tcaron" unicode="&#x164;" horiz-adv-x="509" 
d="M240 0q-15 0 -15 15v626h-182q-15 0 -15 15v37h438q15 0 15 -15v-37h-198v-641h-43zM179 869q8 0 12.5 -3t10.5 -11l52 -64l64 78h33q7 0 10 -4t-2 -12q-17 -27 -37.5 -54.5t-40.5 -53.5h-41q-8 0 -11.5 1t-8.5 8q-16 21 -35.5 48.5t-43.5 66.5h38z" />
    <glyph glyph-name="tcaron" unicode="&#x165;" horiz-adv-x="323" 
d="M263 45q12 0 16 -4.5t4 -10.5v-27q-38 -8 -71 -8t-55 7.5t-35 21t-18.5 32t-5.5 40.5v361h-45q-15 0 -15 15v33h60v135h41q15 0 15 -15v-120h114q15 0 15 -15v-33h-129v-354q0 -14 2 -24.5t9.5 -18.5t22 -12t39.5 -4q11 0 21 0.5t15 0.5zM233 562q-13 0 -13 13v143h44
q16 0 16 -13q0 -7 -2 -23t-5 -36.5t-7 -43t-8 -40.5h-25z" />
    <glyph glyph-name="Tbar" unicode="&#x166;" horiz-adv-x="509" 
d="M240 0q-15 0 -15 15v298h-109q-15 0 -15 15v33h124v280h-182q-15 0 -15 15v37h438q15 0 15 -15v-37h-198v-280h109q15 0 15 -15v-33h-124v-313h-43z" />
    <glyph glyph-name="tbar" unicode="&#x167;" horiz-adv-x="332" 
d="M267 43q12 0 16 -4.5t4 -10.5v-27q-38 -8 -71 -8t-55 7.5t-35 21t-18.5 32t-5.5 40.5v150h-45q-15 0 -15 15v30h60v166h-45q-15 0 -15 15v33h60v135h41q15 0 15 -15v-120h114q15 0 15 -15v-33h-129v-166h114q15 0 15 -15v-30h-129v-143q0 -14 2 -24.5t9.5 -18.5t22 -12
t39.5 -4q11 0 21 0.5t15 0.5z" />
    <glyph glyph-name="Utilde" unicode="&#x168;" horiz-adv-x="592" 
d="M518 236q0 -70 -15.5 -117t-44 -75.5t-69.5 -40.5t-93 -12q-53 0 -94 12t-69.5 40.5t-43.5 75.5t-15 116v458h43q15 0 15 -15v-443q0 -43 7.5 -78t26.5 -60t51 -38.5t80 -13.5q49 0 81 13.5t50 38.5t25 60t7 78v458h43q15 0 15 -15v-442zM435 847q0 -49 -18 -71t-53 -22
q-26 0 -44 11t-35 24q-20 15 -31.5 22t-25.5 7q-11 0 -17 -6t-9 -15t-3.5 -20t-0.5 -21h-29q-8 0 -10 4t-2 9q0 49 18 71t53 22q26 0 44 -11t35 -24q20 -15 31.5 -22t25.5 -7q11 0 17 5.5t9 14.5t3.5 20t0.5 22h29q8 0 10 -4t2 -9z" />
    <glyph glyph-name="utilde" unicode="&#x169;" horiz-adv-x="512" 
d="M390 55q-11 -11 -26.5 -23t-36.5 -22t-47 -16t-57 -6q-73 0 -116 41.5t-43 133.5v340h41q15 0 15 -15v-323q0 -69 31.5 -98.5t83.5 -29.5q27 0 50.5 6.5t43 17t34.5 23t25 23.5v396h41q15 0 15 -15v-488h-37q-15 0 -15 15zM393 676q0 -49 -18 -71t-53 -22q-26 0 -44 11
t-35 24q-20 15 -31.5 22t-25.5 7q-11 0 -17 -6t-9 -15t-3.5 -20t-0.5 -21h-29q-8 0 -10 4t-2 9q0 49 18 71t53 22q26 0 44 -11t35 -24q20 -15 31.5 -22t25.5 -7q11 0 17 5.5t9 14.5t3.5 20t0.5 22h29q8 0 10 -4t2 -9z" />
    <glyph glyph-name="Umacron" unicode="&#x16a;" horiz-adv-x="592" 
d="M518 236q0 -70 -15.5 -117t-44 -75.5t-69.5 -40.5t-93 -12q-53 0 -94 12t-69.5 40.5t-43.5 75.5t-15 116v458h43q15 0 15 -15v-443q0 -43 7.5 -78t26.5 -60t51 -38.5t80 -13.5q49 0 81 13.5t50 38.5t25 60t7 78v458h43q15 0 15 -15v-442zM196 783q-15 0 -15 15v33h215
q15 0 15 -15v-33h-215z" />
    <glyph glyph-name="umacron" unicode="&#x16b;" horiz-adv-x="512" 
d="M390 55q-11 -11 -26.5 -23t-36.5 -22t-47 -16t-57 -6q-73 0 -116 41.5t-43 133.5v340h41q15 0 15 -15v-323q0 -69 31.5 -98.5t83.5 -29.5q27 0 50.5 6.5t43 17t34.5 23t25 23.5v396h41q15 0 15 -15v-488h-37q-15 0 -15 15zM154 616q-15 0 -15 15v33h215q15 0 15 -15v-33
h-215z" />
    <glyph glyph-name="Ubreve" unicode="&#x16c;" horiz-adv-x="592" 
d="M518 236q0 -70 -15.5 -117t-44 -75.5t-69.5 -40.5t-93 -12q-53 0 -94 12t-69.5 40.5t-43.5 75.5t-15 116v458h43q15 0 15 -15v-443q0 -43 7.5 -78t26.5 -60t51 -38.5t80 -13.5q49 0 81 13.5t50 38.5t25 60t7 78v458h43q15 0 15 -15v-442zM222 866q8 0 10 -4t3 -10
q5 -35 20 -47t41 -12q12 0 23 2.5t19.5 10.5t13.5 22.5t7 37.5h32q13 0 11 -14q-6 -60 -35 -81.5t-71 -21.5q-21 0 -39.5 5t-33 18t-23.5 35.5t-11 58.5h33z" />
    <glyph glyph-name="ubreve" unicode="&#x16d;" horiz-adv-x="512" 
d="M390 55q-11 -11 -26.5 -23t-36.5 -22t-47 -16t-57 -6q-73 0 -116 41.5t-43 133.5v340h41q15 0 15 -15v-323q0 -69 31.5 -98.5t83.5 -29.5q27 0 50.5 6.5t43 17t34.5 23t25 23.5v396h41q15 0 15 -15v-488h-37q-15 0 -15 15zM179 695q8 0 10.5 -2.5t3.5 -11.5q5 -35 20 -47
t41 -12q12 0 23 2.5t19.5 10.5t13.5 22.5t7 37.5h32q12 0 11 -14q-6 -60 -35 -81.5t-71 -21.5q-21 0 -39.5 5t-33 18t-23.5 35.5t-11 58.5h32z" />
    <glyph glyph-name="Uring" unicode="&#x16e;" horiz-adv-x="592" 
d="M518 236q0 -70 -15.5 -117t-44 -75.5t-69.5 -40.5t-93 -12q-53 0 -94 12t-69.5 40.5t-43.5 75.5t-15 116v458h43q15 0 15 -15v-443q0 -43 7.5 -78t26.5 -60t51 -38.5t80 -13.5q49 0 81 13.5t50 38.5t25 60t7 78v458h43q15 0 15 -15v-442zM296 768q23 0 36.5 11.5
t13.5 39.5t-13.5 39.5t-36.5 11.5t-36.5 -11.5t-13.5 -39.5t13.5 -39.5t36.5 -11.5zM296 730q-47 0 -70 24t-23 65t23 65t70 24t70 -24t23 -65t-23 -65t-70 -24z" />
    <glyph glyph-name="uring" unicode="&#x16f;" horiz-adv-x="512" 
d="M390 55q-11 -11 -26.5 -23t-36.5 -22t-47 -16t-57 -6q-73 0 -116 41.5t-43 133.5v340h41q15 0 15 -15v-323q0 -69 31.5 -98.5t83.5 -29.5q27 0 50.5 6.5t43 17t34.5 23t25 23.5v396h41q15 0 15 -15v-488h-37q-15 0 -15 15zM254 610q23 0 36.5 11.5t13.5 39.5t-13.5 39.5
t-36.5 11.5t-36.5 -11.5t-13.5 -39.5t13.5 -39.5t36.5 -11.5zM254 572q-47 0 -70 24t-23 65t23 65t70 24t70 -24t23 -65t-23 -65t-70 -24z" />
    <glyph glyph-name="Uhungarumlaut" unicode="&#x170;" horiz-adv-x="592" 
d="M518 236q0 -70 -15.5 -117t-44 -75.5t-69.5 -40.5t-93 -12q-53 0 -94 12t-69.5 40.5t-43.5 75.5t-15 116v458h43q15 0 15 -15v-443q0 -43 7.5 -78t26.5 -60t51 -38.5t80 -13.5q49 0 81 13.5t50 38.5t25 60t7 78v458h43q15 0 15 -15v-442zM307 869q6 0 11 -5t-2 -14
l-83 -105h-31q-6 0 -10 4.5t1 12.5q17 32 32 56.5t32 50.5h50zM451 869q6 0 11 -5t-2 -14l-83 -105h-31q-6 0 -10 4.5t1 12.5q17 32 32 56.5t32 50.5h50z" />
    <glyph glyph-name="uhungarumlaut" unicode="&#x171;" horiz-adv-x="512" 
d="M390 55q-11 -11 -26.5 -23t-36.5 -22t-47 -16t-57 -6q-73 0 -116 41.5t-43 133.5v340h41q15 0 15 -15v-323q0 -69 31.5 -98.5t83.5 -29.5q27 0 50.5 6.5t43 17t34.5 23t25 23.5v396h41q15 0 15 -15v-488h-37q-15 0 -15 15zM261 708q6 0 10.5 -4.5t-0.5 -12.5l-76 -116
h-30q-6 0 -10 3.5t0 11.5q14 32 28 60.5t29 57.5h49zM405 708q6 0 10.5 -4.5t-0.5 -12.5l-76 -116h-30q-6 0 -10 3.5t0 11.5q14 32 28 60.5t29 57.5h49z" />
    <glyph glyph-name="Uogonek" unicode="&#x172;" horiz-adv-x="592" 
d="M331 -174q-35 0 -59 14t-24 53q0 28 19 52t48 47q-8 -1 -12.5 -1h-6.5q-51 0 -92.5 12t-70 40.5t-44 75.5t-15.5 117v457h43q15 0 15 -15v-442q0 -43 7 -78.5t25.5 -60.5t50 -38.5t81.5 -13.5q48 0 80 13.5t50.5 38.5t26 60t7.5 78v458h43q15 0 15 -15v-443
q0 -94 -26.5 -146t-76.5 -76q-20 -10 -35.5 -18.5t-32.5 -22.5q-48 -39 -48 -73q0 -19 10 -25t27 -6q11 0 20 1.5t13 1.5q7 0 9.5 -3.5t2.5 -8.5v-25q-10 -3 -23 -5.5t-27 -2.5z" />
    <glyph glyph-name="uogonek" unicode="&#x173;" horiz-adv-x="512" 
d="M444 1q-41 -38 -59 -59.5t-18 -42.5q0 -19 10 -25t27 -6q11 0 20 1.5t13 1.5q7 0 9.5 -3.5t2.5 -8.5v-25q-10 -3 -23 -5.5t-27 -2.5q-35 0 -59 14t-24 53q0 31 23.5 57.5t54.5 54.5l-4 50q-11 -11 -26.5 -23t-36.5 -22t-47 -16t-57 -6q-73 0 -116 41.5t-43 133.5v340h41
q15 0 15 -15v-323q0 -69 31.5 -98.5t83.5 -29.5q27 0 50.5 6.5t43 17t34.5 23t25 23.5v396h41q7 0 11.5 -4t3.5 -11v-487z" />
    <glyph glyph-name="Wcircumflex" unicode="&#x174;" horiz-adv-x="786" 
d="M543 0q-8 0 -12 3t-7 14l-131 538l-134 -555h-43q-10 0 -13.5 3t-7.5 13q-29 82 -54 169.5t-45.5 175.5t-34.5 172.5t-21 159.5h47q13 0 15 -15q7 -75 20.5 -153.5t30 -155.5t36 -150t39.5 -136l135 554h52q12 0 15 -14l132 -540q21 65 40.5 140t36.5 154t30 159.5
t20 156.5h41q10 0 12.5 -5t1.5 -10q-8 -76 -22 -160.5t-34.5 -172t-45.5 -175t-54 -170.5h-45zM468 745q-8 0 -12.5 3t-10.5 11l-52 64l-64 -78h-33q-7 0 -10 4t2 12q17 27 37.5 54.5t40.5 53.5h41q8 0 11.5 -1t8.5 -8q16 -21 35.5 -48.5t43.5 -66.5h-38z" />
    <glyph glyph-name="wcircumflex" unicode="&#x175;" horiz-adv-x="690" 
d="M639 503q10 0 12.5 -5t1.5 -10q-7 -57 -20.5 -120t-31 -127t-39 -125.5t-45.5 -115.5h-44q-8 0 -12 3t-7 14l-109 374l-114 -391h-44q-10 0 -13 3t-8 13q-23 55 -44.5 117.5t-38.5 126t-29.5 125.5t-18.5 118h44q13 0 15 -15q6 -50 16.5 -105t24.5 -111t30.5 -109.5
t34.5 -99.5l118 402h45q11 0 15 -14l114 -388q18 48 35 104t31.5 114t25 115t16.5 107h39zM419 575q-13 0 -23 14l-51 74l-61 -88h-33q-7 0 -9.5 3.5t2.5 11.5q17 28 33.5 55t42.5 63h37q8 0 11.5 -1t8.5 -8q17 -25 37 -56.5t40 -67.5h-35z" />
    <glyph glyph-name="Ycircumflex" unicode="&#x176;" horiz-adv-x="509" 
d="M463 693q21 0 14 -22q-18 -54 -37.5 -103t-42.5 -97t-50.5 -98t-63.5 -105v-268h-43q-15 0 -15 15v253q-36 56 -65 108t-53 103t-44 103.5t-39 110.5h48q9 0 12.5 -3t6.5 -12q12 -36 29 -80.5t38 -92t46 -95t52 -89.5q28 41 55.5 95t50.5 107.5t39.5 99t21.5 70.5h40z
M330 745q-8 0 -12.5 3t-10.5 11l-52 64l-64 -78h-33q-7 0 -10 4t2 12q17 27 37.5 54.5t40.5 53.5h41q8 0 11.5 -1t8.5 -8q16 -21 35.5 -48.5t43.5 -66.5h-38z" />
    <glyph glyph-name="ycircumflex" unicode="&#x177;" horiz-adv-x="456" 
d="M240 58q48 99 79 209t49 236h40q9 0 12 -4t2 -11q-17 -119 -53.5 -236t-90.5 -226q-24 -48 -46 -85t-44.5 -62.5t-48 -39t-56.5 -13.5q-23 0 -36 6q-10 6 -10 18v24q10 -1 18 -1h16q23 0 41 8t33.5 24.5t31 41.5t33.5 59q-32 55 -61.5 117t-54 126.5t-42 129t-24.5 124.5
h43q10 0 13 -3.5t4 -11.5q8 -57 23.5 -114.5t36 -112.5t44 -106.5t48.5 -96.5zM302 575q-13 0 -23 14l-51 74l-61 -88h-33q-7 0 -9.5 3.5t2.5 11.5q17 28 33.5 55t42.5 63h37q8 0 11.5 -1t8.5 -8q17 -25 37 -56.5t40 -67.5h-35z" />
    <glyph glyph-name="Zacute" unicode="&#x179;" horiz-adv-x="524" 
d="M41 48q21 35 48.5 80t58.5 96.5t64.5 106t67.5 109t67 106t63 95.5h-344q-15 0 -15 15v37h410q15 0 15 -15v-35q-55 -81 -108 -164.5t-100 -161t-87 -145.5t-70 -120h357q15 0 15 -15v-37h-427q-15 0 -15 15v33zM348 869q6 0 10.5 -4.5t-0.5 -12.5l-88 -107h-32
q-6 0 -10 3.5t0 11.5q14 29 30 56t34 53h56z" />
    <glyph glyph-name="zacute" unicode="&#x17a;" horiz-adv-x="457" 
d="M45 41q27 41 63 93t76 107t81 110.5t79 103.5h-275q-15 0 -15 15v33h334q22 0 22 -26v-17q-44 -56 -87.5 -114.5t-82.5 -113.5t-72 -102.5t-55 -81.5h284q15 0 15 -15v-33h-352q-15 0 -15 15v26zM311 708q8 0 11.5 -4.5t-1.5 -12.5l-80 -116h-31q-7 0 -10 4t0 11
q14 32 28.5 60.5t29.5 57.5h53z" />
    <glyph glyph-name="Zdotaccent" unicode="&#x17b;" horiz-adv-x="524" 
d="M41 48q21 35 48.5 80t58.5 96.5t64.5 106t67.5 109t67 106t63 95.5h-344q-15 0 -15 15v37h410q15 0 15 -15v-35q-55 -81 -108 -164.5t-100 -161t-87 -145.5t-70 -120h357q15 0 15 -15v-37h-427q-15 0 -15 15v33zM263 768q-21 0 -31 9t-10 32t10 32t31 9t31 -9t10 -32
t-10 -32t-31 -9z" />
    <glyph glyph-name="zdotaccent" unicode="&#x17c;" horiz-adv-x="457" 
d="M45 41q27 41 63 93t76 107t81 110.5t79 103.5h-275q-15 0 -15 15v33h334q22 0 22 -26v-17q-44 -56 -87.5 -114.5t-82.5 -113.5t-72 -102.5t-55 -81.5h284q15 0 15 -15v-33h-352q-15 0 -15 15v26zM230 601q-21 0 -31 9t-10 32t10 32t31 9t31 -9t10 -32t-10 -32t-31 -9z
" />
    <glyph glyph-name="Zcaron" unicode="&#x17d;" horiz-adv-x="524" 
d="M41 48q21 35 48.5 80t58.5 96.5t64.5 106t67.5 109t67 106t63 95.5h-344q-15 0 -15 15v37h410q15 0 15 -15v-35q-55 -81 -108 -164.5t-100 -161t-87 -145.5t-70 -120h357q15 0 15 -15v-37h-427q-15 0 -15 15v33zM188 869q8 0 12.5 -3t10.5 -11l52 -64l64 78h33q7 0 10 -4
t-2 -12q-17 -27 -37.5 -54.5t-40.5 -53.5h-41q-8 0 -11.5 1t-8.5 8q-16 21 -35.5 48.5t-43.5 66.5h38z" />
    <glyph glyph-name="zcaron" unicode="&#x17e;" horiz-adv-x="457" 
d="M45 41q27 41 63 93t76 107t81 110.5t79 103.5h-275q-15 0 -15 15v33h334q22 0 22 -26v-17q-44 -56 -87.5 -114.5t-82.5 -113.5t-72 -102.5t-55 -81.5h284q15 0 15 -15v-33h-352q-15 0 -15 15v26zM156 708q13 0 23 -14l51 -74l61 88h31q7 0 10.5 -3.5t-1.5 -11.5
q-17 -28 -33.5 -55t-42.5 -63h-37q-8 0 -11.5 1t-8.5 8q-17 25 -37 56.5t-40 67.5h35z" />
    <glyph glyph-name="Scommaaccent" unicode="&#x218;" horiz-adv-x="509" 
d="M237 -9q-48 0 -95 7t-73 16q-14 5 -14 21v29l77.5 -12.5t100.5 -7.5q48 0 79.5 9.5t49.5 27t25.5 43t7.5 58.5t-8 55.5t-27 39t-51.5 29t-80.5 27.5q-40 12 -73 25.5t-57 34.5t-37 52.5t-13 78.5q0 40 11.5 72.5t36.5 55.5t65.5 36t97.5 13q18 0 40 -1t43 -3.5t39.5 -6
t31.5 -7.5q14 -5 14 -21v-29q-31 5 -75.5 10.5t-86.5 5.5q-90 0 -124 -31.5t-34 -92.5q0 -33 8.5 -55t26.5 -37t46.5 -26t67.5 -23q52 -15 89.5 -30.5t62 -37.5t36 -54t11.5 -80q0 -96 -52 -143.5t-166 -47.5zM216 -187q-10 0 -11 6t2 11l27 52q-14 4 -20 11t-6 23
q0 21 10 30t30 9t30.5 -9t10.5 -30q0 -14 -5 -26t-14 -28l-29 -49h-25z" />
    <glyph glyph-name="scommaaccent" unicode="&#x219;" horiz-adv-x="435" 
d="M64 8q-13 5 -13 19v28q26 -5 64 -10t80 -5t68.5 6t41.5 18t20.5 29t5.5 40q0 27 -8.5 43t-25.5 27t-43 18.5t-61 16.5q-30 8 -57 17t-47 24t-31.5 38.5t-11.5 59.5q0 64 41.5 99.5t127.5 35.5q9 0 26.5 -0.5t37 -2.5t38.5 -5t31 -7q13 -5 13 -19v-27q-31 5 -66.5 9
t-69.5 4q-36 0 -60 -5.5t-38.5 -16t-20 -26t-5.5 -36.5q0 -23 6.5 -37.5t21.5 -25t38.5 -18t57.5 -15.5t63.5 -17.5t51.5 -25t34.5 -41t12.5 -65.5q0 -78 -47.5 -111t-132.5 -33q-12 0 -32 1t-41 3t-40.5 5t-29.5 8zM182 -187q-10 0 -11 6t2 11l27 52q-14 4 -20 11t-6 23
q0 21 10 30t30 9t30.5 -9t10.5 -30q0 -14 -5 -26t-14 -28l-29 -49h-25z" />
    <glyph glyph-name="uni021A" unicode="&#x21a;" horiz-adv-x="509" 
d="M240 0q-15 0 -15 15v626h-182q-15 0 -15 15v37h438q15 0 15 -15v-37h-198v-641h-43zM222 -187q-10 0 -11 6t2 11l27 52q-14 4 -20 11t-6 23q0 21 10 30t30 9t30.5 -9t10.5 -30q0 -14 -5 -26t-14 -28l-29 -49h-25z" />
    <glyph glyph-name="uni021B" unicode="&#x21b;" horiz-adv-x="323" 
d="M263 43q12 0 16 -4.5t4 -10.5v-27q-38 -8 -71 -8t-55 7.5t-35 21t-18.5 32t-5.5 40.5v361h-45q-15 0 -15 15v33h60v135h41q15 0 15 -15v-120h114q15 0 15 -15v-33h-129v-354q0 -14 2 -24.5t9.5 -18.5t22 -12t39.5 -4q11 0 21 0.5t15 0.5zM153 -187q-10 0 -11 6t2 11
l27 52q-14 4 -20 11t-6 23q0 21 10 30t30 9t30.5 -9t10.5 -30q0 -14 -5 -26t-14 -28l-29 -49h-25z" />
    <glyph glyph-name="uni0237" unicode="&#x237;" horiz-adv-x="196" 
d="M126 -72q0 -19 -4.5 -37.5t-15.5 -32.5t-30 -23t-49 -9q-28 0 -41 6q-10 6 -10 18v24q10 -1 19.5 -1h19.5q34 0 44.5 14.5t10.5 40.5v575h41q15 0 15 -15v-560z" />
    <glyph glyph-name="glyph338" horiz-adv-x="432" 
d="M171 556q-10 0 -10 9q0 6 3 12l24 66q-33 4 -33 42q0 24 11 34t33 10q23 0 34.5 -10t11.5 -34q0 -17 -6.5 -34.5t-13.5 -33.5l-28 -61h-26z" />
    <glyph glyph-name="caron" unicode="&#x2c7;" horiz-adv-x="432" 
d="M142 708q13 0 23 -14l51 -74l61 88h31q7 0 10.5 -3.5t-1.5 -11.5q-17 -28 -33.5 -55t-42.5 -63h-37q-8 0 -11.5 1t-8.5 8q-17 25 -37 56.5t-40 67.5h35z" />
    <glyph glyph-name="uni02C9" unicode="&#x2c9;" horiz-adv-x="432" 
d="M116 616q-15 0 -15 15v33h215q15 0 15 -15v-33h-215z" />
    <glyph glyph-name="breve" unicode="&#x2d8;" horiz-adv-x="432" 
d="M141 695q8 0 10.5 -2.5t3.5 -11.5q5 -35 20 -47t41 -12q12 0 23 2.5t19.5 10.5t13.5 22.5t7 37.5h32q12 0 11 -14q-6 -60 -35 -81.5t-71 -21.5q-21 0 -39.5 5t-33 18t-23.5 35.5t-11 58.5h32z" />
    <glyph glyph-name="dotaccent" unicode="&#x2d9;" horiz-adv-x="432" 
d="M216 601q-21 0 -31 9t-10 32t10 32t31 9t31 -9t10 -32t-10 -32t-31 -9z" />
    <glyph glyph-name="ring" unicode="&#x2da;" horiz-adv-x="432" 
d="M216 610q23 0 36.5 11.5t13.5 39.5t-13.5 39.5t-36.5 11.5t-36.5 -11.5t-13.5 -39.5t13.5 -39.5t36.5 -11.5zM216 572q-47 0 -70 24t-23 65t23 65t70 24t70 -24t23 -65t-23 -65t-70 -24z" />
    <glyph glyph-name="ogonek" unicode="&#x2db;" horiz-adv-x="432" 
d="M231 -174q-35 0 -59 14t-24 53q0 31 23 57t50 51h55q-41 -38 -59 -59.5t-18 -42.5q0 -19 10 -25t27 -6q11 0 20 1.5t13 1.5q7 0 9.5 -3.5t2.5 -8.5v-25q-10 -3 -23 -5.5t-27 -2.5z" />
    <glyph glyph-name="hungarumlaut" unicode="&#x2dd;" horiz-adv-x="432" 
d="M223 708q6 0 10.5 -4.5t-0.5 -12.5l-76 -116h-30q-6 0 -10 3.5t0 11.5q14 32 28 60.5t29 57.5h49zM367 708q6 0 10.5 -4.5t-0.5 -12.5l-76 -116h-30q-6 0 -10 3.5t0 11.5q14 32 28 60.5t29 57.5h49z" />
    <glyph glyph-name="fraction" unicode="&#x2044;" horiz-adv-x="130" 
d="M-113 0h-32q-15 0 -15 13q0 6 4 13l399 651h32q15 0 15 -13q0 -6 -4 -13z" />
    <glyph glyph-name="uni2074" unicode="&#x2074;" horiz-adv-x="381" 
d="M239 421v204q-29 -21 -53.5 -47t-43.5 -53t-33 -54t-21 -50h151zM39 417q9 30 26.5 64.5t42.5 69.5t57 67.5t70 58.5h35q17 0 17 -17v-239h30q8 0 12 -5t4 -12v-25h-46v-97h-31q-17 0 -17 17v80h-184q-16 0 -16 17v21z" />
    <glyph glyph-name="afii61289" unicode="&#x2113;" horiz-adv-x="405" 
d="M299 565q0 65 -17.5 90t-48.5 25q-15 0 -27.5 -4t-21 -15t-13 -29.5t-4.5 -47.5v-277q38 23 63.5 51t40.5 60.5t21.5 69t6.5 77.5zM248 -8q-39 0 -64.5 11t-41.5 33.5t-22.5 57t-6.5 81.5v58l-58 -28q-7 -3 -12 0t-5 12v28l75 39v300q0 28 5.5 54t19.5 46.5t37 32.5
t59 12q55 0 85.5 -41t30.5 -117q0 -62 -11.5 -109t-34.5 -84t-57.5 -67t-79.5 -57v-76q0 -38 4 -64t14 -42t26.5 -23.5t41.5 -7.5t45 4.5t29 4.5t12.5 -5t3.5 -10v-25q-17 -6 -42.5 -12t-52.5 -6z" />
    <glyph glyph-name="estimated" unicode="&#x212e;" horiz-adv-x="619" 
d="M164 262v-181q59 -59 145 -59q63 0 109 28.5t84 91.5l35 -21q-23 -36 -46.5 -61.5t-51 -42t-59.5 -24t-71 -7.5q-59 0 -106.5 21.5t-81.5 59t-52 87.5t-18 108t18 108.5t52 87.5t81.5 58.5t106.5 21.5q58 0 105.5 -20.5t81.5 -57t53 -87t19 -111.5h-404zM455 298v145
q-63 60 -147 60t-144 -60v-145h291z" />
    <glyph glyph-name="partialdiff" unicode="&#x2202;" horiz-adv-x="508" 
d="M280 411q-45 0 -77 -16t-52 -44t-29.5 -67.5t-9.5 -85.5q0 -78 26.5 -120t89.5 -42q52 0 84.5 27.5t51 74.5t25 109.5t6.5 133.5q-22 13 -51 21.5t-64 8.5zM231 651q-44 0 -75.5 -7t-45.5 -7q-9 0 -11.5 5t-2.5 10v26q30 11 66 16.5t75 5.5q48 0 87.5 -14.5t68 -51
t44 -100t15.5 -161.5q0 -199 -58.5 -292.5t-167.5 -93.5q-88 0 -129.5 54.5t-41.5 153.5q0 54 13 102.5t39 85t66.5 57.5t96.5 21q44 0 78 -11t48 -21q-2 73 -17.5 117t-39 67t-52 30.5t-56.5 7.5z" />
    <glyph glyph-name="uni2206" unicode="&#x2206;" horiz-adv-x="535" 
d="M282 693q10 0 14 -3t8 -12q28 -61 58 -140.5t57.5 -169t49.5 -183.5t36 -185h-459q-10 0 -12.5 5t-1.5 10q14 92 37.5 187.5t51.5 184.5t58 168t59 138h44zM266 628q-73 -175 -112 -323t-58 -253h339q-19 105 -57.5 253t-111.5 323z" />
    <glyph glyph-name="product" unicode="&#x220f;" horiz-adv-x="597" 
d="M520 -96h-43q-15 0 -15 15v722h-327v-737h-43q-15 0 -15 15v774h428q15 0 15 -15v-774z" />
    <glyph glyph-name="summation" unicode="&#x2211;" horiz-adv-x="502" 
d="M57 632q-1 2 -5.5 9t-4.5 15v37h398q15 0 15 -15v-37h-341l210 -331q-66 -95 -117.5 -181.5t-96.5 -172.5h342q15 0 15 -15v-37h-412q-15 0 -15 15v29q54 100 110.5 194.5t106.5 167.5z" />
    <glyph glyph-name="uni2126" unicode="&#x2126;" horiz-adv-x="618" 
d="M534 52q11 0 18 -4t7 -17v-31h-157q-11 0 -18 4t-7 17v32q26 30 48 59.5t37.5 65t24.5 82t9 111.5q0 94 -16 149t-42.5 83.5t-60 36.5t-68.5 8t-68.5 -8t-60 -36.5t-42.5 -83.5t-16 -149q0 -64 8.5 -109.5t23.5 -80.5t35.5 -63.5t45.5 -57.5q6 -8 6 -18v-42h-157
q-11 0 -18 4t-7 17v31h123q-28 30 -50.5 60t-38 67.5t-24 84.5t-8.5 110q0 67 10.5 127t38 104.5t75.5 70.5t124 26t124 -26t75.5 -70.5t38 -104.5t10.5 -127q0 -63 -8.5 -109.5t-24.5 -84t-38 -68t-50 -60.5h98z" />
    <glyph glyph-name="minus" unicode="&#x2212;" 
d="M90 320q-15 0 -15 15v33h372q15 0 15 -15v-33h-372z" />
    <glyph glyph-name="uni2215" unicode="&#x2215;" horiz-adv-x="130" 
d="M-113 0h-32q-15 0 -15 13q0 6 4 13l399 651h32q15 0 15 -13q0 -6 -4 -13z" />
    <glyph glyph-name="uni2219" unicode="&#x2219;" horiz-adv-x="223" 
d="M64 340q0 26 11.5 36.5t35.5 10.5q25 0 36.5 -10.5t11.5 -36.5t-11.5 -36t-36.5 -10q-26 0 -36.5 10t-10.5 36z" />
    <glyph glyph-name="radical" unicode="&#x221a;" horiz-adv-x="525" 
d="M493 768q19 0 13 -22l-212 -746h-42q-11 0 -15.5 4.5t-9.5 18.5l-115 333l-64 -18q-6 -2 -10.5 0.5t-4.5 10.5v33l85 25q7 2 11.5 3t8.5 1q14 0 20 -17l105 -317l194 691h36z" />
    <glyph glyph-name="infinity" unicode="&#x221e;" horiz-adv-x="579" 
d="M160 461q42 0 70 -21.5t60 -72.5q16 25 30 43t29 29t32 16.5t38 5.5q35 0 58 -11.5t36.5 -30.5t18.5 -43.5t5 -50.5t-5 -50.5t-18.5 -43.5t-36.5 -30.5t-58 -11.5q-21 0 -38 5t-32 16.5t-29.5 29t-30.5 42.5q-32 -50 -59.5 -71.5t-69.5 -21.5q-35 0 -58 11.5t-36.5 30.5
t-18.5 43.5t-5 50.5t5 50.5t18.5 43.5t36.5 30.5t58 11.5zM160 236q16 0 28 4.5t24 15t24 27.5t28 41q-16 25 -28 42t-24 27.5t-24 15.5t-28 5q-36 0 -51.5 -22t-15.5 -67t15.5 -67t51.5 -22zM419 414q-16 0 -28.5 -5t-24 -15.5t-24 -27t-27.5 -40.5q16 -25 28 -42.5t24 -28
t24 -15t28 -4.5q36 0 51.5 22t15.5 67t-15.5 67t-51.5 22z" />
    <glyph glyph-name="integral" unicode="&#x222b;" horiz-adv-x="256" 
d="M180 116q3 -26 6 -47.5t3 -50.5q0 -21 -4 -41.5t-14.5 -36.5t-30 -26t-49.5 -10q-14 0 -30.5 1.5t-30.5 6.5q-8 3 -9.5 7t-1.5 9v25q18 -2 31.5 -2.5t24.5 -0.5q38 0 48.5 17.5t10.5 49.5q0 21 -2.5 44t-6.5 55l-49 423q-3 26 -6 47.5t-3 50.5q0 21 4 41.5t14.5 36.5
t30 26t49.5 10q14 0 30.5 -1.5t30.5 -6.5q8 -3 9.5 -7t1.5 -9v-25q-18 2 -31.5 2.5t-24.5 0.5q-38 0 -48.5 -17.5t-10.5 -49.5q0 -21 2.5 -44t6.5 -55z" />
    <glyph glyph-name="approxequal" unicode="&#x2248;" 
d="M255 412q-28 20 -46 29.5t-41 9.5q-16 0 -25.5 -6.5t-15 -18t-7 -26.5t-1.5 -33h-33q-10 0 -13 5t-3 12q0 61 26.5 88t71.5 27q35 0 63 -15.5t51 -32.5q28 -20 46 -29.5t41 -9.5q16 0 25.5 6.5t15 18t7 26.5t1.5 33h33q10 0 13 -5t3 -12q0 -61 -26.5 -88t-71.5 -27
q-35 0 -63 15.5t-51 32.5zM255 229q-28 20 -46 29.5t-41 9.5q-16 0 -25.5 -6.5t-15 -18t-7 -26.5t-1.5 -33h-33q-10 0 -13 5t-3 12q0 61 26.5 88t71.5 27q35 0 63 -15.5t51 -32.5q28 -20 46 -29.5t41 -9.5q16 0 25.5 6.5t15 18t7 26.5t1.5 33h33q10 0 13 -5t3 -12
q0 -61 -26.5 -88t-71.5 -27q-35 0 -63 15.5t-51 32.5z" />
    <glyph glyph-name="notequal" unicode="&#x2260;" 
d="M314 414l-52 -150h185q15 0 15 -15v-33h-216l-50 -145h-34q-7 0 -8 5t1 13l44 127h-109q-15 0 -15 15v33h140l52 150h-177q-15 0 -15 15v33h209l50 145h33q14 0 8 -16l-45 -129h117q15 0 15 -15v-33h-148z" />
    <glyph glyph-name="lessequal" unicode="&#x2264;" 
d="M105 0q-15 0 -15 15v33h332q15 0 15 -15v-33h-332zM437 141l-331 173q-8 5 -12 8.5t-4 11.5v32l322 173q5 3 7.5 3.5t5.5 0.5q12 0 12 -15v-30l-292 -154l283 -142q6 -4 7.5 -7t1.5 -12v-42z" />
    <glyph glyph-name="greaterequal" unicode="&#x2265;" 
d="M114 0q-15 0 -15 15v33h332q15 0 15 -15v-33h-332zM99 547l331 -173q8 -5 12 -8.5t4 -11.5v-32l-322 -173q-5 -3 -7.5 -3.5t-5.5 -0.5q-12 0 -12 15v30l292 154l-283 142q-6 4 -7.5 7t-1.5 12v42z" />
    <glyph glyph-name="lozenge" unicode="&#x25ca;" horiz-adv-x="497" 
d="M249 58l152 281l-152 279l-153 -279zM276 0h-42q-10 0 -13 2.5t-8 11.5l-181 325l189 338h42q10 0 13 -2.5t8 -11.5l181 -324z" />
    <glyph glyph-name="uniF001" unicode="&#xf001;" horiz-adv-x="481" 
d="M344 642q0 23 10 32t31 9t31 -9t10 -32t-10 -32t-31 -9t-31 9t-10 32zM154 503h244q15 0 15 -15v-488h-41q-15 0 -15 15v440h-203v-455h-41q-15 0 -15 15v440h-45q-15 0 -15 15v33h60v100q0 26 5 49t18 40t34 27t54 10q10 0 29.5 -2t33.5 -7q8 -3 9.5 -8t1.5 -10v-26
q-13 1 -21.5 2t-15.5 2t-13.5 1h-13.5q-41 0 -53 -21.5t-12 -61.5v-95z" />
    <glyph glyph-name="uniFB01" unicode="&#xfb01;" horiz-adv-x="481" 
d="M344 642q0 23 10 32t31 9t31 -9t10 -32t-10 -32t-31 -9t-31 9t-10 32zM154 503h244q15 0 15 -15v-488h-41q-15 0 -15 15v440h-203v-455h-41q-15 0 -15 15v440h-45q-15 0 -15 15v33h60v100q0 26 5 49t18 40t34 27t54 10q10 0 29.5 -2t33.5 -7q8 -3 9.5 -8t1.5 -10v-26
q-13 1 -21.5 2t-15.5 2t-13.5 1h-13.5q-41 0 -53 -21.5t-12 -61.5v-95z" />
    <glyph glyph-name="uniF002" unicode="&#xf002;" horiz-adv-x="528" 
d="M98 603q0 26 5 49t18 40t34 27t54 10q10 0 29.5 -2t33.5 -7q8 -3 9.5 -8t1.5 -10v-26q-13 1 -21.5 2t-15.5 2t-13.5 1h-13.5q-41 0 -53 -21.5t-12 -61.5v-95h203v215h41q15 0 15 -15v-612q0 -32 11.5 -39.5t36.5 -7.5h21q8 0 11 -4.5t3 -9.5v-27q-10 -2 -25.5 -4.5
t-29.5 -2.5q-43 0 -63.5 25.5t-20.5 67.5v366h-203v-455h-41q-15 0 -15 15v440h-45q-15 0 -15 15v33h60v100z" />
    <glyph glyph-name="uniFB02" unicode="&#xfb02;" horiz-adv-x="528" 
d="M98 603q0 26 5 49t18 40t34 27t54 10q10 0 29.5 -2t33.5 -7q8 -3 9.5 -8t1.5 -10v-26q-13 1 -21.5 2t-15.5 2t-13.5 1h-13.5q-41 0 -53 -21.5t-12 -61.5v-95h203v215h41q15 0 15 -15v-612q0 -32 11.5 -39.5t36.5 -7.5h21q8 0 11 -4.5t3 -9.5v-27q-10 -2 -25.5 -4.5
t-29.5 -2.5q-43 0 -63.5 25.5t-20.5 67.5v366h-203v-455h-41q-15 0 -15 15v440h-45q-15 0 -15 15v33h60v100z" />
    <glyph glyph-name="glyph370" horiz-adv-x="432" 
d="M227 869q6 0 11 -5t-2 -14l-83 -105h-31q-6 0 -10 4.5t1 12.5q17 32 32 56.5t32 50.5h50zM371 869q6 0 11 -5t-2 -14l-83 -105h-31q-6 0 -10 4.5t1 12.5q17 32 32 56.5t32 50.5h50z" />
    <glyph glyph-name="glyph371" horiz-adv-x="432" 
d="M355 847q0 -49 -18 -71t-53 -22q-26 0 -44 11t-35 24q-20 15 -31.5 22t-25.5 7q-11 0 -17 -6t-9 -15t-3.5 -20t-0.5 -21h-29q-8 0 -10 4t-2 9q0 49 18 71t53 22q26 0 44 -11t35 -24q20 -15 31.5 -22t25.5 -7q11 0 17 5.5t9 14.5t3.5 20t0.5 22h29q8 0 10 -4t2 -9z" />
    <glyph glyph-name="glyph372" horiz-adv-x="432" 
d="M216 768q23 0 36.5 11.5t13.5 39.5t-13.5 39.5t-36.5 11.5t-36.5 -11.5t-13.5 -39.5t13.5 -39.5t36.5 -11.5zM216 730q-47 0 -70 24t-23 65t23 65t70 24t70 -24t23 -65t-23 -65t-70 -24z" />
    <glyph glyph-name="glyph373" horiz-adv-x="432" 
d="M141 869q8 0 12.5 -3t10.5 -11l52 -64l64 78h33q7 0 10 -4t-2 -12q-17 -27 -37.5 -54.5t-40.5 -53.5h-41q-8 0 -11.5 1t-8.5 8q-16 21 -35.5 48.5t-43.5 66.5h38z" />
    <glyph glyph-name="glyph374" horiz-adv-x="432" 
d="M116 783q-15 0 -15 15v33h215q15 0 15 -15v-33h-215z" />
    <glyph glyph-name="glyph375" horiz-adv-x="432" 
d="M93 808q0 22 9.5 31t30.5 9q20 0 30 -9t10 -31t-10 -31t-30 -9q-21 0 -30.5 9t-9.5 31zM259 808q0 22 9.5 31t30.5 9q20 0 30 -9t10 -31t-10 -31t-30 -9q-21 0 -30.5 9t-9.5 31z" />
    <glyph glyph-name="glyph376" horiz-adv-x="432" 
d="M216 768q-21 0 -31 9t-10 32t10 32t31 9t31 -9t10 -32t-10 -32t-31 -9z" />
    <glyph glyph-name="glyph377" horiz-adv-x="432" 
d="M291 745q-8 0 -12.5 3t-10.5 11l-52 64l-64 -78h-33q-7 0 -10 4t2 12q17 27 37.5 54.5t40.5 53.5h41q8 0 11.5 -1t8.5 -8q16 -21 35.5 -48.5t43.5 -66.5h-38z" />
    <glyph glyph-name="glyph378" horiz-adv-x="432" 
d="M301 869q6 0 10.5 -4.5t-0.5 -12.5l-88 -107h-32q-6 0 -10 3.5t0 11.5q14 29 30 56t34 53h56z" />
    <glyph glyph-name="glyph379" horiz-adv-x="432" 
d="M199 854q12 -21 28 -49.5t28 -59.5h-37q-8 0 -12.5 3.5t-9.5 10.5l-84 110h67q8 0 11.5 -3.5t8.5 -11.5z" />
    <glyph glyph-name="glyph380" horiz-adv-x="432" 
d="M142 866q8 0 10 -4t3 -10q5 -35 20 -47t41 -12q12 0 23 2.5t19.5 10.5t13.5 22.5t7 37.5h32q13 0 11 -14q-6 -60 -35 -81.5t-71 -21.5q-21 0 -39.5 5t-33 18t-23.5 35.5t-11 58.5h33z" />
    <glyph glyph-name="glyph381" horiz-adv-x="432" 
d="M184 -187q-10 0 -11 6t2 11l27 52q-14 4 -20 11t-6 23q0 21 10 30t30 9t30.5 -9t10.5 -30q0 -14 -5 -26t-14 -28l-29 -49h-25z" />
    <glyph glyph-name="glyph382" horiz-adv-x="432" 
d="M201 560q-13 0 -13 13v145h44q16 0 16 -13q0 -7 -2 -23.5t-5 -37.5t-7 -43.5t-8 -40.5h-25z" />
    <glyph glyph-name="glyph383" horiz-adv-x="432" 
d="M184 -187q-10 0 -11 6t2 11l27 52q-14 4 -20 11t-6 23q0 21 10 30t30 9t30.5 -9t10.5 -30q0 -14 -5 -26t-14 -28l-29 -49h-25z" />
    <glyph glyph-name="glyph384" horiz-adv-x="432" 
d="M248 712q10 0 11 -6t-2 -11l-27 -52q14 -4 20 -11t6 -23q0 -21 -10 -30t-30 -9t-30.5 9t-10.5 30q0 14 5 26t14 28l29 49h25z" />
    <glyph glyph-name="glyph385" horiz-adv-x="432" 
d="M274 875q6 0 11.5 -5t-2.5 -14l-78 -97h-32q-6 0 -10 3.5t0 11.5q14 30 29.5 55.5t28.5 45.5h53z" />
    <glyph glyph-name="glyph386" horiz-adv-x="432" 
d="M288 759q-14 0 -23 12l-51 61l-61 -73h-33q-7 0 -9.5 4.5t2.5 11.5q17 25 35.5 49.5t40.5 50.5h38q8 0 11.5 -1t8.5 -7q17 -22 37 -49t41 -59h-37z" />
    <glyph glyph-name="glyph387" horiz-adv-x="432" 
d="M201 562q-13 0 -13 13v143h44q16 0 16 -13q0 -7 -2 -23t-5 -36.5t-7 -43t-8 -40.5h-25z" />
    <glyph glyph-name="glyph388" horiz-adv-x="356" 
d="M178 357q50 0 67.5 36.5t17.5 105.5t-17.5 105.5t-67.5 36.5t-67.5 -36.5t-17.5 -105.5t17.5 -105.5t67.5 -36.5zM178 312q-30 0 -54.5 10t-42.5 32.5t-28 58t-10 86.5t10 86.5t28 58t42.5 32.5t54.5 10t54.5 -10t42.5 -32.5t28 -58t10 -86.5t-10 -86.5t-28 -58
t-42.5 -32.5t-54.5 -10z" />
    <glyph glyph-name="Delta" unicode="&#x394;" horiz-adv-x="535" 
d="M282 693q10 0 14 -3t8 -12q28 -61 58 -140.5t57.5 -169t49.5 -183.5t36 -185h-459q-10 0 -12.5 5t-1.5 10q14 92 37.5 187.5t51.5 184.5t58 168t59 138h44zM266 628q-73 -175 -112 -323t-58 -253h339q-19 105 -57.5 253t-111.5 323z" />
    <glyph glyph-name="Omega" unicode="&#x3a9;" horiz-adv-x="618" 
d="M534 52q11 0 18 -4t7 -17v-31h-157q-11 0 -18 4t-7 17v32q26 30 48 59.5t37.5 65t24.5 82t9 111.5q0 94 -16 149t-42.5 83.5t-60 36.5t-68.5 8t-68.5 -8t-60 -36.5t-42.5 -83.5t-16 -149q0 -64 8.5 -109.5t23.5 -80.5t35.5 -63.5t45.5 -57.5q6 -8 6 -18v-42h-157
q-11 0 -18 4t-7 17v31h123q-28 30 -50.5 60t-38 67.5t-24 84.5t-8.5 110q0 67 10.5 127t38 104.5t75.5 70.5t124 26t124 -26t75.5 -70.5t38 -104.5t10.5 -127q0 -63 -8.5 -109.5t-24.5 -84t-38 -68t-50 -60.5h98z" />
    <glyph glyph-name="mu" unicode="&#x3bc;" horiz-adv-x="516" 
d="M230 -12q-8 0 -21 1.5t-28 6t-30.5 12.5t-26.5 22v-200h-41q-15 0 -15 15v658h41q15 0 15 -15v-323q0 -69 31.5 -98.5t83.5 -29.5q27 0 50.5 6.5t43 17t34.5 23t25 23.5v396h41q15 0 15 -15v-488h-37q-15 0 -15 15l-2 40q-11 -11 -26.5 -23t-36.5 -22t-46 -16t-55 -6z
" />
    <glyph glyph-name="pi" unicode="&#x3c0;" horiz-adv-x="548" 
d="M450 455v-455h-41q-15 0 -15 15v440h-240v-455h-41q-15 0 -15 15v440h-45q-15 0 -15 15v33h457q15 0 15 -15v-33h-60z" />
    <glyph glyph-name="space" unicode=" " horiz-adv-x="210" 
 />
    </font>
</defs>
</svg>
